<?xml version="1.0" encoding="iso-8859-1"?>
<!-- Generator: Adobe Illustrator 19.2.0, SVG Export Plug-In . SVG Version: 6.00 Build 0)  -->
<svg version="1.1" xmlns="http://www.w3.org/2000/svg" xmlns:xlink="http://www.w3.org/1999/xlink" x="0px" y="0px"
	 viewBox="0 0 200 200" style="enable-background:new 0 0 200 200;" xml:space="preserve">
<g id="ADULTSWIM">
	<g>
		<g>
			<path style="fill:#FFFFFF;" d="M194.238,113.064v0.499h-1.452v3.779h-0.588v-3.779h-1.449v-0.499H194.238z"/>
			<path style="fill:#FFFFFF;" d="M194.631,113.064h0.828l1.252,3.62l1.212-3.62h0.827v4.278h-0.546v-2.511
				c0-0.104,0-0.247,0.01-0.459c0-0.192,0-0.43,0-0.646l-1.225,3.615h-0.573l-1.264-3.615v0.126c0,0.101,0.014,0.271,0.024,0.484
				c0,0.219,0,0.358,0,0.494v2.511h-0.544V113.064z"/>
		</g>
		<path style="fill:#FFFFFF;" d="M17.658,103.953c0-1.158,0.31-1.814,0.96-2.301c0.575-0.461,1.422-0.503,3.375-1.542
			c0,0.843-0.03,1.926-0.03,3.65c0,2.066-1.196,2.841-2.498,2.841C18.311,106.601,17.658,105.604,17.658,103.953z M17.772,95.96
			c0.041-1.797,0.54-2.836,2.268-2.836c1.385,0,1.954,0.814,1.954,2.07c0,1.579-0.347,1.882-2.221,2.379
			c-1.727,0.462-4.032,0.845-5.569,1.693c-1.533,0.845-2.533,2.874-2.533,5.306c0,4.481,2.034,6.328,5.528,6.328
			c2.077,0,4.031-1.075,4.877-2.919h0.084c0.022,0.806,0.106,1.653,0.337,2.379h5.985c-0.722-0.917-0.722-2.923-0.722-4.491V95.194
			c0-4.372-2.268-6.136-7.376-6.136c-2.57,0-4.341,0.343-5.791,1.335c-1.462,1.001-2.304,2.732-2.343,5.568H17.772z"/>
		<path style="fill:#FFFFFF;" d="M40.769,100.11c0,4.028-0.389,6.257-2.225,6.257c-2.344,0-2.427-3.182-2.427-6.523
			c0-3.769,0.118-6.261,2.386-6.261C40.616,93.584,40.769,96.422,40.769,100.11z M40.881,110.361h5.992V82.948h-6.22v8.91h-0.08
			c-1.028-2.232-2.919-2.801-4.639-2.801c-5.108,0-6.021,4.642-6.021,11.094c0,7.752,2.219,10.748,6.406,10.748
			c2.756,0,4.032-1.65,4.487-3.075h0.075V110.361z"/>
		<path style="fill:#FFFFFF;" d="M66.102,110.361h-5.987v-2.456H60.04c-0.884,1.844-2.689,2.996-4.987,2.996
			c-3.539,0-5.421-1.764-5.421-5.765V89.594h6.221v14.166c0,1.495,0.658,2.371,1.806,2.371c1.184,0,2.225-0.915,2.225-2.946V89.594
			h6.217V110.361z"/>
		<path style="fill:#FFFFFF;" d="M69.018,82.948h6.225v27.412h-6.225V82.948z"/>
		<path style="fill:#FFFFFF;" d="M79.658,93.891h-2.574v-4.298h2.574V83.49h6.221v6.104h2.877v4.298h-2.877v10.484
			c0,1.451,0.532,1.912,1.997,1.912c0.265,0,0.613-0.035,0.88-0.07v4.143c-1.19,0.154-2.386,0.23-3.571,0.23
			c-4.297,0-5.527-0.765-5.527-5.607V93.891z"/>
		<path style="fill:#FFFFFF;" d="M101.679,103.76c0.047,0.923,0.119,1.728,0.426,2.343c0.349,0.578,0.916,0.961,1.924,0.961
			c1.456,0,2.226-0.933,2.226-2.114c0-0.962-0.464-1.879-2.383-2.534c-5.107-1.723-7.565-2.723-7.565-7.101
			c0-4.148,2.918-6.258,7.915-6.258c5.831,0,7.524,2.835,7.524,5.831v0.699h-5.535v-0.394c0-1.797-0.726-2.291-2.036-2.291
			c-1.651,0-2.112,0.797-2.112,1.909c0,3.686,9.945,1.236,9.945,9.297c0,4.18-2.806,6.791-7.937,6.791
			c-5.572,0-7.917-2.074-7.917-6.217v-0.923H101.679z"/>
		<path style="fill:#FFFFFF;" d="M112.737,89.594h6.214l2.009,15.315h0.071l2.337-15.315h6.685l2.188,15.315h0.071l2.198-15.315
			h5.987l-4.49,20.767h-7.028l-2.259-15.321h-0.076l-2.43,15.321h-7.134L112.737,89.594z"/>
		<path style="fill:#FFFFFF;" d="M142.337,89.594h6.227v20.767h-6.227V89.594z M142.337,82.641h6.227v4.762h-6.227V82.641z"/>
		<path style="fill:#FFFFFF;" d="M151.401,89.594h5.984v2.453h0.083c0.875-1.846,2.686-2.989,4.985-2.989
			c1.804,0,4.191,0.343,5.107,3.181c1.469-2.411,2.842-3.181,5.151-3.181c3.527,0,5.405,1.765,5.405,5.755v15.549h-6.222V96.194
			c0-1.495-0.646-2.38-1.8-2.38c-1.191,0-2.234,0.926-2.234,2.959v13.587h-6.216V96.194c0-1.495-0.649-2.38-1.805-2.38
			c-1.182,0-2.223,0.926-2.223,2.959v13.587h-6.216V89.594z"/>
		<path style="fill:#FFFFFF;" d="M1.25,82.895h9.714v4.3h-3.96v25.87h3.96v4.293H1.25V82.895z"/>
		<path style="fill:#FFFFFF;" d="M179.528,113.066h3.957v-25.87h-3.957v-4.3h9.705v34.463h-9.705V113.066z"/>
	</g>
</g>
<g id="Layer_1">
</g>
</svg>
