<?xml version="1.0" encoding="iso-8859-1"?>
<!-- Generator: Adobe Illustrator 19.2.0, SVG Export Plug-In . SVG Version: 6.00 Build 0)  -->
<svg version="1.1" xmlns="http://www.w3.org/2000/svg" xmlns:xlink="http://www.w3.org/1999/xlink" x="0px" y="0px"
	 viewBox="0 0 200 200" style="enable-background:new 0 0 200 200;" xml:space="preserve">
<g id="AETVHD">
	<path style="fill:#FFFFFF;" d="M89.243,119.741c0,8.217,7.596,15.653,15.738,15.653c5.703,0,9.916-1.804,14.392-5.845
		l-20.355-24.985C93.179,108.741,89.243,112.638,89.243,119.741z M106.639,80.493c3.122-2.228,5.564-4.874,5.564-8.35
		c0-4.597-2.985-8.078-8.007-8.078c-5.297,0-8.009,3.481-8.009,8.078c0,3.618,2.985,7.098,6.379,11.135
		C103.921,82.441,106.639,80.493,106.639,80.493z M91.063,51.508L41.954,51.5L3.368,148.477l32.637,0.011l6.305-17.994l30.548,0.03
		c-1.101-3.326-1.67-7.057-1.67-11.189c0-12.666,8.964-20.882,17.38-26.592c-3.939-4.595-9.641-11.553-9.641-21.023
		C78.928,62.64,83.293,55.326,91.063,51.508z M48.941,107.211l9.593-28.714l9.362,28.714H48.941z M147.028,124.714
		c-3.286,3.777-3.408,4.238-4.591,5.596l15.016,18.173l31.915-0.006l0.004-23.752L147.028,124.714z M129.428,72
		c0,7.659-3.936,12.811-9.909,17.267c0,0-4.481,3.478-6.924,5.151l19.264,23.279c0.543-0.75,6.75-8.209,6.75-8.209h47.692V88.703
		H138.61V73.888l50.829-0.035l0.008-22.351l-71.887,0.008C125.075,55.394,129.428,62.867,129.428,72z M194.259,143.799
		c-1.291,0-2.386,0.994-2.386,2.345c0,1.364,1.094,2.356,2.386,2.356c1.279,0,2.373-0.992,2.373-2.356
		C196.632,144.794,195.538,143.799,194.259,143.799z M194.259,148.121c-1.089,0-1.931-0.83-1.931-1.977
		c0-1.122,0.843-1.964,1.931-1.964c1.076,0,1.918,0.842,1.918,1.964C196.177,147.291,195.335,148.121,194.259,148.121z
		 M195.343,145.569c0-0.533-0.317-0.775-0.964-0.775h-1.037v2.714h0.418v-1.179h0.468l0.723,1.179h0.454l-0.772-1.192
		C195.038,146.264,195.343,146.054,195.343,145.569z M193.76,145.986v-0.85h0.562c0.476,0,0.602,0.147,0.602,0.406
		c0,0.297-0.164,0.444-0.67,0.444H193.76z"/>
</g>
<g id="Layer_1">
</g>
</svg>
