<?xml version="1.0" encoding="iso-8859-1"?>
<!-- Generator: Adobe Illustrator 19.2.0, SVG Export Plug-In . SVG Version: 6.00 Build 0)  -->
<svg version="1.1" xmlns="http://www.w3.org/2000/svg" xmlns:xlink="http://www.w3.org/1999/xlink" x="0px" y="0px"
	 viewBox="0 0 200 200" style="enable-background:new 0 0 200 200;" xml:space="preserve">
<g id="AMCHD">
	<g>
		<g>
			<path style="fill:#FFFFFF;" d="M42.031,103.309c-4.013,0.411-9.439,1.75-9.439,6.5c0,3.495,3.447,5.077,8.347,5.077
				c5.665,0,10.159-2.744,11.373-5.431c0.641-1.347,1.021-2.686,1.021-4.047v-2.523c0,0-2.775-0.005-3.146-0.005
				C48.557,102.876,46.016,102.908,42.031,103.309z"/>
			<path style="fill:#FFFFFF;" d="M1.524,56.957v86.085H188.25V56.957H1.524z M63.612,122.822h-9.858l-0.278-3.499
				c-2.413,1.975-8.643,4.574-15.042,4.574c-9.968,0-16.433-7.587-16.433-13.994c0-12.293,12.695-15.311,28.09-15.311
				c0.044,0,3.155,0,3.155,0s0.009-0.835,0.009-1.061c0-1.617-0.809-8.457-9.222-8.457c-7.03,0-9.142,3.133-9.911,5.921H23.76
				c0-3.469,2.704-14.887,20.101-14.887c14.674,0,19.751,7.914,19.751,21.926V122.822z M108.731,122.822V89.391l-9.271,33.432
				h-9.858l-9.27-33.432v33.432H69.63v-45.61h16.38c0,0,7.75,29.194,8.515,32.791l8.515-32.791h16.367l0.018,45.61H108.731z
				 M146.348,123.897c-12.925,0-21.944-10.296-21.944-23.892c0-14.21,9.076-23.901,21.944-23.901
				c10.768,0,19.239,7.617,21.399,18.399H157.43c-1.728-5.267-5.917-8.816-11.082-8.816c-6.805,0-11.931,6.164-11.931,14.317
				c0,8.144,5.126,14.316,11.931,14.316c5.192,0,9.403-3.592,11.108-8.921h10.313C165.644,116.239,157.151,123.897,146.348,123.897z
				"/>
		</g>
		<g>
			<path style="fill:#FFFFFF;" d="M196.054,60.285c0-0.995-0.667-1.29-1.759-1.29h-1.577v4.184h1.021V61.46h0.265l0.946,1.719h0.976
				l-1.047-1.794C195.594,61.336,196.054,61.049,196.054,60.285z M194.48,60.7h-0.742v-0.959h0.526c0.314,0,0.782,0.036,0.782,0.442
				C195.046,60.612,194.83,60.7,194.48,60.7z"/>
			<path style="fill:#FFFFFF;" d="M194.295,57.232c-1.988,0-3.84,1.418-3.84,3.862c0,2.443,1.852,3.844,3.84,3.844
				c1.984,0,3.836-1.401,3.836-3.844C198.131,58.65,196.279,57.232,194.295,57.232z M194.295,64.208
				c-1.617,0-2.916-1.285-2.916-3.115c0-1.825,1.299-3.107,2.916-3.107c1.582,0,2.938,1.281,2.938,3.107
				C197.233,62.923,195.877,64.208,194.295,64.208z"/>
		</g>
	</g>
</g>
<g id="Layer_1">
</g>
</svg>
