<?xml version="1.0" encoding="iso-8859-1"?>
<!-- Generator: Adobe Illustrator 19.2.1, SVG Export Plug-In . SVG Version: 6.00 Build 0)  -->
<svg version="1.1" xmlns="http://www.w3.org/2000/svg" xmlns:xlink="http://www.w3.org/1999/xlink" x="0px" y="0px"
	 viewBox="0 0 200 200" style="enable-background:new 0 0 200 200;" xml:space="preserve">
<g id="ASXS_x5F_white">
	<g>
		<path style="fill:#FFFFFF;" d="M124.087,86.433c0,0.587-0.437,0.862-0.966,0.61c0,0-6.35-3.017-10.38-3.044
			c-1.597-0.009-3.339,0.098-4.795,0.811c-1.224,0.605-2.134,1.848-1.906,3.271c0.151,0.903,0.907,1.563,1.642,2.03
			c1.272,0.807,2.756,1.276,4.199,1.671c1.948,0.529,3.942,0.891,5.872,1.47c2.937,0.884,5.848,2.415,7.427,5.155
			c0.808,1.409,1.223,3.008,1.373,4.618c0.157,1.693,0.076,3.448-0.359,5.099c-0.753,2.828-2.677,5.021-5.3,6.271
			c-3.018,1.438-6.506,1.741-9.804,1.707c-4.141-0.036-8.261-0.729-12.232-1.88c0,0-0.878-0.29-1.473-0.558v-0.716v-2.737v-3.905
			c0-0.589,0.438-0.871,0.972-0.625c0,0,6.508,2.97,10.575,3.268c1.761,0.129,3.621,0.103,5.33-0.382
			c1.358-0.382,2.724-1.186,3.07-2.655c0.329-1.406-0.155-3.021-1.385-3.838c-1.053-0.7-2.362-1.061-3.569-1.406
			c-2.225-0.641-4.528-0.994-6.749-1.661c-2.892-0.868-5.829-2.315-7.437-4.996c-0.838-1.397-1.251-3.002-1.371-4.622
			c-0.122-1.647,0.016-3.347,0.551-4.921c0.976-2.879,3.29-4.98,6.042-6.146c3.287-1.391,6.995-1.565,10.517-1.356
			c3.456,0.203,6.886,0.862,10.155,1.999V86.433z"/>
		<path style="fill:#FFFFFF;" d="M55.589,93.987v19.768c0,0.881-0.723,1.606-1.606,1.606h-6.521c-0.883,0-1.606-0.724-1.606-1.606
			v-0.97c0-0.883-0.489-1.075-1.088-0.427c0,0-1.607,1.742-3.458,2.632c-1.852,0.893-3.892,1.34-6.12,1.34
			c-4.258,0-7.575-1.126-9.949-3.377c-2.376-2.252-3.562-5.396-3.562-9.432c0-4.37,1.416-7.597,4.246-9.683
			c2.834-2.084,7.215-3.126,13.145-3.126h5.185c0.881,0,1.603-0.369,1.603-0.822c0-0.45-0.145-1.525-0.324-2.39
			c0,0-0.25-1.209-1.399-2.022c-1.148-0.814-2.836-1.22-5.066-1.22c-2.343,0-4.61,0.295-6.806,0.885
			c-2.196,0.593-4.486,1.535-6.872,2.826v-6.756c0-0.882,0.679-1.847,1.512-2.143c0,0,2.846-1.011,5.075-1.437
			c2.23-0.421,4.594-0.635,7.091-0.635c6.086,0,10.362,1.24,12.826,3.714C54.357,83.187,55.589,87.613,55.589,93.987 M43.551,97.768
			c-0.884,0-2.327,0.054-3.208,0.122c0,0-4.609,0.346-6.057,1.282c-1.452,0.936-2.175,2.541-2.175,4.817
			c0,1.694,0.503,3.042,1.505,4.046c1.004,1.002,2.363,1.505,4.08,1.505c2.588,0,4.594-0.975,6.023-2.927
			c1.424-1.951,2.138-4.676,2.138-8.177c0-0.369-0.722-0.669-1.603-0.669H43.551z"/>
		<path style="fill:#FFFFFF;" d="M96.711,77.478H80.644c-0.777,0-1.694,0.564-2.046,1.252c0,0-0.503,1.143-0.912,2.257
			c-0.04,1.402,5.051,14.624,5.051,14.624L97.207,78.55C97.709,77.957,97.486,77.478,96.711,77.478"/>
		<path style="fill:#FFFFFF;" d="M94.812,122.319L72.547,78.73c-0.351-0.688-1.271-1.251-2.046-1.251H54.434
			c-0.774,0-0.998,0.479-0.495,1.071l15.417,18.484l-8.758,17.343c-0.35,0.691,0,1.258,0.773,1.258h2.965
			c0.775,0,1.817-0.484,2.319-1.077l8.733-10.294l15.209,18.238c0.503,0.592,1.547,1.076,2.32,1.076h1.119
			C94.812,123.577,95.16,123.009,94.812,122.319"/>
		<path style="fill:#FFFFFF;" d="M172.562,88.434c0.335,0,0.525,0.262,0.425,0.581l-6.453,20.297
			c-0.1,0.322-0.459,0.581-0.793,0.581h-5.697c-0.336,0-0.692-0.259-0.795-0.581l-5.188-16.294
			c-0.056-0.177-0.221-0.297-0.407-0.296l-6.417,0.023c-0.334,0-0.609,0.274-0.609,0.61v8.936c0,0.334,0.038,0.882,0.085,1.213
			c0,0,0.148,1.041,0.613,1.455c0.467,0.416,1.722,0.556,1.722,0.556c0.334,0.037,0.881,0.068,1.216,0.068h3.092
			c0.335,0,0.609,0.274,0.609,0.609v3.093c0,0.335-0.274,0.609-0.609,0.609h-5.692c-0.334,0-0.879-0.043-1.21-0.093
			c0,0-2.599-0.42-3.736-1.449c-1.136-1.028-1.706-2.589-1.706-5.719v-9.276c0-0.336-0.274-0.61-0.61-0.61h-4.259
			c-0.336,0-0.61-0.275-0.61-0.61v-3.09c0-0.336,0.275-0.61,0.61-0.61h4.261c0.334,0,0.608-0.274,0.608-0.608V82.95
			c0-0.336,0.275-0.61,0.61-0.61h4.394c0.336,0,0.61,0.275,0.61,0.61v4.875c0,0.335,0.274,0.609,0.609,0.609h10.456
			c0.335,0,0.681,0.264,0.771,0.587l4.259,15.571c0.088,0.323,0.232,0.324,0.32,0l4.277-15.571c0.088-0.323,0.435-0.587,0.77-0.587
			H172.562z M178.323,78.013c0-0.878-0.712-1.59-1.59-1.59h-45.047c-0.878,0-1.59,0.712-1.59,1.59v36.738
			c0,0.878,0.712,1.59,1.59,1.59h45.047c0.878,0,1.59-0.712,1.59-1.59V78.013z"/>
	</g>
</g>
<g id="Layer_1">
</g>
</svg>
