<?xml version="1.0" encoding="iso-8859-1"?>
<!-- Generator: Adobe Illustrator 19.2.1, SVG Export Plug-In . SVG Version: 6.00 Build 0)  -->
<svg version="1.1" xmlns="http://www.w3.org/2000/svg" xmlns:xlink="http://www.w3.org/1999/xlink" x="0px" y="0px"
	 viewBox="0 0 200 200" style="enable-background:new 0 0 200 200;" xml:space="preserve">
<g id="bbc_x5F_america_x5F_white">
	<g>
		<path style="fill:#FFFFFF;" d="M66.57,66.116h-1.499v-4.835h1.499c0.806,0,1.91,0,2.645,0.323
			c0.715,0.315,1.159,1.071,1.159,1.973c0,1.342-0.923,1.946-1.32,2.144l-0.007,0.003l-0.007,0.004
			C68.585,65.978,67.708,66.116,66.57,66.116z M102.498,69.615c-0.646-0.258-1.484-0.355-3.089-0.355h-2.277v5.108h2.421
			c0.742,0,2.122,0,2.784-0.25c1.328-0.477,1.799-1.546,1.799-2.317C104.136,71.438,104.018,70.207,102.498,69.615z M114.205,82.144
			H85.796V53.735h28.409V82.144z M107.794,72.046c0-2.269-1.528-4.104-3.974-4.881c1.51-0.875,2.274-2.152,2.274-3.807
			c0-2.238-1.299-3.975-3.565-4.765c-1.009-0.357-2.052-0.429-3.408-0.429h-5.159h-0.374v0.374v18.574v0.374h0.374h5.447
			c2.119,0,3.086,0,4.296-0.4c0.539-0.174,1.583-0.592,2.495-1.431C107.258,74.681,107.794,73.467,107.794,72.046z M70.437,69.615
			c-0.646-0.258-1.484-0.355-3.089-0.355h-2.277v5.108h2.421c0.742,0,2.122,0,2.784-0.25c1.328-0.477,1.799-1.546,1.799-2.317
			C72.075,71.438,71.957,70.207,70.437,69.615z M101.101,65.727l0.007-0.004l0.007-0.003c0.397-0.197,1.32-0.802,1.32-2.144
			c0-0.901-0.444-1.657-1.159-1.973c-0.735-0.323-1.839-0.323-2.645-0.323h-1.499v4.835h1.499
			C99.769,66.116,100.646,65.978,101.101,65.727z M82.144,82.144H53.735V53.735h28.409V82.144z M75.733,72.046
			c0-2.269-1.528-4.104-3.974-4.881c1.51-0.875,2.274-2.152,2.274-3.807c0-2.238-1.299-3.975-3.565-4.765
			c-1.009-0.357-2.052-0.429-3.409-0.429h-5.158h-0.374v0.374v18.574v0.374h0.374h5.447c2.119,0,3.086,0,4.296-0.4
			c0.538-0.174,1.583-0.592,2.495-1.431C75.197,74.681,75.733,73.467,75.733,72.046z M146.265,53.735v28.409h-28.409V53.735H146.265
			z M140.563,72.141l-0.569,0.349c-2.15,1.318-4.51,2.015-6.823,2.015c-5.143,0-7.486-3.434-7.486-6.625
			c0-1.769,0.712-3.422,2.005-4.655c1.368-1.305,3.304-2.024,5.452-2.024c2.151,0,4.457,0.625,6.668,1.808l0.55,0.294v-0.624v-2.86
			v-0.252l-0.233-0.095c-1.047-0.425-3.828-1.553-7.072-1.553c-6.211,0-11.076,4.363-11.076,9.934c0,2.428,0.974,4.846,2.673,6.634
			c1.407,1.48,3.997,3.245,8.345,3.245c2.749,0,5.158-0.548,7.363-1.675l0.204-0.104v-0.229v-2.914V72.141z M60.414,140.821
			c0.543,0.716,2.235,3.321,3.62,5.444H53.735v-8.771h0.993C56.546,137.495,57.823,137.495,60.414,140.821z M146.083,95.547
			c0.062,0.029,0.122,0.062,0.182,0.095v6.867c-0.209,0.132-0.436,0.251-0.685,0.348c-1.044,0.387-3.094,0.387-3.674,0.387h-1.47
			v-8.316h1.16C143.878,94.928,145.116,95.082,146.083,95.547z M122.107,128.25l4.255,9.554h-8.2L122.107,128.25z M55.192,134.13
			h-1.458v-8.316h1.148c2.282,0,3.52,0.155,4.487,0.619c1.238,0.58,2.011,2.011,2.011,3.52c0,1.431-0.735,3.094-2.514,3.791
			C57.823,134.13,55.772,134.13,55.192,134.13z M127.909,141.208l2.29,5.057h-15.67l2.164-5.057H127.909z M146.265,85.642v6.403
			c-1.095-0.268-2.122-0.328-2.967-0.328h-6.614v26.379h3.752v-11.488h1.006c1.604,0,2.787,0.002,4.824,2.287v37.37h-12.177
			L123.5,122.449h-2.669l-10.172,23.817h-3.675v-3.394c-2.785,1.818-6.034,2.94-9.36,2.94c-7.001,0-10.482-5.028-10.482-9.941
			c0-5.299,4.061-10.018,10.443-10.018c3.21,0,6.343,1.044,9.128,2.63v-4.061c-1.702-0.735-5.183-2.166-9.244-2.166
			c-8.355,0-14.273,6.305-14.273,13.577c0,3.652,1.555,7.726,4.866,10.434H78.013v-23.662h-3.791v23.662h-5.835
			c-0.591-0.849-1.063-1.561-1.669-2.543c-2.011-3.249-3.481-5.686-5.879-7.271c2.862-1.122,4.409-3.443,4.409-6.498
			c0-2.669-1.315-5.299-4.139-6.498c-1.663-0.735-3.288-0.851-4.526-0.851h-2.85V85.642H146.265z M80.406,118.252L68.609,91.718
			H65.94l-11.333,26.534h3.868l3.326-7.775h11.217l3.52,7.775H80.406z M108.409,91.873h-3.52l-8.741,10.83l-8.78-10.83H83.81v26.379
			h3.79V97.713l8.2,10.211h0.696l8.123-10.211v20.539h3.79V91.873z M130.317,114.848h-11.526v-8.2h10.792v-3.365h-10.792v-8.045
			h11.178v-3.365H115v26.379h15.317V114.848z M67.216,97.52l4.255,9.554h-8.2L67.216,97.52z"/>
	</g>
</g>
<g id="Layer_1">
</g>
</svg>
