<?xml version="1.0" encoding="iso-8859-1"?>
<!-- Generator: Adobe Illustrator 19.1.0, SVG Export Plug-In . SVG Version: 6.00 Build 0)  -->
<svg version="1.1" xmlns="http://www.w3.org/2000/svg" xmlns:xlink="http://www.w3.org/1999/xlink" x="0px" y="0px"
	 viewBox="0 0 200 200" style="enable-background:new 0 0 200 200;" xml:space="preserve">
<g id="BET_x5F_white">
	<g>
		<path style="fill:#FFFFFF;" d="M184.709,94.029h-21.425l-6.582-20.732l-6.577,20.732h-21.431l17.368,12.418l-6.67,20.199
			l17.309-12.532l17.314,12.532l-6.667-20.199L184.709,94.029z M148.745,73.267H84.531c-5.853,0-9.379,0.801-12.265,2.565
			c-2.405,1.523-4.649,3.607-6.413,6.172c-1.216,1.714-2.188,3.477-2.948,5.345c0-0.018,0.001-0.037,0.001-0.055
			c0-6.972-4.489-12.585-10.823-13.547c-1.684-0.24-4.489-0.48-6.573-0.48h-30.22v53.467h29.578c7.695,0,11.063-0.883,13.948-3.528
			c2.646-2.405,4.008-6.173,4.008-10.581c0-0.122-0.007-0.239-0.009-0.359c2.207,6.268,6.124,10.81,11.214,12.625
			c3.608,1.282,8.257,1.843,14.91,1.843h12.295v-13.736H92.36c-10.677-0.023-14.173,0.94-16.039-6.84h24.912V94.084l-24.936-0.015
			c0,0,1.245-7.066,8.64-7.066c2.188,0,3.644,0,7.491,0h17.061v39.73h15.5v-39.73h19.482L148.745,73.267z M28.41,87.045h16.752
			c4.145,0,3.939,3.478,3.939,3.478c0,3.634-3.953,3.485-3.953,3.485H28.41V87.045z M49.135,109.554
			c0,3.634-3.954,3.486-3.954,3.486H28.444v-6.964h16.752C49.34,106.076,49.135,109.554,49.135,109.554z M55.13,100.039
			c2.481-1.018,4.593-3.115,5.987-5.72c-0.211,1.642-0.315,3.378-0.315,5.24c0,2.077,0.14,4.074,0.407,5.978
			C59.936,103.158,57.914,101.301,55.13,100.039z"/>
	</g>
</g>
<g id="Layer_1">
</g>
</svg>
