<?xml version="1.0" encoding="iso-8859-1"?>
<!-- Generator: Adobe Illustrator 19.2.0, SVG Export Plug-In . SVG Version: 6.00 Build 0)  -->
<svg version="1.1" xmlns="http://www.w3.org/2000/svg" xmlns:xlink="http://www.w3.org/1999/xlink" x="0px" y="0px"
	 viewBox="0 0 200 200" style="enable-background:new 0 0 200 200;" xml:space="preserve">
<g id="BLOOMBERG">
	<g>
		<path style="fill:#FFFFFF;" d="M6.347,78.945h4.293c3.918,0,5.648,1.236,5.648,3.75c0,2.19-1.73,3.669-5.193,3.669H6.347V78.945z
			 M1.149,103.695h10.52c5.528,0,11.06-1.979,11.06-8.333c0-3.755-2.645-6.644-6.32-7.055v-0.084c3.015-0.908,5.08-3.095,5.08-6.396
			c0-5.32-4.537-7.337-8.955-7.337H1.149V103.695z M6.347,90.822h4.99c4.207,0,6.187,1.074,6.187,4.13
			c0,3.834-3.712,4.288-6.39,4.288H6.347V90.822z"/>
		<rect x="26.117" y="73.797" style="fill:#FFFFFF;" width="4.95" height="29.898"/>
		<path style="fill:#FFFFFF;" d="M39.33,93.792c0-3.094,2.188-5.94,5.82-5.94c3.63,0,5.815,2.846,5.815,5.94
			c0,3.096-2.185,5.944-5.815,5.944C41.517,99.736,39.33,96.889,39.33,93.792 M34.382,93.792c0,6.234,4.785,10.394,10.768,10.394
			c5.98,0,10.763-4.16,10.763-10.394c0-6.23-4.783-10.395-10.763-10.395C39.167,83.397,34.382,87.562,34.382,93.792"/>
		<path style="fill:#FFFFFF;" d="M63.105,93.792c0-3.094,2.185-5.94,5.817-5.94c3.63,0,5.815,2.846,5.815,5.94
			c0,3.096-2.185,5.944-5.815,5.944C65.29,99.736,63.105,96.889,63.105,93.792 M58.152,93.792c0,6.234,4.788,10.394,10.77,10.394
			c5.98,0,10.763-4.16,10.763-10.394c0-6.23-4.782-10.395-10.763-10.395C62.94,83.397,58.152,87.562,58.152,93.792"/>
		<path style="fill:#FFFFFF;" d="M82.71,83.893h4.702v3.095h0.083c0.865-1.86,2.763-3.592,6.065-3.592
			c3.055,0,5.158,1.2,6.188,3.675c1.445-2.523,3.548-3.675,6.52-3.675c5.28,0,7.138,3.753,7.138,8.499v11.799h-4.95v-11.22
			c0-2.476-0.745-4.623-3.673-4.623c-3.097,0-4.25,2.561-4.25,5.113v10.73H95.58V91.896c0-2.43-0.987-4.044-3.38-4.044
			c-3.263,0-4.537,2.396-4.537,5.036v10.806H82.71V83.893z"/>
		<path style="fill:#FFFFFF;" d="M133.834,93.792c0,3.096-2.185,5.944-5.818,5.944c-3.628,0-5.813-2.848-5.813-5.944
			c0-3.094,2.185-5.94,5.813-5.94C131.649,87.852,133.834,90.699,133.834,93.792 M117.416,103.695h4.703v-2.974h0.085
			c1.443,2.398,4.042,3.471,6.808,3.471c6.103,0,9.772-4.538,9.772-10.4c0-5.853-3.917-10.395-9.57-10.395
			c-3.713,0-5.69,1.731-6.72,3.009h-0.125V73.797h-4.953V103.695z"/>
		<path style="fill:#FFFFFF;" d="M145.974,91.813c0.375-2.846,2.185-4.704,5.12-4.704c3.093,0,4.987,1.819,5.03,4.704H145.974z
			 M161.072,95.522v-1.354c0-6.887-3.753-10.771-9.283-10.771c-5.98,0-10.765,4.165-10.765,10.395c0,6.234,4.785,10.4,10.765,10.4
			c3.138,0,6.068-1.123,8.375-3.96l-3.545-2.681c-1.238,1.521-2.845,2.681-5.318,2.681c-2.767,0-4.998-1.774-5.328-4.71H161.072z"/>
		<path style="fill:#FFFFFF;" d="M164.302,83.893h4.947v3.135h0.085c1.075-2.271,3.263-3.632,5.86-3.632
			c0.62,0,1.195,0.124,1.775,0.289v4.786c-0.828-0.201-1.612-0.369-2.395-0.369c-4.663,0-5.325,3.919-5.325,4.993v10.599h-4.947
			V83.893z"/>
		<path style="fill:#FFFFFF;" d="M188.039,87.852c3.593,0,5.857,2.396,5.857,5.814c0,3.309-2.227,5.821-5.898,5.821
			c-3.34,0-5.817-2.599-5.817-5.734C182.182,90.249,184.579,87.852,188.039,87.852 M193.897,83.893v2.969h-0.08
			c-1.448-2.395-4.04-3.465-6.805-3.465c-6.107,0-9.78,4.543-9.78,10.395c0,5.607,3.922,10.154,9.86,10.154
			c2.475,0,5.033-0.951,6.475-2.891h0.088v1.446c0,3.921-1.485,6.64-6.27,6.64c-2.77,0-4.832-1.03-6.813-2.849l-2.97,4.042
			c2.805,2.481,6.148,3.265,9.82,3.265c7.715,0,11.18-4.543,11.18-11.673V83.893H193.897z"/>
		<polygon style="fill:#FFFFFF;" points="0.869,111.166 12.121,111.166 12.121,114.061 8.336,114.061 8.336,125.789 4.675,125.789 
			4.675,114.061 0.869,114.061 		"/>
		<polygon style="fill:#FFFFFF;" points="13.769,111.186 24.566,111.186 24.566,114.02 17.41,114.02 17.41,116.668 24.09,116.668 
			24.09,119.439 17.41,119.439 17.41,122.914 25.207,122.914 25.207,125.789 13.769,125.789 		"/>
		<polygon style="fill:#FFFFFF;" points="27.488,111.166 31.129,111.166 31.129,122.706 36.838,122.706 36.838,125.789 
			27.488,125.789 		"/>
		<polygon style="fill:#FFFFFF;" points="38.599,111.186 49.396,111.186 49.396,114.02 42.24,114.02 42.24,116.668 48.92,116.668 
			48.92,119.439 42.24,119.439 42.24,122.914 50.037,122.914 50.037,125.789 38.599,125.789 		"/>
		<polygon style="fill:#FFFFFF;" points="60.727,111.186 64.615,111.186 59.548,125.789 55.825,125.789 50.819,111.186 
			54.708,111.186 57.728,121.569 		"/>
		<rect x="66.16" y="111.186" style="fill:#FFFFFF;" width="3.641" height="14.603"/>
		<path style="fill:#FFFFFF;" d="M74.354,121.404c0.373,0.414,0.683,0.745,1.407,1.137c0.972,0.518,1.965,0.703,2.813,0.703
			c1.448,0,2.689-0.683,2.689-1.696c0-1.157-1.469-1.345-2.544-1.49c-0.806-0.103-1.613-0.206-2.399-0.373
			c-0.89-0.185-3.93-0.826-3.93-3.97c0-3.765,3.351-4.883,5.874-4.883c3.371,0,5.192,1.635,6.453,2.773l-2.689,1.924
			c-0.455-0.456-0.869-0.849-1.448-1.179c-0.518-0.29-1.448-0.643-2.379-0.643c-1.448,0-2.172,0.827-2.172,1.531
			c0,1.116,1.241,1.282,1.861,1.365c1.551,0.186,3.64,0.579,4.468,0.869c1.675,0.62,2.523,1.924,2.523,3.579
			c0,1.054-0.393,2.214-1.158,3.103c-1.324,1.531-3.434,1.965-5.481,1.965c-4.116,0-5.75-1.904-6.66-2.959L74.354,121.404z"/>
		<rect x="87.218" y="111.186" style="fill:#FFFFFF;" width="3.64" height="14.603"/>
		<path style="fill:#FFFFFF;" d="M100.553,126.203c-4.633,0-7.26-3.558-7.26-7.776c0-3.951,2.502-7.695,7.198-7.695
			c0.869,0,1.779,0.124,2.668,0.435c4.468,1.55,4.757,6.411,4.757,7.404c0,2.524-1.158,4.799-2.772,6.101
			C103.717,125.852,102.063,126.203,100.553,126.203 M103.076,114.846c-0.62-0.661-1.572-1.075-2.564-1.075
			c-2.213,0-3.62,1.945-3.62,4.592c0,3.475,1.944,4.758,3.661,4.758c1.738,0,3.599-1.243,3.703-4.303
			C104.317,117.288,103.904,115.736,103.076,114.846"/>
		<path style="fill:#FFFFFF;" d="M110.303,111.186h3.578l3.165,5.378c1.158,2.048,1.51,2.71,2.193,3.992l-0.166-9.37h3.496v14.603
			h-3.578l-2.73-4.613c-1.324-2.172-1.572-2.627-2.564-4.571l0.103,9.184h-3.496V111.186z"/>
	</g>
</g>
<g id="Layer_1">
</g>
</svg>
