<?xml version="1.0" encoding="iso-8859-1"?>
<!-- Generator: Adobe Illustrator 19.2.1, SVG Export Plug-In . SVG Version: 6.00 Build 0)  -->
<svg version="1.1" xmlns="http://www.w3.org/2000/svg" xmlns:xlink="http://www.w3.org/1999/xlink" x="0px" y="0px"
	 viewBox="0 0 200 200" style="enable-background:new 0 0 200 200;" xml:space="preserve">
<g id="bravo_x5F_white">
	<g>
		<g>
			<g>
				<path style="fill:none;" d="M158.665,87.496c0-4.25-0.042-8.5,0.019-12.748c0.027-1.846-0.417-2.889-2.578-2.929
					c-2.236-0.042-2.95,0.975-2.947,2.974c0.013,8.395,0.01,16.791,0.004,25.186c-0.001,1.897,0.793,2.799,2.817,2.785
					c2.035-0.014,2.744-0.872,2.708-2.831C158.612,95.789,158.665,91.642,158.665,87.496z"/>
				<path style="fill:none;" d="M47.243,72.437c0.005-1.651,0.005-3.302,0-4.954c-0.015-5.001-0.406-5.328-5.767-4.724
					c0,4.975,0,9.745,0,14.47C46.739,77.687,47.229,77.254,47.243,72.437z"/>
				<path style="fill:none;" d="M97.849,89.833c-1.347,1.505-3.273,2.809-3.886,4.57c-0.678,1.946-0.389,4.35-0.038,6.475
					c0.139,0.843,1.644,2.12,2.4,2.037c0.961-0.105,2.487-1.329,2.561-2.176c0.295-3.39,0.122-6.82,0.122-10.235
					C98.621,90.28,98.235,90.057,97.849,89.833z"/>
				<path style="fill:none;" d="M41.311,86.811c0,5.024,0,10.065,0,15.257c5.42,0.709,5.926,0.298,5.933-4.453
					c0.003-2.173,0.002-4.345,0-6.518C47.239,86.117,46.237,85.384,41.311,86.811z"/>
			</g>
			<path style="fill:#FFFFFF;" d="M41.311,102.068c0-5.192,0-10.233,0-15.257c4.927-1.427,5.928-0.693,5.933,4.286
				c0.002,2.173,0.003,4.345,0,6.518C47.237,102.366,46.73,102.777,41.311,102.068z"/>
			<path style="fill:#FFFFFF;" d="M41.476,62.759c5.362-0.604,5.753-0.276,5.767,4.724c0.005,1.651,0.005,3.302,0,4.954
				c-0.014,4.817-0.504,5.25-5.767,4.792C41.476,72.504,41.476,67.734,41.476,62.759z"/>
			<path style="fill:#FFFFFF;" d="M158.665,87.496c0,4.146-0.053,8.293,0.023,12.437c0.036,1.959-0.673,2.817-2.708,2.831
				c-2.024,0.014-2.818-0.888-2.817-2.785c0.006-8.395,0.009-16.791-0.004-25.186c-0.003-1.999,0.711-3.016,2.947-2.974
				c2.162,0.041,2.605,1.083,2.578,2.929C158.624,78.997,158.665,83.247,158.665,87.496z"/>
			<path style="fill:#FFFFFF;" d="M99.007,90.504c0,3.415,0.173,6.846-0.122,10.235c-0.074,0.847-1.599,2.072-2.561,2.176
				c-0.756,0.082-2.261-1.194-2.4-2.037c-0.35-2.125-0.64-4.529,0.038-6.475C94.576,92.643,98.621,90.28,99.007,90.504z"/>
		</g>
		<g>
			<path style="fill:none;" d="M102.776,62.716c-3.569-0.401-7.254-0.378-10.825,0.02c-3.139,0.349-5.87,2.21-6.522,5.462
				c-0.715,3.572-0.695,7.292-1,11.01c3.797,0,6.881,0,10.345,0c0-1.771,0.019-3.409-0.005-5.046
				c-0.023-1.584,0.116-2.858,2.26-2.892c2.224-0.035,2.594,1.223,2.581,2.978c-0.011,1.454-0.109,2.919,0.029,4.361
				c0.178,1.852-0.577,2.791-2.301,3.435c-2.811,1.049-5.533,2.336-8.28,3.553c-2.912,1.29-4.65,3.493-4.727,6.722
				c-0.103,4.348-0.327,8.721,0.002,13.045c0.407,5.342,3.755,7.745,8.971,6.599c1.942-0.427,3.699-1.695,5.542-2.575
				c0.263-0.125,0.54-0.219,0.972-0.391c0.143,0.97,0.269,1.825,0.392,2.656c3.286,0,6.373,0,9.762,0
				c0-13.945,0.099-27.549-0.059-41.15C109.867,66.288,106.994,63.19,102.776,62.716z"/>
			<path style="fill:none;" d="M79.518,74.157c0.26-0.063,0.565-0.217,0.848-0.413c-1.787,0.112-3.506,0.57-5.087,1.713
				C76.122,74.982,77.439,74.663,79.518,74.157z"/>
			<path style="fill:none;" d="M53.649,81.262c4.441-2.409,5.088-6.141,4.959-10.251c-0.082-2.592,0.066-5.192-0.038-7.783
				c-0.211-5.274-2.472-8.915-7.3-9.383c-6.611-0.641-13.331-0.16-20.087-0.16c0,19.282,0,38.541,0,58.108
				c1.296,0,2.411,0.008,3.525-0.001c4.875-0.043,9.786,0.264,14.617-0.224c6.585-0.665,9.427-4.205,9.493-10.823
				c0.034-3.425-0.11-6.855,0.037-10.274C59.028,86.463,58.336,83.011,53.649,81.262z"/>
			<path style="fill:none;" d="M74.048,77.052c0.107-0.395,0.256-0.722,0.477-0.99c-0.161,0.144-0.32,0.294-0.477,0.454V77.052z"/>
			<path style="fill:none;" d="M169.829,71.815c-0.094-4.964-2.944-8.414-7.686-9.135c-2.651-0.403-5.398-0.593-8.065-0.387
				c-8.093,0.625-10.94,3.827-10.971,12.016c-0.033,8.628-0.031,17.255,0.014,25.883c0.008,1.547,0.209,3.108,0.48,4.635
				c0.669,3.765,2.932,6.371,6.649,6.932c3.652,0.551,7.479,0.824,11.121,0.362c5.782-0.732,8.431-4.23,8.476-10.058
				c0.037-4.885,0.008-9.771,0.005-14.657C169.851,82.209,169.928,77.01,169.829,71.815z"/>
			<path style="fill:none;" d="M127.326,93.716c-0.192,0.014-0.384,0.028-0.576,0.042c-1.261-10.231-2.523-20.463-3.798-30.802
				c-3.535,0-6.824,0-10.531,0c2.524,16.545,4.982,32.661,7.431,48.714c4.84,0,9.182,0,13.789,0
				c2.466-16.222,4.919-32.364,7.403-48.703c-3.389,0-6.472,0-9.951,0C129.834,73.239,128.58,83.477,127.326,93.716z"/>
			<path style="fill:#FFFFFF;" d="M172.981,39.494c-51.773,0-103.546,0-155.319,0c0,30.149,0,60.298,0,90.447
				c4.244,0,8.489,0,13.099,0c0,10.287,0,20.426,0,30.565c0.208,0,0.416,0,0.624,0c9.825-9.828,19.615-19.692,29.536-29.423
				c0.865-0.849,2.588-1.153,3.914-1.155c34.042-0.061,68.085-0.017,102.127-0.105c2.851-0.007,5.795-0.508,8.528-1.335
				c3.785-1.145,5.26-4.656,6.848-7.904c0-23.911,0-47.823,0-71.734C180.819,44.132,177.7,41.013,172.981,39.494z M58.856,90.47
				c-0.147,3.419-0.003,6.849-0.037,10.274c-0.066,6.617-2.908,10.158-9.493,10.823c-4.831,0.488-9.742,0.181-14.617,0.224
				c-1.114,0.01-2.228,0.001-3.525,0.001c0-19.567,0-38.826,0-58.108c6.755,0,13.475-0.481,20.087,0.16
				c4.828,0.468,7.089,4.109,7.3,9.383c0.104,2.591-0.044,5.191,0.038,7.783c0.129,4.11-0.518,7.843-4.959,10.251
				C58.336,83.011,59.028,86.463,58.856,90.47z M81.92,73.724c-0.523-0.016-5.798,1.258-6.641,1.733
				c-0.255,0.184-0.507,0.384-0.754,0.605c-0.221,0.268-0.37,0.595-0.477,0.99v34.679H63.46v-0.135c0-16.075,0-32.204,0-48.588
				V62.05h10.588v3.702c2.148-3.716,5.348-3.749,8.415-4.245L81.92,73.724z M109.975,111.652c-3.389,0-6.476,0-9.762,0
				c-0.123-0.83-0.249-1.686-0.392-2.656c-0.432,0.172-0.709,0.266-0.972,0.391c-1.844,0.879-3.6,2.148-5.542,2.575
				c-5.216,1.146-8.564-1.258-8.971-6.599c-0.33-4.324-0.105-8.697-0.002-13.045c0.076-3.229,1.815-5.432,4.727-6.722
				c2.747-1.217,5.469-2.504,8.28-3.553c1.724-0.643,2.479-1.583,2.301-3.435c-0.138-1.441-0.04-2.906-0.029-4.361
				c0.013-1.754-0.358-3.012-2.581-2.978c-2.144,0.033-2.284,1.308-2.26,2.892c0.024,1.637,0.005,3.274,0.005,5.046
				c-3.464,0-6.548,0-10.345,0c0.305-3.717,0.285-7.437,1-11.01c0.651-3.252,3.383-5.112,6.522-5.462
				c3.571-0.398,7.256-0.421,10.825-0.02c4.218,0.474,7.091,3.572,7.14,7.785C110.073,84.103,109.975,97.707,109.975,111.652z
				 M133.64,111.669c-4.607,0-8.949,0-13.789,0c-2.449-16.053-4.907-32.169-7.431-48.714c3.707,0,6.995,0,10.531,0
				c1.275,10.339,2.536,20.571,3.798,30.802c0.192-0.014,0.384-0.028,0.576-0.042c1.254-10.239,2.508-20.477,3.766-30.749
				c3.479,0,6.563,0,9.951,0C138.56,79.306,136.106,95.448,133.64,111.669z M169.848,102.063c-0.045,5.828-2.694,9.326-8.476,10.058
				c-3.642,0.461-7.469,0.189-11.121-0.362c-3.717-0.561-5.979-3.167-6.649-6.932c-0.271-1.526-0.472-3.088-0.48-4.635
				c-0.045-8.627-0.047-17.255-0.014-25.883c0.031-8.189,2.878-11.391,10.971-12.016c2.666-0.206,5.414-0.016,8.065,0.387
				c4.742,0.721,7.592,4.171,7.686,9.135c0.098,5.195,0.022,10.394,0.024,15.592C169.856,92.292,169.886,97.177,169.848,102.063z"/>
		</g>
		<path d="M100,137.307"/>
	</g>
</g>
<g id="Layer_1">
</g>
</svg>
