<?xml version="1.0" encoding="utf-8"?>
<!-- Generator: Adobe Illustrator 19.0.0, SVG Export Plug-In . SVG Version: 6.00 Build 0)  -->
<svg version="1.1" id="Layer_1" xmlns="http://www.w3.org/2000/svg" xmlns:xlink="http://www.w3.org/1999/xlink" x="0px" y="0px"
	 viewBox="-43 117 200 200" style="enable-background:new -43 117 200 200;" xml:space="preserve">
<style type="text/css">
	.st0{fill:#FFFFFF;enable-background:new    ;}
	.st1{display:none;opacity:0.6;fill:#231F20;enable-background:new    ;}
	.st2{fill:#FFFFFF;}
</style>
<path class="st0" d="M17.2,196.4c4.7,0,8.9,2.6,11.1,6.4L48,191.6c-6.1-10.7-17.6-17.9-30.8-17.9c-19.6,0-35.5,15.9-35.5,35.5
	s15.9,35.5,35.5,35.5c13.2,0,24.7-7.2,30.8-17.9l-19.7-11.3c-2.2,3.8-6.3,6.4-11.1,6.4c-7.1,0-12.8-5.7-12.8-12.8
	C4.5,202.1,10.2,196.4,17.2,196.4z"/>
<path class="st1" d="M-24.7,169.4v79.5h79.5v-79.5H-24.7z M17.2,222c4.7,0,8.9-2.6,11.1-6.4L48,226.8c-6.1,10.7-17.6,17.9-30.8,17.9
	c-19.6,0-35.5-15.9-35.5-35.5s15.9-35.5,35.5-35.5c13.2,0,24.7,7.2,30.8,17.9l-19.7,11.3c-2.2-3.8-6.3-6.4-11.1-6.4
	c-7.1,0-12.8,5.7-12.8,12.8C4.5,216.2,10.2,222,17.2,222z"/>
<path class="st0" d="M54.8,169.4v79.5h79.5v-79.5H54.8z M128.6,243.3h-22.7l-22.7-28.4v28.4H60.4v-68.1h22.7l22.7,28.4v-28.4h22.7
	V243.3z"/>
<polygon class="st2" points="95,261.7 96.1,264.3 98.8,264.3 100.7,254.6 97.4,254.6 96.6,258.9 95,255 93.3,258.9 92.5,254.6 
	89.3,254.6 91.1,264.3 93.8,264.3 "/>
<polygon class="st2" points="88.5,254.6 78.7,254.6 78.7,257.5 81.8,257.5 81.8,264.3 85.4,264.3 85.4,257.5 88.5,257.5 "/>
<path class="st2" d="M106,254.4c-2.8,0-5.1,2.3-5.1,5.1c0,2.8,2.3,5.1,5.1,5.1s5.1-2.3,5.1-5.1C111,256.7,108.8,254.4,106,254.4z
	 M106,261.3c-1,0-1.8-0.8-1.8-1.8s0.8-1.8,1.8-1.8s1.8,0.8,1.8,1.8C107.8,260.5,107,261.3,106,261.3z"/>
<polygon class="st2" points="67.8,264.3 67.8,254.6 64.5,254.6 64.5,258.7 61.3,254.6 58,254.6 58,264.3 61.3,264.3 61.3,260.3 
	64.5,264.3 "/>
<polygon class="st2" points="77.7,257.5 77.7,254.6 69.2,254.6 69.2,264.3 77.7,264.3 77.7,261.7 72.4,261.7 72.4,260.7 76.9,260.7 
	76.9,258.3 72.4,258.3 72.4,257.5 "/>
<path class="st2" d="M121.3,258.1c0-1.8-1.4-3.4-3.6-3.4H112v9.7h3.2v-2.8h1l1.4,2.8h3.6l-1.9-3.2
	C120.5,260.5,121.3,259.4,121.3,258.1z M115.2,257.5h2c0.4,0,0.8,0.4,0.8,0.8s-0.4,0.8-0.8,0.8h-2V257.5z"/>
<polygon class="st2" points="132.2,254.6 128,254.6 125.6,257.8 125.6,254.6 122.3,254.6 122.3,264.3 125.6,264.3 125.6,260.7 
	128,264.3 132.2,264.3 128.4,259.3 "/>
<path class="st0" d="M-5,264.4h3.4l-3-9.7h-4.9l-3,9.7H-9l0.5-1.6h3.1L-5,264.4z M-7.9,260.3l0.9-3l0.9,3H-7.9z"/>
<polygon class="st0" points="19.3,254.6 9.6,254.6 9.6,257.5 12.6,257.5 12.6,264.4 16.3,264.4 16.3,257.5 19.3,257.5 "/>
<path class="st0" d="M-15.3,260.5c-0.3,0.6-1,1-1.7,1c-1.1,0-2-0.9-2-2s0.9-2,2-2c0.7,0,1.4,0.4,1.7,1l2.6-1.5
	c-0.9-1.5-2.5-2.6-4.4-2.6c-2.8,0-5.1,2.3-5.1,5.1s2.3,5.1,5.1,5.1c1.9,0,3.5-1,4.4-2.6L-15.3,260.5z"/>
<path class="st0" d="M24.8,254.4c-2.8,0-5.1,2.3-5.1,5.1c0,2.8,2.3,5.1,5.1,5.1s5.1-2.3,5.1-5.1C29.9,256.7,27.6,254.4,24.8,254.4z
	 M24.8,261.3c-1,0-1.8-0.8-1.8-1.8s0.8-1.8,1.8-1.8c1,0,1.8,0.8,1.8,1.8S25.8,261.3,24.8,261.3z"/>
<path class="st0" d="M35.8,254.4c-2.8,0-5.1,2.3-5.1,5.1c0,2.8,2.3,5.1,5.1,5.1s5.1-2.3,5.1-5.1C40.8,256.7,38.6,254.4,35.8,254.4z
	 M35.8,261.3c-1,0-1.8-0.8-1.8-1.8s0.8-1.8,1.8-1.8c1,0,1.8,0.8,1.8,1.8S36.8,261.3,35.8,261.3z"/>
<polygon class="st0" points="51.5,264.4 51.5,254.6 48.3,254.6 48.3,258.7 45,254.6 41.8,254.6 41.8,264.4 45,264.4 45,260.3 
	48.3,264.4 "/>
<path class="st0" d="M8.7,258.1c0-1.8-1.4-3.4-3.7-3.4H2.7h-2h-1.2v9.7h3.2v-2.8h1l1.4,2.8h3.6l-1.9-3.2
	C7.9,260.5,8.7,259.4,8.7,258.1z M2.7,257.5h2c0.4,0,0.8,0.4,0.8,0.8s-0.4,0.8-0.8,0.8h-2V257.5z"/>
<path class="st2" d="M135.8,261.7v0.5H135v2.2h-0.6v-2.2h-0.8v-0.5H135.8z"/>
<path class="st2" d="M137.9,261.7h0.8v2.7h-0.5v-1.8c0-0.1,0-0.1,0-0.2c0-0.1,0-0.2,0-0.2l-0.5,2.3h-0.5l-0.5-2.3c0,0.1,0,0.1,0,0.2
	c0,0.1,0,0.2,0,0.2v1.8h-0.5v-2.7h0.8l0.5,2.1L137.9,261.7z"/>
<g id="Layer_1_2_">
</g>
<g id="Layer_1_3_">
</g>
</svg>
