<?xml version="1.0" encoding="utf-8"?>
<!-- Generator: Adobe Illustrator 19.1.0, SVG Export Plug-In . SVG Version: 6.00 Build 0)  -->
<svg version="1.1" id="Layer_1" xmlns="http://www.w3.org/2000/svg" xmlns:xlink="http://www.w3.org/1999/xlink" x="0px" y="0px"
	 viewBox="-4093 3231 200 200" style="enable-background:new -4093 3231 200 200;" xml:space="preserve">
<style type="text/css">
	.st0{fill:#FFFFFF;}
</style>
<g id="Layer_1_1_">
</g>
<g>
	<g>
		<g>
			<path class="st0" d="M-4028.3,3336.6c0.5-7.6,1-15.6,1-16.1c0-0.5-0.3-10.8-0.6-21.6c-8.9-5.7-11.2-24-0.7-25.4c0,0,0,0,0,0
				s-4.6-26.9-5-29l-3.2-9.8c-2,1.7-4.6,5.1-6.8,8.5c1.3,1.3,2.2,3,2.5,3.4c0.1,0.3,0.2,0.6,0.2,0.9c0.1,4.6-0.8,8-2.8,10
				c-1.4,1.4-3.3,2.2-5.5,2.2c-0.8,0-1.5-0.1-2.1-0.2l-2.3,6.1c0.3,3.3,1.2,8.4,2.5,14.5c2.7,1.9,6.3,6,3.1,13.3
				c6,24.6,15.2,57.1,20.2,74.2l-1.5-17.2c0,0,0-0.5,0.1-1.5C-4031.7,3344.7-4031.8,3338.1-4028.3,3336.6z M-3946.9,3355.5
				c-0.8-2.7-2.4-4.9-4-7.1c-5.6-3.4-7.7-7.7-7.7-7.7c-3.1-9.1,1.3-13.6,6.8-15.8c0.5-1.1,1-2.2,1.5-3.3c2.8-7.1,1.3-14,0.1-21.3
				c-1.4-8.8-2.3-17.6-3.4-26.4c-0.9-7.5,1.6-22.4-4.4-28.1c-4.7-4.5-14.5-3.1-20.5-3.7c-8.5-0.8-14.5,5.3-23.3,5.3
				c-7.5,0-11.8-3.4-17.4-7.6c-3.4-2.6-11.4-7.8-16.2-5.5c0.3,2.7,3.4,6.9,4.1,9.5c0,0.1,0.1,0.2,0.1,0.4c0.3,2,4.9,28.4,4.9,28.6
				c0,0.1,0,0.3,0,0.4c0,0.1,0,0.1,0,0.2c0.4,0,0.7,0.1,1.1,0.1c7.3,1.2,15.7,8.6,14.9,16.4c-0.5,4.4-8.2,10.9-12.6,10.5
				c-0.9-0.1-1.8-0.3-2.6-0.6c0.3,10.1,0.5,19.3,0.5,19.8c0,0.6-0.5,8.7-1.1,16.5c0.2,0,0.4,0,0.6,0.1c3.9,0.8,8.2,5.2,7.7,9.8
				c-0.3,2.6-4.5,6.3-6.8,6c-0.8-0.1-1.6-0.4-2.3-0.9c0.3,10-1.9,28,10.5,25.5c4.7-0.9,11.2-1.2,15.4-3.7c5.4-3.2,9.6-7.7,16.4-7.3
				c4.5,0.2,10.1,6.4,13.1,6.3C-3959.7,3371.6-3942.4,3371.6-3946.9,3355.5z M-3957.3,3252c1.2,0,2.1,0.7,2.1,1.6
				c0,0.9-0.9,1.6-2.1,1.6c-1.2,0-2.1-0.7-2.1-1.6C-3959.4,3252.7-3958.5,3252-3957.3,3252z M-3963.9,3255.9c3.5,0,6.3,1.9,6.3,4.2
				c0,2.3-2.8,4.2-6.3,4.2c-3.5,0-6.3-1.9-6.3-4.2C-3970.3,3257.8-3967.4,3255.9-3963.9,3255.9z M-3977.1,3263.4
				c4.9,0,11.2,4,11.4,9.3c0.1,2.9-4.3,8-7.2,8.2C-3981.9,3281.6-3988,3263.3-3977.1,3263.4z M-3986.3,3311.5c1.9,0,3.5,1.3,3.5,3
				c0,1.6-1.6,3-3.5,3c-1.9,0-3.5-1.3-3.5-3C-3989.8,3312.9-3988.3,3311.5-3986.3,3311.5z M-4001.7,3359.2c-12.6,1-21-24.2-5.9-24.1
				c6.8,0.1,15.4,5.5,15.8,12.8C-3991.6,3351.9-3997.7,3358.9-4001.7,3359.2z M-3987.1,3337.9c-3.5,0-6.3-2-6.3-4.5
				c0-2.5,2.8-4.5,6.3-4.5c3.5,0,6.3,2,6.3,4.5C-3980.8,3335.9-3983.6,3337.9-3987.1,3337.9z M-3981.6,3347.3c-2.1,0-3.8-1.3-3.8-3
				s1.7-3,3.8-3c2.1,0,3.8,1.3,3.8,3S-3979.6,3347.3-3981.6,3347.3z M-3970.6,3365.9c-4,0-7.3-2-7.3-4.4s3.3-4.4,7.3-4.4
				c4,0,7.3,2,7.3,4.4S-3966.6,3365.9-3970.6,3365.9z"/>
		</g>
	</g>
	<g>
		<path class="st0" d="M-4060.3,3409.4h-7.1c-0.6-2.6-1.5-4-5.1-4c-3.9,0-5.5,1.4-5.5,8.4c0,7,1.7,8.4,5.2,8.4
			c3.9,0,5.3-1.7,5.5-4.5h7.2c-0.6,6.1-3.3,10.4-12.3,10.4c-10.8,0-12.9-6.1-12.9-14c0-8.7,2.6-14.6,13.3-14.6
			C-4064.4,3399.5-4061,3402.7-4060.3,3409.4L-4060.3,3409.4z"/>
		<path class="st0" d="M-4050.3,3402.6c1.7-2.7,5-3.2,7.8-3.2c8.1,0,9.8,3.9,9.8,12.6v15.4h-7.2v-14.1c0-6.2,0-8-4.6-8
			c-4.8,0-5.7,1.9-5.7,7.1v15h-7.2v-37.1h7.2V3402.6z"/>
		<path class="st0" d="M-4004.7,3419.6c-0.9,6.3-5,8.5-12.4,8.5c-8.4,0-13.1-2.9-13.1-14.6c0-7.8,2.1-14,13.4-14
			c9.6,0,12.4,4.5,12.4,16.3h-18.4c0.3,5.2,1.6,6.4,5.6,6.4c2.7,0,4.4-0.5,5.1-2.6H-4004.7z M-4011.5,3411.2c-0.3-5-2.3-5.9-5.6-5.9
			c-4.2,0-5.3,1.4-5.5,5.9H-4011.5z"/>
		<path class="st0" d="M-3983.4,3427.4v-2.6c-1.8,2.8-4.6,3.3-8.1,3.3c-8.4-0.1-11.5-5.5-11.5-14.4c0-10.6,4.3-14.2,11.4-14.2
			c4.6,0,6.8,1.5,8,3.1v-12.2h7.2v37.1H-3983.4z M-3989.4,3405.4c-5,0-6.3,2.5-6.3,8.2c0,7.1,1.9,8.6,6.1,8.6c4,0,6.1-1.3,6.1-8.4
			C-3983.5,3407-3985.3,3405.4-3989.4,3405.4z"/>
		<path class="st0" d="M-3954,3427.4v-2.6c-1.8,2.8-4.6,3.3-8.1,3.3c-8.4-0.1-11.5-5.5-11.5-14.4c0-10.6,4.4-14.2,11.4-14.2
			c4.6,0,6.8,1.5,8,3.1v-12.2h7.2v37.1H-3954z M-3960,3405.4c-5,0-6.3,2.5-6.3,8.2c0,7.1,1.9,8.6,6.1,8.6c4,0,6.1-1.3,6.1-8.4
			C-3954.1,3407-3955.9,3405.4-3960,3405.4z"/>
		<path class="st0" d="M-3943.6,3408.4c0.4-7,4.4-9,11.8-9c7.6,0,11.5,2,11.5,8v20h-6.9v-2.1c-1.4,1.5-4,2.7-8.4,2.7
			c-6.5,0-8.9-2.9-8.9-7.6c0-6.1,3.9-8.3,7.9-9l9-1.4v-1.7c0-2.5-1.3-3.3-4.7-3.3c-3.6,0-4.3,0.8-4.7,3.2H-3943.6z M-3927.5,3414.9
			l-5,0.8c-2.7,0.4-4.7,1-4.7,3.9c0,2.1,1,3.2,4.2,3.2c4.4,0,5.5-2.4,5.5-5.7V3414.9z"/>
		<path class="st0" d="M-3916.1,3427.4v-27.3h6.8v3.4c1.7-2.8,3.5-4,7-4c1.3,0,1.9,0.2,1.9,0.2v6.9c0,0-0.8-0.2-2.3-0.2
			c-5.7,0-6.2,4.7-6.2,10.9v10.1H-3916.1z"/>
	</g>
</g>
</svg>
