<?xml version="1.0" encoding="iso-8859-1"?>
<!-- Generator: Adobe Illustrator 19.2.0, SVG Export Plug-In . SVG Version: 6.00 Build 0)  -->
<svg version="1.1" xmlns="http://www.w3.org/2000/svg" xmlns:xlink="http://www.w3.org/1999/xlink" x="0px" y="0px"
	 viewBox="0 0 200 200" style="enable-background:new 0 0 200 200;" xml:space="preserve">
<g id="CNN">
	<g>
		<path style="fill:#FFFFFF;" d="M190.784,138.298c0-2.082,1.727-3.741,3.911-3.741c2.184,0,3.909,1.659,3.909,3.741
			c0,2.082-1.725,3.742-3.909,3.742C192.511,142.041,190.784,140.381,190.784,138.298z M198.006,138.298
			c0-1.766-1.526-3.166-3.311-3.166c-1.786,0-3.313,1.4-3.313,3.166s1.526,3.167,3.313,3.167
			C196.481,141.465,198.006,140.064,198.006,138.298z M196.55,140.322h-0.718l-1.277-1.889h-0.718v1.889h-0.599v-4.097h1.856
			c0.768,0,1.516,0.202,1.516,1.084c0,0.806-0.589,1.104-1.347,1.123L196.55,140.322z M194.555,137.857
			c0.529,0,1.456,0.096,1.456-0.557c0-0.422-0.579-0.498-1.038-0.498h-1.136v1.055H194.555z"/>
		<g>
			<g>
				<path style="fill:#FFFFFF;" d="M179.122,56.825l-0.001,70.312c0,2.792-1.748,5.144-4.349,5.853
					c-0.478,0.13-0.995,0.204-1.536,0.204c-1.981,0-4.262-0.986-5.911-3.787c-0.09-0.152-6.621-11.41-16.574-28.569
					c-8.04-13.862-16.355-28.196-16.499-28.441c-0.917-1.559-2.193-2.291-3.416-1.959c-1.041,0.284-1.713,1.236-1.713,2.426v54.272
					c-0.001,2.792-1.748,5.145-4.35,5.853c-2.224,0.606-5.347-0.017-7.446-3.583c-0.09-0.154-7.056-12.161-15.119-26.062
					c-8.344-14.384-17.801-30.687-17.952-30.947c-0.919-1.562-2.209-2.294-3.448-1.957c-0.798,0.218-1.729,0.983-1.729,2.424
					l-0.001,53.09c0,3.494-3.07,6.559-6.569,6.559H45.559c-17.928,0-32.513-14.584-32.513-32.512
					c0-17.928,14.586-32.513,32.513-32.513h13.997V56.825H45.571c-23.845,0-43.176,19.33-43.176,43.176
					c0,23.845,19.331,43.175,43.176,43.175h27.211c10.344,0.007,16.997-6.056,16.984-17.235v-24.627
					c0,0,17.357,29.903,18.154,31.257c11.02,18.718,31.842,10.983,31.843-5.13l-0.001-26.127c0,0,17.357,29.903,18.154,31.257
					c11.02,18.718,31.842,10.983,31.843-5.13V56.825H179.122z"/>
				<path style="fill:#FFFFFF;" d="M16.6,100.001c0,15.968,12.991,28.958,28.959,28.958h26.951c1.699,0,3.015-1.615,3.015-3.005
					l0.001-53.09c0-2.792,1.748-5.144,4.349-5.853c2.224-0.606,5.347,0.017,7.447,3.583c0.112,0.192,9.187,15.835,17.963,30.965
					c7.706,13.284,14.984,25.831,15.11,26.045c0.918,1.561,2.208,2.293,3.448,1.955c0.797-0.217,1.729-0.982,1.729-2.424V72.864
					c0.001-2.796,1.742-5.15,4.332-5.855c2.21-0.601,5.317,0.025,7.415,3.586c0.106,0.181,8.074,13.917,16.509,28.458
					c8.072,13.917,16.419,28.305,16.563,28.551c0.919,1.562,2.209,2.295,3.448,1.956c0.798-0.217,1.73-0.982,1.73-2.424
					l0.001-70.312h-10.687v41.861c0,0-17.357-29.903-18.155-31.257c-11.019-18.717-31.841-10.982-31.842,5.13v26.127
					c0,0-17.357-29.903-18.154-31.257c-11.02-18.717-31.841-10.982-31.843,5.13v42.822c0.006,1.557-1.165,2.914-2.87,2.918H45.673
					c-10.105,0-18.297-8.193-18.297-18.299c0-10.105,8.191-18.297,18.297-18.297h13.883V71.042H45.559
					C29.591,71.042,16.6,84.033,16.6,100.001z"/>
			</g>
		</g>
	</g>
</g>
<g id="Layer_1">
</g>
</svg>
