<?xml version="1.0" encoding="iso-8859-1"?>
<!-- Generator: Adobe Illustrator 19.1.0, SVG Export Plug-In . SVG Version: 6.00 Build 0)  -->
<svg version="1.1" xmlns="http://www.w3.org/2000/svg" xmlns:xlink="http://www.w3.org/1999/xlink" x="0px" y="0px"
	 viewBox="0 0 200 200" style="enable-background:new 0 0 200 200;" xml:space="preserve">
<g id="comedy_x5F_central_x5F_white">
	<g>
		<g>
			<path style="fill:#FFFFFF;" d="M97.893,146.434c-21.634,0-41.479-11.827-51.792-30.866l10.632-5.761
				c8.199,15.131,23.971,24.534,41.16,24.534c25.792,0,46.775-20.981,46.775-46.774c0-25.791-20.983-46.774-46.775-46.774
				c-16.977,0-32.654,9.227-40.912,24.084l-10.569-5.879c10.392-18.689,30.117-30.299,51.481-30.299
				c32.46,0,58.867,26.409,58.867,58.867C156.76,120.026,130.353,146.434,97.893,146.434"/>
			<path style="fill:#FFFFFF;" d="M97.797,116.684c-16.053,0-29.116-13.062-29.116-29.118c0-16.054,13.063-29.116,29.116-29.116
				c10.541,0,20.284,5.718,25.431,14.924l-10.556,5.899c-3.012-5.385-8.711-8.731-14.875-8.731c-9.386,0-17.024,7.638-17.024,17.024
				c0,9.387,7.638,17.025,17.024,17.025c6.286,0,12.037-3.445,15.013-8.988l10.655,5.721
				C118.378,110.798,108.545,116.684,97.797,116.684"/>
			<path style="fill:#FFFFFF;" d="M24.727,160.182c1.544,0,2.69,0.484,3.737,1.44c0.139,0.124,0.139,0.305,0.014,0.431l-1.203,1.249
				c-0.108,0.109-0.277,0.109-0.388,0c-0.569-0.508-1.327-0.785-2.084-0.785c-1.742,0-3.022,1.447-3.022,3.178
				c0,1.711,1.296,3.132,3.039,3.132c0.726,0,1.513-0.261,2.068-0.743c0.111-0.09,0.312-0.09,0.404,0.018l1.203,1.277
				c0.109,0.115,0.093,0.312-0.016,0.421c-1.049,1.018-2.377,1.501-3.751,1.501c-3.085,0-5.571-2.458-5.571-5.542
				C19.156,162.669,21.641,160.182,24.727,160.182"/>
			<path style="fill:#FFFFFF;" d="M37.048,160.184c3.088,0,5.556,2.484,5.556,5.574c0,3.085-2.469,5.542-5.556,5.542
				c-3.088,0-5.539-2.458-5.539-5.542C31.509,162.669,33.96,160.184,37.048,160.184 M37.048,168.827
				c1.699,0,3.088-1.387,3.088-3.069c0-1.698-1.388-3.1-3.088-3.1c-1.683,0-3.07,1.403-3.07,3.1
				C33.978,167.441,35.364,168.827,37.048,168.827"/>
			<path style="fill:#FFFFFF;" d="M47.551,160.434c0.015-0.143,0.153-0.25,0.277-0.25h0.246c0.077,0,0.217,0.061,0.264,0.159
				l3.581,6.667h0.03l3.58-6.667c0.046-0.098,0.185-0.159,0.262-0.159h0.249c0.121,0,0.263,0.107,0.276,0.25l1.746,10.368
				c0.032,0.204-0.109,0.338-0.293,0.338h-1.825c-0.137,0-0.275-0.123-0.291-0.243l-0.696-4.769h-0.028l-2.595,5.002
				c-0.044,0.09-0.184,0.171-0.263,0.171h-0.277c-0.094,0-0.216-0.081-0.263-0.171l-2.609-5.002h-0.029l-0.68,4.769
				c-0.013,0.12-0.14,0.243-0.295,0.243h-1.821c-0.183,0-0.325-0.134-0.294-0.338L47.551,160.434z"/>
			<path style="fill:#FFFFFF;" d="M62.048,160.631c0-0.152,0.124-0.288,0.293-0.288h6.389c0.171,0,0.296,0.136,0.296,0.288v1.686
				c0,0.152-0.125,0.291-0.296,0.291h-4.276v1.917h3.52c0.155,0,0.293,0.136,0.293,0.29v1.687c0,0.17-0.138,0.286-0.293,0.286h-3.52
				v2.084h4.276c0.171,0,0.296,0.139,0.296,0.296v1.68c0,0.159-0.125,0.293-0.296,0.293h-6.389c-0.169,0-0.293-0.134-0.293-0.293
				V160.631z"/>
			<path style="fill:#FFFFFF;" d="M73.102,160.631c0-0.152,0.124-0.288,0.278-0.288h3.766c2.981,0,5.417,2.421,5.417,5.382
				c0,2.994-2.436,5.415-5.417,5.415h-3.766c-0.154,0-0.278-0.134-0.278-0.293V160.631z M76.992,168.861
				c1.743,0,3.01-1.374,3.01-3.136c0-1.744-1.267-3.118-3.01-3.118h-1.483v6.253H76.992z"/>
			<path style="fill:#FFFFFF;" d="M88.235,165.939l-3.413-5.149c-0.123-0.204,0-0.447,0.247-0.447h2.008
				c0.123,0,0.202,0.073,0.242,0.136l2.149,3.164l2.147-3.164c0.044-0.062,0.108-0.136,0.245-0.136h2.009
				c0.247,0,0.368,0.243,0.247,0.447l-3.46,5.139v4.918c0,0.159-0.137,0.293-0.291,0.293h-1.839c-0.171,0-0.292-0.134-0.292-0.293
				V165.939z"/>
			<path style="fill:#FFFFFF;" d="M175.273,171.301c-1.545,0-2.687-0.484-3.738-1.44c-0.135-0.125-0.135-0.305-0.013-0.43
				l1.202-1.249c0.108-0.109,0.278-0.109,0.386,0c0.572,0.509,1.332,0.786,2.086,0.786c1.745,0,3.025-1.449,3.025-3.181
				c0-1.709-1.296-3.13-3.038-3.13c-0.729,0-1.516,0.261-2.073,0.743c-0.108,0.088-0.305,0.088-0.399-0.017l-1.202-1.279
				c-0.109-0.113-0.097-0.311,0.013-0.419c1.048-1.019,2.372-1.502,3.751-1.502c3.086,0,5.571,2.458,5.571,5.544
				C180.844,168.815,178.359,171.301,175.273,171.301"/>
			<path style="fill:#FFFFFF;" d="M167.655,170.852c0,0.153-0.121,0.287-0.289,0.287h-6.386c-0.174,0-0.298-0.134-0.298-0.287
				v-1.687c0-0.152,0.124-0.289,0.298-0.289h4.272v-1.917h-3.522c-0.153,0-0.29-0.136-0.29-0.291v-1.687
				c0-0.169,0.137-0.288,0.29-0.288h3.522v-2.083h-4.272c-0.174,0-0.298-0.14-0.298-0.295v-1.68c0-0.16,0.124-0.293,0.298-0.293
				h6.386c0.167,0,0.289,0.133,0.289,0.293V170.852z"/>
			<path style="fill:#FFFFFF;" d="M156.621,171.024c0,0.15-0.138,0.276-0.295,0.276h-0.386l-6.161-5.926h-0.01v5.479
				c0,0.153-0.124,0.287-0.294,0.287h-1.852c-0.154,0-0.293-0.134-0.293-0.287v-10.386c0-0.158,0.139-0.285,0.293-0.285h0.246
				c0.045,0,0.167,0.053,0.202,0.081l6.095,6.13h0.017v-5.756c0-0.16,0.123-0.293,0.291-0.293h1.84c0.149,0,0.292,0.133,0.292,0.293
				L156.621,171.024z"/>
			<path style="fill:#FFFFFF;" d="M141.272,168.876h2.206c0.174,0,0.293,0.136,0.293,0.289v1.687c0,0.153-0.119,0.287-0.293,0.287
				h-6.85c-0.172,0-0.293-0.134-0.293-0.287v-1.687c0-0.153,0.121-0.289,0.293-0.289h2.207v-8.24c0-0.16,0.137-0.293,0.294-0.293
				h1.851c0.155,0,0.292,0.133,0.292,0.293V168.876z"/>
			<path style="fill:#FFFFFF;" d="M132.779,170.852c0,0.153-0.122,0.287-0.29,0.287h-4.622c-1.85,0-3.359-1.492-3.359-3.335
				c0-1.413,0.937-2.557,2.281-3.1l-2.112-3.916c-0.108-0.204,0-0.447,0.261-0.447h2.054c0.121,0,0.215,0.073,0.25,0.133
				l2.051,4.094h1.062v-3.934c0-0.16,0.143-0.293,0.293-0.293h1.841c0.168,0,0.29,0.133,0.29,0.293V170.852z M128.073,166.528
				c-0.632,0-1.174,0.588-1.174,1.235c0,0.649,0.542,1.17,1.174,1.17h2.282v-2.405H128.073z"/>
			<path style="fill:#FFFFFF;" d="M121.82,160.744l-4.836,10.386c-0.046,0.09-0.15,0.171-0.259,0.171h-0.156
				c-0.103,0-0.211-0.08-0.261-0.171l-4.831-10.386c-0.09-0.203,0.031-0.401,0.261-0.401h1.712c0.28,0,0.402,0.089,0.544,0.382
				l0.556,1.218h4.197l0.557-1.233c0.073-0.187,0.245-0.368,0.557-0.368h1.694C121.788,160.343,121.91,160.541,121.82,160.744
				 M115.472,164.043l1.176,2.548h0.014l1.16-2.548H115.472z"/>
			<path style="fill:#FFFFFF;" d="M108.2,170.852c0,0.153-0.121,0.287-0.291,0.287h-1.837c-0.157,0-0.294-0.134-0.294-0.287v-8.241
				h-3.672c-0.174,0-0.294-0.14-0.294-0.295v-1.68c0-0.16,0.12-0.293,0.294-0.293h5.804c0.17,0,0.291,0.133,0.291,0.293V170.852z"/>
		</g>
		<g>
			<path style="fill:#FFFFFF;" d="M144.08,130.268h-0.537c-0.034,0-0.058-0.028-0.058-0.06v-0.089c0-0.03,0.023-0.059,0.058-0.059
				h1.308c0.033,0,0.058,0.029,0.058,0.059v0.089c0,0.031-0.025,0.06-0.058,0.06h-0.537v1.893c0,0.03-0.028,0.058-0.06,0.058h-0.117
				c-0.029,0-0.057-0.028-0.057-0.058V130.268z"/>
			<path style="fill:#FFFFFF;" d="M145.449,130.074c0.007-0.026,0.03-0.044,0.056-0.044h0.049c0.022,0,0.048,0.017,0.053,0.034
				l0.61,1.698c0.006,0,0.009,0,0.015,0l0.6-1.698c0.007-0.017,0.033-0.034,0.054-0.034h0.048c0.025,0,0.049,0.018,0.055,0.044
				l0.4,2.07c0.009,0.044-0.011,0.074-0.057,0.074h-0.123c-0.025,0-0.05-0.022-0.056-0.042l-0.274-1.588c-0.003,0-0.01,0-0.012,0
				l-0.568,1.628c-0.007,0.018-0.034,0.033-0.053,0.033h-0.055c-0.02,0-0.046-0.014-0.052-0.033l-0.574-1.628
				c-0.003,0-0.009,0-0.012,0l-0.268,1.588c-0.004,0.021-0.032,0.042-0.057,0.042h-0.121c-0.046,0-0.066-0.03-0.056-0.074
				L145.449,130.074z"/>
		</g>
	</g>
</g>
<g id="Layer_1">
</g>
</svg>
