<?xml version="1.0" encoding="iso-8859-1"?>
<!-- Generator: Adobe Illustrator 19.2.0, SVG Export Plug-In . SVG Version: 6.00 Build 0)  -->
<svg version="1.1" xmlns="http://www.w3.org/2000/svg" xmlns:xlink="http://www.w3.org/1999/xlink" x="0px" y="0px"
	 viewBox="0 0 200 200" style="enable-background:new 0 0 200 200;" xml:space="preserve">
<g id="DISNEY">
	<g>
		<path style="fill:#FFFFFF;" d="M90.345,74.389c-4.196,0.699-6.844,3.154-6.191,5.098C85.722,77.614,88.058,75.729,90.345,74.389z"
			/>
		<path style="fill:#FFFFFF;" d="M18.056,101.532c0.008,1.824,6.667,7.323,16.468,10.778c-0.012-4.27,0.041-10.643,0.096-15.081
			C26.655,97.627,18.047,98.699,18.056,101.532z"/>
		<path style="fill:#FFFFFF;" d="M87.187,82.021c0.778,0.239,1.707,0.38,2.811,0.38c2.663-0.005,8.837-2.471,8.833-5.473
			c-0.001-0.498-0.284-1.797-1.926-1.794C94.399,75.145,89.301,79.638,87.187,82.021z"/>
		<path style="fill:#FFFFFF;" d="M198.925,97.136c-1.374-7.086-8.16-10.457-11.238-11.253c-3.408-0.882-7.091-0.614-10.328,0.774
			c-1.572,0.674-3.663,1.861-4.937,3.002c-1.352-1.294-4.364-3.071-7.798-3.071c-3.005,0.142-15.307,1.571-18.467,3.247
			c-1.732-3.063-4.445-6.477-7.735-6.727c-1.543-0.117-3.055,0.51-3.978,1.765c-1.29,1.753-1.19,4.141-0.783,6.749
			c-4.698-4.701-15.239-5.007-21.956-5.055c-6.377-0.045-14.706,1.601-17.055,2.888c1.205-0.717,5.806-3.393,8.665-7.309
			c2.893,0.457,6.203-1.086,7.857-3.481c1.802-2.608,1.887-6.119,0.448-8.908c-1.188-2.303-3.361-4.05-5.852-4.751
			c-2.676-0.754-5.651-0.22-7.818,1.551c0,0,0,0,0,0c-0.314-2.965-2.437-5.493-5.168-6.589c-2.926-1.175-6.415-0.745-8.911,1.204
			c-1.348,1.052-2.38,2.513-2.844,4.165c-0.54,1.925-0.264,4.032,0.722,5.769c-0.011,0.01-0.02,0.021-0.03,0.032
			c-2.503,2.224-4.727,5.547-4.504,9.036c-5.938-5.887-12.931-10.58-19.426-13.93c-6.598-3.404-19.193-8.628-32.181-8.921
			c-3.824-0.086-12.33,0.267-16.199,1.428c-8.25,2.475-9.053,8.473-8.167,11.076c0.993,2.917,4.406,4.059,8.785,3.303
			c1.62-0.28,3.311-1.632,3.693-3.743c6.377-0.373,13.723,0.152,20.759,2.054c-1.625,4.332-2.669,9.981-3.245,16.426
			c-3.562,0.768-7.847,1.999-11.127,3.602c-2.931,1.433-6.152,3.504-7.29,6.736c-1.221,3.466,0.799,6.855,2.946,9.466
			c2.266,2.755,7.807,7.913,15.331,11.539c0.308,1.868,1.158,5.736,5.123,7.019c2.727,0.882,6.216,0.261,8.202-2.619
			c2.505,0.577,7.14,0.878,9.95,0.907l0.013,3.93c0,4.863,3.956,8.846,8.819,8.846h99.452c1.246,2.609,3.784,5.703,6.699,6.278
			c5.226,1.03,5.847-3.825,6.124-5.356c0.291-1.61,0.533-3.211,1.049-4.768l3.826-12.819c3.338-0.509,7.13-2.078,9.842-4.06
			c2.646-1.933,4.949-4.37,6.626-7.192C199.001,105.696,199.944,101.342,198.925,97.136z M128.144,92.416
			c3.305,0.243,11.222,14.701,12.139,14.439c0.589-0.161,0.649-1.523,0.649-2.278c-0.014-3.661-3.799-13.204-3.809-15.946
			c0-0.908,0.149-1.777,0.963-1.777c3.245-0.008,8.814,10.265,8.847,18.666c0.003,3.654-2.256,9.299-6.12,9.306
			c-3.554,0.019-9.948-13.167-11.113-13.167c-1.572,0,0.456,14.427-3.464,14.436c-2.641,0.007-3.262-2.377-3.268-5.931
			C122.954,106.609,124.752,92.177,128.144,92.416z M111.533,90.335c3.779-0.016,10.463-0.048,10.48,2.559
			c0.007,4.366-21.49,2-21.528,5.195c-0.017,0.971,4.658,1.189,8.997,1.545c5.79,0.495,12.435,1.286,12.458,8.302
			c0.007,2.889-2.479,8.485-12.333,8.508c-9.988,0.036-13.554-5.095-13.56-7.272c-0.02-4.195,4-5.34,6.791-5.355
			c2.653,0,11.249,1.032,11.259,3.152c0.007,1.161-2.153,2.309-4.748,2.321c-2.585,0.014-6.354-2.314-8.184-2.314
			c-1.825,0.013-2.632,1.23-2.632,1.939c0,0.712,0.107,2.137,4.986,2.124c2.368-0.013,13.863-1.293,13.853-4.469
			c-0.003-1.421-5.28-2.828-9.619-3.27c-5.329-0.539-13.348,0.783-13.361-4.629C94.366,90.679,108.704,90.341,111.533,90.335z
			 M87.227,71.793c-1.325-0.514-2.455-1.52-2.972-2.864c-0.567-1.47-0.284-3.11,0.68-4.345c1.767-2.264,5.243-2.679,7.612-1.146
			c1.262,0.817,2.159,2.188,2.232,3.709c0.059,1.231-0.436,2.417-1.26,3.309c2.168,0.127,3.659,1.223,4.681,2.212
			c0.026,0.004,0.051,0.008,0.077,0.012c0.029-0.729,0.209-1.458,0.575-2.091c0.814-1.409,2.242-2.345,3.855-2.533
			c1.603-0.187,3.47,0.376,5.072,2.001c0.908,0.921,1.414,2.21,1.498,3.505c0.1,1.53-0.495,3.067-1.65,4.086
			c-1.186,1.047-2.847,1.43-4.39,1.154c-0.658-0.056-1.293-0.273-1.868-0.595c-1.753,3.927-7.823,7.898-11.871,7.827
			c-6.934-0.122-8.657-4.118-8.663-6.427C80.829,77.341,83.217,73.738,87.227,71.793z M41.557,90.49
			c18.281,0,23.724,5.061,23.739,9.377c0.01,3.256-3.694,5.321-4.015,5.288c-1.832-0.125-3.941,0.04-3.948-0.897
			c-0.002-1.247,2.278-2.143,2.278-3.453c-0.015-1.531-8.598-3.848-15.155-3.821c-0.818,0-1.769,0.01-2.792,0.023
			c0.102,5.203,0.336,13.438,0.463,17.367c2.9,0.554,5.948,0.884,9.091,0.878c8.844-0.026,24.886-2.79,24.847-15.111
			C76.02,84.283,44.934,65.59,17.944,65.664c-3.146,0.017-9.441,0.287-9.441,1.459c0,1.012,1.628,0.808,1.628,1.822
			c0.008,0.712-1.108,0.815-2.338,0.815c-1.217,0.01-3.242-0.14-3.202-1.865c0-1.806,1.926-4.023,4.004-4.935l0,0.001
			c2.457-1.04,7.691-1.705,13.91-1.878c28.54-0.796,61.336,22.577,61.383,38.828c0.041,12.124-13.248,20.968-29.801,21.021
			c-4.244,0.01-8.244-0.538-11.935-1.477c-0.246,1.82-1.051,3.554-3.408,3.554c-3.245,0.02-3.946-2.493-4.139-6.147
			c-11.414-4.959-18.464-13.102-18.464-16.33c-0.013-3.951,8.76-7.965,18.62-9.451c0.191-4.65,0.856-13.07,3.146-13.075
			C40.656,77.992,41.387,85.64,41.557,90.49z M64.029,134.14c-1.747,0-4.245-0.9-4.891-2.834c-0.527-1.578,0.237-3.241,2.271-4.944
			c4.603-3.853,7.297-4.518,9.131-4.664c2.24-0.179,3.14,1.24,3.303,2.014c0.153,0.719-0.307,1.426-1.026,1.578
			c-0.672,0.141-1.332-0.249-1.54-0.887c-0.052-0.03-0.213-0.078-0.525-0.052c-1.439,0.116-3.607,0.68-7.634,4.052
			c-1.322,1.107-1.536,1.816-1.455,2.061c0.151,0.454,1.228,0.964,2.134,1.012c1.932,0.098,9.553-0.335,11.111-0.863
			c0.697-0.233,1.452,0.137,1.687,0.833c0.236,0.696-0.137,1.451-0.833,1.687C73.832,133.788,66.69,134.14,64.029,134.14z
			 M88.125,128.175l0.253,5.668c0.033,0.734-0.536,1.355-1.271,1.388c-0.02,0.001-0.04,0.001-0.06,0.001
			c-0.707,0-1.296-0.557-1.328-1.272l-0.225-5.056c-1.163,0.335-2.524,0.734-3.868,1.135v3.264c0,0.736-0.596,1.332-1.331,1.332
			c-0.735,0-1.33-0.595-1.33-1.332v-2.467c-0.126,0.038-0.256,0.077-0.38,0.114c-0.129,0.039-0.258,0.058-0.386,0.058
			c-0.572,0-1.099-0.371-1.273-0.946c-0.213-0.703,0.184-1.445,0.887-1.659c0.245-0.073,0.646-0.195,1.152-0.347v-4.899
			c0-0.735,0.595-1.33,1.33-1.33c0.735,0,1.331,0.595,1.331,1.33v4.105c1.245-0.37,2.589-0.763,3.747-1.091l-0.186-4.185
			c-0.032-0.735,0.536-1.356,1.27-1.389c0.729-0.026,1.356,0.536,1.388,1.27l0.161,3.606c0.082-0.017,0.155-0.032,0.208-0.039
			c0.722-0.111,1.462,0.384,1.514,1.116C89.787,127.404,89.306,127.99,88.125,128.175z M86.351,105.635
			c0.09-4.114,0.16-15.383,2.959-15.397c2.185-0.005,3.197,2.872,3.548,17.767c0.193,7.862-0.573,8.125-2.814,8.132
			C87.548,116.15,86.148,115.029,86.351,105.635z M92.356,135.492c-0.826-0.101-1.311-0.904-1.142-1.62
			c0.164-0.694,0.321-1.343,0.474-1.966c-0.497-0.034-0.956-0.338-1.15-0.833c-0.268-0.684,0.069-1.456,0.754-1.724
			c0.065-0.025,0.5-0.196,1.155-0.446c2.16-8.227,2.948-8.262,3.839-8.294c0.704-0.019,1.381-0.039,4.448,5.528
			c0.562,0.033,1.066,0.418,1.213,0.992c0.091,0.354,0.03,0.71-0.14,1.001c0.714,1.351,1.53,2.942,2.47,4.822
			c0.328,0.657,0.063,1.457-0.595,1.785c-0.658,0.33-1.456,0.062-1.785-0.595c-0.809-1.616-1.692-3.324-2.538-4.904
			c-1.457,0.475-3.245,1.128-4.665,1.661c-0.31,1.194-0.614,2.416-0.891,3.588C93.659,135.098,93.068,135.579,92.356,135.492z
			 M107.119,135.906c-0.758,0.075-1.285-0.315-1.473-0.87c-0.035-0.104-0.141-0.416-0.166-5.784
			c-0.027-5.859,0.093-6.254,1.052-6.649c1.062-0.444,1.721,0.402,2.721,1.678c0.638,0.815,1.445,1.897,2.298,3.045
			c0.779,1.046,1.8,2.395,2.599,3.416c0.033-2.209,0.342-8.78,0.418-9.398c0.088-0.729,0.749-1.244,1.482-1.16
			c0.729,0.089,1.249,0.751,1.16,1.481c-0.055,0.459-0.36,5.706-0.394,7.946c-0.019,2.282-0.036,4.159-1.114,4.819
			c-0.501,0.305-1.111,0.321-1.673,0.04c-0.634-0.317-1.41-1.252-4.612-5.555c-0.396-0.532-0.842-1.132-1.272-1.703
			c-0.023,2.785,0.045,6.578,0.085,7.251C108.298,135.072,107.877,135.832,107.119,135.906z M130.45,134.293
			c-1.298,0.587-2.607-0.583-4.815-2.696l-0.194-0.186c-0.577-0.553-1.462-1.489-2.397-2.481c-0.341-0.361-0.739-0.782-1.133-1.196
			c0.082,1.705,0.228,3.953,0.388,6.038c0.057,0.733-0.492,1.373-1.225,1.429c-0.034,0.002-0.069,0.004-0.103,0.004
			c-0.689,0-1.271-0.531-1.325-1.229c0,0-0.176-2.282-0.31-4.578c-0.278-4.758-0.328-5.615,0.886-5.98
			c0.999-0.301,1.355,0.079,4.757,3.684c0.872,0.924,1.773,1.879,2.301,2.384l0.195,0.186c0.286,0.274,0.706,0.676,1.129,1.059
			c-0.216-2.344-0.605-6.065-0.838-8.224c-0.079-0.73,0.449-1.387,1.18-1.465c0.73-0.076,1.387,0.45,1.466,1.18
			c0.038,0.355,0.938,8.71,1.003,10.299C131.465,133.704,130.757,134.154,130.45,134.293z M144.309,133.332
			c-1.329,0.892-4.194,0.617-7.059,0.892c-1.376,0.132-2.425-0.125-2.859-0.628c-0.381-0.446-0.696-2.234-0.931-4.136
			c-0.03-0.108-0.052-0.221-0.053-0.339c0-0.02,0.005-0.039,0.005-0.059c-0.283-2.412-0.439-4.871-0.439-4.913
			c0-0.629,0.28-1.038,0.517-1.269c0.654-0.643,1.592-0.656,3.202-0.627c1.63,0.032,5.421-0.2,5.908-0.249
			c0.633-0.106,1.258,0.253,1.476,0.872c0.243,0.693-0.122,1.453-0.816,1.696c-0.508,0.178-5.547,0.357-6.619,0.342
			c-0.187-0.004-0.593-0.012-0.953-0.004c0.058,0.692,0.08,0.991,0.198,2.082c2.167-0.08,4.9-0.278,6.116-0.483
			c0.588-0.099,1.262,0.488,1.283,1.222c0.017,0.568-0.387,1.151-1.108,1.292c-1.829,0.357-4.037,0.466-5.982,0.542
			c0.068,0.505,0.218,1.777,0.278,2.1c1.2,0.114,3.411-0.167,6.551-0.763c0.721-0.137,1.336-0.162,1.697,0.478
			C145.084,132.018,144.913,132.927,144.309,133.332z M148.251,121.308c0.723,0,1.328,0.58,1.342,1.306
			c0.006,0.355,0.15,8.292,0.165,9.647c0.044-0.006,0.091-0.012,0.145-0.022c1.617-0.275,5.631-0.888,9.592-0.474
			c0.731,0.076,1.262,0.73,1.186,1.461c-0.077,0.732-0.731,1.269-1.461,1.186c-3.677-0.383-7.391,0.185-8.871,0.451
			c-1.679,0.301-3.251-0.424-3.251-2.444c0-0.49-0.108-6.595-0.166-9.755C146.919,121.928,147.522,121.308,148.251,121.308z
			 M153.832,118.005c-4.492,0.142-6.113-4.735-6.126-6.938c0-1.427,1.365-4.844,1.821-6.512c0.144-0.559-0.614-1.27-0.567-1.726
			c0.19-1.978,3.046-2.194,3.29-2.905c0.231-0.646,0.854-2.743,0.752-3.307c-0.101-0.552-4.115-1.36-4.118-3.39
			c-0.011-2.156,8.57-2.119,15.172-2.838c3.851-0.427,6.974,3.177,6.72,4.046c-0.254,0.874-1.009,1.418-2.031,1.678
			c-0.619,0.153-8.864,0.381-10.096,0.894c-0.614,0.254-0.996,2.765-0.706,3.26c0.31,0.502,5.741,0.512,6.605,0.59
			c1.725,0.14,2.252,3.903-0.538,4.057c-0.982,0.06-6.964-0.036-7.927,0.274c-0.969,0.313-1.916,4.738-1.415,5.197
			c0.511,0.452,8.181-1.253,9.55-1.253c1.368,0,3.308,1.523,3.156,2.836C167.283,112.838,160.926,117.765,153.832,118.005z
			 M177.591,117.088c-0.795,3.347-3.085,11.179-4.516,15.468c-1.019,2.988-1.19,7.383-1.965,7.552
			c-2.035,0.448-5.431-2.852-5.491-6.203c-0.119-6.496,3.496-17.193,4.98-22.007c-0.923-1.83-1.362-3.842-1.362-5.487
			c-0.023-7.175,6.592-14.87,8.663-16.566c1.075-0.867,2.044,1.541,1.184,3.375c-0.821,1.751-5.233,8.753-5.226,11.095
			c0.01,0.507,0.174,1.052,0.444,1.616c4.337-5.532,11.769-13.733,15.624-13.965c1.395-0.079,5.794,1.709,5.814,9.131
			C195.759,108.514,186.567,117.717,177.591,117.088z"/>
		<path style="fill:#FFFFFF;" d="M95.545,127.747c0.841-0.306,1.71-0.613,2.521-0.884c-0.558-0.999-1.065-1.873-1.478-2.535
			C96.286,125.203,95.926,126.396,95.545,127.747z"/>
		<path style="fill:#FFFFFF;" d="M190.347,97.251c-1.744-0.035-6.479,7.438-9.721,13.066c4.758,0.083,11.427-4.488,11.406-9.995
			C192.026,98.486,191.564,97.268,190.347,97.251z"/>
	</g>
</g>
<g id="Layer_1">
</g>
</svg>
