<?xml version="1.0" encoding="iso-8859-1"?>
<!-- Generator: Adobe Illustrator 19.2.0, SVG Export Plug-In . SVG Version: 6.00 Build 0)  -->
<svg version="1.1" xmlns="http://www.w3.org/2000/svg" xmlns:xlink="http://www.w3.org/1999/xlink" x="0px" y="0px"
	 viewBox="0 0 200 200" style="enable-background:new 0 0 200 200;" xml:space="preserve">
<g id="ELREY">
	<g>
		<path style="fill:#FFFFFF;" d="M37.284,134.36h2.358v-8.376h-2.358v-3.221h22.055v4.767h-4.973v-1.546h-9.067v2.534h11.339v3.158
			H45.299v2.684h9.067v-1.546h4.973v4.766H37.284V134.36z"/>
		<path style="fill:#FFFFFF;" d="M62.126,134.36h2.358v-8.376h-2.358v-3.221h11.06v3.221h-3.044v8.376h6.28v-4.102h4.973v7.322
			H62.126V134.36z"/>
		<path style="fill:#FFFFFF;" d="M91.573,134.36h2.358v-8.376h-2.358v-3.221h21.22l2.507,2.512v3.199l-1.972,1.976l1.972,1.976
			v1.934h1.673v3.22h-6.044l-1.286-1.266v-3.071l-0.9-0.902h-9.153v2.018h3.259v3.22H91.573V134.36z M108.742,129.012l0.9-0.901
			v-1.182l-0.945-0.945h-9.109v3.028H108.742z"/>
		<path style="fill:#FFFFFF;" d="M119.328,134.36h2.358v-8.376h-2.358v-3.221h22.055v4.767h-4.973v-1.546h-9.065v2.534h11.337v3.158
			h-11.337v2.684h9.065v-1.546h4.973v4.766h-22.055V134.36z"/>
		<path style="fill:#FFFFFF;" d="M149.378,134.36h3.473v-1.611l-7.16-6.764h-1.95v-3.221h10.438v3.221h-2.1l3.986,3.671l4.03-3.671
			h-2.38v-3.221h9.967v3.221h-1.951l-7.222,6.764v1.611h3.472v3.22h-12.603V134.36z"/>
	</g>
	<g>
		<path style="fill:#FFFFFF;" d="M38.902,146.74h0.747v-3.743h-0.747v-1.251h3.353l2.446,4.205v-2.954H43.83v-1.251h3.317v1.251
			h-0.729V148h-2.615l-2.437-4.25v2.991h0.818V148h-3.282V146.74z"/>
		<path style="fill:#FFFFFF;" d="M58.896,146.758h0.747v-3.77h-0.747v-1.242h7.053v1.921h-1.734v-0.68h-2.57v1.187h3.433v1.305
			h-3.433v1.278h2.579v-0.707h1.725V148h-7.053V146.758z"/>
		<path style="fill:#FFFFFF;" d="M79.174,146.758h1.103v-3.743h-1.058v1.187h-1.521v-2.456h7.169v2.456h-1.53v-1.187h-1.058v3.743
			h1.103V148h-4.207V146.758z"/>
		<path style="fill:#FFFFFF;" d="M97.14,142.988h-0.525v-1.242h3.273v1.242h-0.863l0.685,3.471l1.29-4.713h2.41l1.281,4.713
			l0.694-3.471h-0.872v-1.242h3.024v1.242h-0.534L105.865,148h-2.544l-1.201-4.74l-1.192,4.74h-2.642L97.14,142.988z"/>
		<path style="fill:#FFFFFF;" d="M119.304,146.858v-3.969l1.112-1.142h4.91l1.121,1.142v3.969L125.325,148h-4.91L119.304,146.858z
			 M124.035,146.65l0.409-0.417v-2.719l-0.409-0.417h-2.33l-0.409,0.417v2.719l0.409,0.417H124.035z"/>
		<path style="fill:#FFFFFF;" d="M138.292,146.758h0.747v-3.77h-0.747v-1.242h6.679l0.943,0.97v1.513l-0.711,0.725l0.711,0.725
			v1.078h0.525V148h-1.992l-0.534-0.535v-1.477l-0.302-0.317h-2.57v1.087h0.943V148h-3.691V146.758z M143.611,144.402l0.302-0.317
			v-0.77l-0.32-0.326h-2.553v1.414H143.611z"/>
		<path style="fill:#FFFFFF;" d="M162.253,146.758h0.952l-0.987-1.495l-1.299,1.06v0.435h0.765V148h-3.504v-1.242h0.747v-3.77
			h-0.747v-1.242h3.504v1.242h-0.765v1.722l1.983-1.722h-0.765v-1.242h3.86v1.242h-0.898l-1.468,1.251l1.788,2.519h0.738V148h-3.904
			V146.758z"/>
	</g>
	<g>
		<polygon style="fill:#FFFFFF;" points="167.67,53.078 105.704,93.281 102.898,52.733 70.372,93.281 37.255,52 37.279,118.635 
			167.67,118.635 		"/>
	</g>
</g>
<g id="Layer_1">
</g>
</svg>
