<?xml version="1.0" encoding="iso-8859-1"?>
<!-- Generator: Adobe Illustrator 19.2.0, SVG Export Plug-In . SVG Version: 6.00 Build 0)  -->
<svg version="1.1" xmlns="http://www.w3.org/2000/svg" xmlns:xlink="http://www.w3.org/1999/xlink" x="0px" y="0px"
	 viewBox="0 0 200 200" style="enable-background:new 0 0 200 200;" xml:space="preserve">
<g id="ESPN">
	<g>
		<g>
			<polygon style="fill:#FFFFFF;" points="27.907,81.295 60.075,81.304 58.88,91.838 26.587,91.838 			"/>
			<path style="fill:#FFFFFF;" d="M71.221,81.421c5.997,0,54.083-0.057,57.675,0.002c3.645,0.057,6.514,2.975,6.606,6.739
				c0.045,1.78-0.331,3.701-0.331,3.701l-73.692-0.025c0,0,0.271-1.812,0.507-3.423C62.414,85.474,66.358,81.415,71.221,81.421z"/>
			<path style="fill:#FFFFFF;" d="M139.17,81.255c0,0,20.638-0.044,27.303-0.015c4.307,0.017,8.627,2.035,7.975,8.978
				c-0.193,2.059-0.136,1.65-0.136,1.65l-36.4-0.029L139.17,81.255z"/>
			<path style="fill:#FFFFFF;" d="M58.711,118.781l1.196-9.912l23.76-0.022l0.441-4.393c0,0-14.936,0.036-17.344-0.055
				c-3.398-0.126-6.712-2.545-5.787-8.548c6.326-0.061,25.498-0.055,27.641-0.034c4.333,0.034,7.985,2.391,7.695,8.358
				c-0.13,2.658-0.793,7.864-1.952,9.881c-3.114,5.384-7.798,4.658-8.682,4.724C84.962,118.813,58.711,118.781,58.711,118.781z"/>
			<path style="fill:#FFFFFF;" d="M134.684,95.996c0,0-0.349,1.979-0.602,3.264c-0.526,2.656-2.154,5.154-5.94,5.157
				c-9.177,0-16.841,0-16.841,0l-2.027,14.363h-12.19l2.894-22.785H134.684z"/>
			<polygon style="fill:#FFFFFF;" points="137.346,95.996 149.915,96 146.657,118.71 134.231,118.718 			"/>
			<polygon style="fill:#FFFFFF;" points="161.463,95.996 173.667,96 170.773,118.777 158.568,118.781 			"/>
			<polygon style="fill:#FFFFFF;" points="26.02,95.852 58.393,95.852 57.244,104.565 37.217,104.586 36.65,108.847 56.678,108.869 
				55.484,118.843 23.252,118.843 			"/>
		</g>
	</g>
</g>
<g id="Layer_1">
</g>
</svg>
