<?xml version="1.0" encoding="iso-8859-1"?>
<!-- Generator: Adobe Illustrator 19.2.0, SVG Export Plug-In . SVG Version: 6.00 Build 0)  -->
<svg version="1.1" xmlns="http://www.w3.org/2000/svg" xmlns:xlink="http://www.w3.org/1999/xlink" x="0px" y="0px"
	 viewBox="0 0 200 200" style="enable-background:new 0 0 200 200;" xml:space="preserve">
<g id="ESPN2">
	<g>
		<path style="fill:#FFFFFF;" d="M162.384,81.235l27.749-0.074c0,0,6.036-0.295,5.594,4.638l-1.398,14.279
			c0,0-0.588,4.271-4.639,4.271h-16.522l-0.481,4.564h20.758l-1.03,9.862h-34.449l2.135-17.813c0,0,0.219-5.152,4.858-5.152h16.415
			l0.367-4.492h-20.536L162.384,81.235z"/>
		<g>
			<polygon style="fill:#FFFFFF;" points="10.906,81.295 43.074,81.304 41.878,91.838 9.585,91.838 			"/>
			<path style="fill:#FFFFFF;" d="M54.219,81.421c5.997,0,54.083-0.057,57.675,0.002c3.645,0.057,6.514,2.975,6.606,6.739
				c0.045,1.78-0.331,3.701-0.331,3.701l-73.692-0.025c0,0,0.271-1.812,0.507-3.423C45.412,85.474,49.356,81.415,54.219,81.421z"/>
			<path style="fill:#FFFFFF;" d="M122.168,81.255c0,0,20.638-0.044,27.303-0.015c4.307,0.017,8.627,2.035,7.975,8.978
				c-0.193,2.059-0.136,1.65-0.136,1.65l-36.4-0.029L122.168,81.255z"/>
			<path style="fill:#FFFFFF;" d="M41.709,118.781l1.196-9.912l23.76-0.022l0.441-4.393c0,0-14.936,0.036-17.344-0.055
				c-3.398-0.126-6.712-2.545-5.787-8.548c6.326-0.061,25.498-0.055,27.641-0.034c4.333,0.034,7.985,2.391,7.695,8.358
				c-0.13,2.658-0.793,7.864-1.952,9.881c-3.114,5.384-7.798,4.658-8.682,4.724C67.96,118.813,41.709,118.781,41.709,118.781z"/>
			<path style="fill:#FFFFFF;" d="M117.683,95.996c0,0-0.349,1.979-0.602,3.264c-0.526,2.656-2.154,5.154-5.94,5.157
				c-9.177,0-16.841,0-16.841,0l-2.027,14.363h-12.19l2.894-22.785H117.683z"/>
			<polygon style="fill:#FFFFFF;" points="120.344,95.996 132.913,96 129.655,118.71 117.23,118.718 			"/>
			<polygon style="fill:#FFFFFF;" points="144.461,95.996 156.665,96 153.771,118.777 141.566,118.781 			"/>
			<polygon style="fill:#FFFFFF;" points="9.018,95.852 41.391,95.852 40.243,104.565 20.216,104.586 19.649,108.847 
				39.677,108.869 38.482,118.843 6.25,118.843 			"/>
		</g>
	</g>
</g>
<g id="Layer_1">
</g>
</svg>
