<?xml version="1.0" encoding="iso-8859-1"?>
<!-- Generator: Adobe Illustrator 19.2.0, SVG Export Plug-In . SVG Version: 6.00 Build 0)  -->
<svg version="1.1" xmlns="http://www.w3.org/2000/svg" xmlns:xlink="http://www.w3.org/1999/xlink" x="0px" y="0px"
	 viewBox="0 0 200 200" style="enable-background:new 0 0 200 200;" xml:space="preserve">
<g id="FLAMA">
	<g>
		<rect x="121" y="71" style="fill:#FFFFFF;" width="9" height="9"/>
		<path style="fill:#FFFFFF;" d="M53,52v96h96V52H53z M108,139H98v-27h-9v27h-8v-27h-9v27H62v-37h9.259H81v10h8v-10h9.606H108V139z
			 M108,97H96.327H89V71H72v9h9v8h-9v9H62V61h9.259H89.49H98v27h10V97z M140,139h-10v-10h-9v10h-8v-37h8.586h9.144H140V139z M140,97
			h-10v-9h-9v9h-8V61h8.586h9.144H140V97z"/>
		<rect x="121" y="112" style="fill:#FFFFFF;" width="9" height="8"/>
	</g>
</g>
<g id="Layer_1">
</g>
</svg>
