<svg id="FOODNETWORK" xmlns="http://www.w3.org/2000/svg" viewBox="0 0 200 200"><defs><style>.cls-1{fill:#fff;}</style></defs><title>FOODNETWORK</title><path class="cls-1" d="M111.4,93.4l-0.5-.5-0.6-.3-0.7-.2h-1.6l-0.7.2-0.7.4-0.6.5a5.3,5.3,0,0,0-1,1.2,8,8,0,0,0-.7,1.5,16.5,16.5,0,0,0-.5,1.7l-0.4,1.9c-0.1.7-.3,1.3-0.3,1.9a15.2,15.2,0,0,0-.2,1.7,6.6,6.6,0,0,0,.1,1.5,3.3,3.3,0,0,0,.5,1.2l0.5,0.5,0.6,0.4,0.7,0.2h1.6l0.8-.2,0.7-.4,0.6-.5a5.3,5.3,0,0,0,.9-1.2,8.6,8.6,0,0,0,.7-1.5l0.3-.9,0.2-.8,0.4-1.9,0.2-.9,0.2-1A14.7,14.7,0,0,0,112,96a6.1,6.1,0,0,0-.1-1.5A3.2,3.2,0,0,0,111.4,93.4Z"/><path class="cls-1" d="M90.1,93.4l-0.5-.5L89,92.6l-0.7-.2H86.7l-0.7.2-0.7.4-0.6.5a5.4,5.4,0,0,0-1,1.2A7.9,7.9,0,0,0,83,96a15.6,15.6,0,0,0-.5,1.7l-0.4,1.9c-0.1.7-.3,1.3-0.3,1.9a15.1,15.1,0,0,0-.2,1.7,6.5,6.5,0,0,0,.1,1.5,3.3,3.3,0,0,0,.5,1.2l0.5,0.5,0.6,0.4,0.7,0.2h1.6l0.8-.2,0.7-.4,0.6-.5a5.3,5.3,0,0,0,1-1.2,8.7,8.7,0,0,0,.7-1.5l0.3-.9,0.2-.8,0.4-1.9,0.2-.9,0.2-1a13.9,13.9,0,0,0,.1-1.7,6,6,0,0,0-.1-1.5A3.2,3.2,0,0,0,90.1,93.4Z"/><path class="cls-1" d="M132.2,92.9l-0.6-.4-0.7-.2h-1.6l-0.7.2-0.7.4-0.6.5a5.3,5.3,0,0,0-1,1.2,8.2,8.2,0,0,0-.7,1.5,16,16,0,0,0-.5,1.7l-0.4,2c-0.1.7-.3,1.3-0.3,2a15.1,15.1,0,0,0-.2,1.8,6.7,6.7,0,0,0,.1,1.5,3.4,3.4,0,0,0,.5,1.2l0.5,0.5,0.6,0.4,0.7,0.2h1.7l0.8-.2,0.7-.4,0.6-.5a5.4,5.4,0,0,0,1-1.2,8.8,8.8,0,0,0,.7-1.5l0.3-.9,0.3-1.1,0.3-1.7V98.7l0.2-1a14.6,14.6,0,0,0,.1-1.7,6.2,6.2,0,0,0-.1-1.5,3.2,3.2,0,0,0-.5-1.2Z"/><path class="cls-1" d="M90,119a1,1,0,0,0-.9.6,1.6,1.6,0,0,0-.1.6h2.2a1.6,1.6,0,0,0-.1-0.6A1,1,0,0,0,90,119Z"/><path class="cls-1" d="M145.3,81.6h0l-0.8.2-0.7.4-0.7.5a5.5,5.5,0,0,0-1,1.2,8.7,8.7,0,0,0-.7,1.5,17,17,0,0,0-.5,1.8l-0.4,2-1.3,7.8-0.8,4.3V102c-0.1.3-.1,0.7-0.1,1v0.7h0a5.2,5.2,0,0,0,.1,1,2.9,2.9,0,0,0,.4,1l0.4,0.4,0.5,0.3,0.6,0.2H140l-1.5,4.9H138l-1.6-.2-1.3-.5h-0.2l-0.8-.5-1-.9a5.4,5.4,0,0,1-.9-1.9l-0.9,1.3-0.5.5h-0.1l-0.2.2h0l-0.3.2-0.8.6-1.4.7-1.5.4h-1.7l-1.6-.2-1.4-.5-1.2-.7-0.9-.9a5.4,5.4,0,0,1-.9-2.1,10.4,10.4,0,0,1-.2-2.5,22.5,22.5,0,0,1,.3-2.7c0.1-.9.3-1.8,0.5-2.7s0.4-1.8.6-2.6a23,23,0,0,1,.8-2.6,12.2,12.2,0,0,1,1.2-2.4,7.8,7.8,0,0,1,1.7-1.9l1.2-.8,1.4-.6,1.5-.3h1.6l1.6,0.2,1.3,0.5,1.1,0.8,0.8,1,0.2-1c0.2-.8.3-1.7,0.6-2.6l0.7-2.6a22.3,22.3,0,0,1,.8-2.3l0.3-.7V80.9h0V80.6l0.4-.6,0.8-1a7.7,7.7,0,0,1,4.4-2.5,48.2,48.2,0,0,0-84.7,45.8,5.4,5.4,0,0,0,2.4-2.1h0.1a7.2,7.2,0,0,0,.7-1.5,14,14,0,0,0,.5-1.7l3.9-21.2H62.3l1.6-5.3h2.5l0.3-1.4v-1c0.1-.8.3-1.8,0.5-2.5L67.7,84a16.8,16.8,0,0,1,.7-1.8,12,12,0,0,1,3.1-4.1L73,76.9l1.9-1,2.3-.7,2.6-.3h0.1l2.4,0.2,0.8,0.2h0L81.5,81H81.3l-0.9-.3H78.2l-1,.3H77.2l-0.7.3-0.7.5a5,5,0,0,0-1,1.1,7.2,7.2,0,0,0-.7,1.4,13.9,13.9,0,0,0-.5,1.7l-0.2,1v0.7l-0.4,2.5h3.8l-1.6,5.3H72.1l-2.9,16-0.7,3.9c-0.2.9-.3,1.7-0.5,2.5a18.4,18.4,0,0,1-.9,2.7,12.2,12.2,0,0,1-3.1,4.2l-1.6,1.2-1.5.8A48.2,48.2,0,0,0,145.3,81.6ZM85,123.6H83.6v-3.4a0.9,0.9,0,0,0-.9-1,0.9,0.9,0,0,0-.9,1v3.4H80.3v-5.7h1.4v0.5a1.9,1.9,0,0,1,1.4-.6,1.8,1.8,0,0,1,1.3.5,2.1,2.1,0,0,1,.6,1.6v3.6Zm7.5-2.4H88.9a1.2,1.2,0,0,0,1.2,1.3,1.6,1.6,0,0,0,1.3-.5l0.9,0.8a2.7,2.7,0,0,1-2.2.9c-1.3,0-2.6-.6-2.6-2.9s1-2.9,2.5-2.9a2.4,2.4,0,0,1,2.5,2.7v0.6Zm0.9-14.4a11,11,0,0,1-1.6,1.7l-1.4,1.1-1.7.9-2.1.7-2.4.3-2.3-.2-1.9-.6-1.4-.9-1-1.1a6.6,6.6,0,0,1-1-1.7,7.7,7.7,0,0,1-.4-2,13.7,13.7,0,0,1,0-2.4c0.1-.9.2-1.8,0.4-2.9s0.4-2,.7-2.8a16.1,16.1,0,0,1,.9-2.4,10.7,10.7,0,0,1,2.8-3.7l1.4-1,1.7-.9,2-.6,2.4-.2,2.3,0.2,1.8,0.6,1.4,0.9,1,1a6.5,6.5,0,0,1,1,1.7,7.5,7.5,0,0,1,.4,2,12.9,12.9,0,0,1,0,2.3c-0.1.8-.2,1.8-0.4,2.8s-0.4,2-.6,2.8a15.8,15.8,0,0,1-.8,2.4A10.8,10.8,0,0,1,93.3,106.8Zm4.3,12.4h-1v2.7a0.4,0.4,0,0,0,.5.5h0.5v1.2H96.8a1.5,1.5,0,0,1-1.6-1.6v-2.8H94.6V118h0.6v-1.7h1.4V118h1v1.1Zm8.7,4.4h-1.2l-1.2-3.6-1.2,3.6h-1.2l-1.7-5.7h1.5l0.9,3.5,1.2-3.5h1l1.2,3.5,0.9-3.5H108Zm7.9-.6a2.4,2.4,0,0,1-1.8.7,2.3,2.3,0,0,1-1.8-.7,2.9,2.9,0,0,1-.6-2.2,2.9,2.9,0,0,1,.6-2.2,2.3,2.3,0,0,1,1.8-.7,2.4,2.4,0,0,1,1.8.7,2.9,2.9,0,0,1,.6,2.2A2.9,2.9,0,0,1,114.2,122.9Zm2.4-20.5a16.4,16.4,0,0,1-.8,2.4,11,11,0,0,1-1.1,2,10.7,10.7,0,0,1-1.6,1.7l-1.4,1.1-1.7.9-2.1.7-2.4.3-2.3-.2-1.9-.6-1.4-.9-1-1.1a6.6,6.6,0,0,1-1-1.7,7.7,7.7,0,0,1-.4-2,13.5,13.5,0,0,1,0-2.4c0.1-.9.2-1.8,0.4-2.9s0.4-2,.7-2.8a16.2,16.2,0,0,1,.9-2.4,10.9,10.9,0,0,1,1.2-2,11,11,0,0,1,1.6-1.7l1.4-1,1.7-.9,2-.6,2.4-.2,2.3,0.2,1.8,0.6,1.4,0.9,1,1a6.4,6.4,0,0,1,1,1.7,7.4,7.4,0,0,1,.4,1.9,13.3,13.3,0,0,1,0,2.3c-0.1.8-.2,1.8-0.4,2.8S116.8,101.5,116.6,102.4Zm3.7,17a0.9,0.9,0,0,0-1.7.7v3.4h-1.4v-5.7h1.4v0.5a1.9,1.9,0,0,1,1.4-.6,1.7,1.7,0,0,1,1.3.5Zm6.7,4.1-1.4-2.4-0.6.7v1.7h-1.4v-7.8H125v4.4l1.9-2.3h1.7l-2,2.3,2.2,3.4H127Z"/><path class="cls-1" d="M112.4,119.1a0.9,0.9,0,0,0-.7.3,1.9,1.9,0,0,0-.3,1.4,1.9,1.9,0,0,0,.3,1.4,0.9,0.9,0,0,0,.7.3,0.9,0.9,0,0,0,.7-0.3,2,2,0,0,0,.3-1.4,1.9,1.9,0,0,0-.3-1.4A0.9,0.9,0,0,0,112.4,119.1Z"/><path class="cls-1" d="M146.5,76.8v2.4h-0.4V76.8h-0.7V76.4h1.8v0.3h-0.7Zm3.3,2.4V76.9l-0.8,2.3h-0.3L148,76.9v2.3h-0.4V76.4h0.5l0.7,2.3,0.7-2.3h0.5v2.7h-0.4Z"/></svg>