<?xml version="1.0" encoding="utf-8"?>
<!-- Generator: Adobe Illustrator 17.1.0, SVG Export Plug-In . SVG Version: 6.00 Build 0)  -->
<!DOCTYPE svg PUBLIC "-//W3C//DTD SVG 1.1//EN" "http://www.w3.org/Graphics/SVG/1.1/DTD/svg11.dtd">
<svg version="1.1" id="Layer_1" xmlns="http://www.w3.org/2000/svg" xmlns:xlink="http://www.w3.org/1999/xlink" x="0px" y="0px"
	 viewBox="0 0 612 792" enable-background="new 0 0 612 792" xml:space="preserve">
<g id="_x2D__Layer_6" display="none">
	<rect x="-4162.1" y="2959.5" display="inline" fill="#A67C52" width="612" height="612"/>
</g>
<g>
	<polygon fill="#FFFFFF" points="67.6,443.5 67.6,224.4 199.5,224.4 203.4,284.4 129.7,284.4 129.7,313.1 189.7,313.1 189.7,372.8 
		129.1,372.8 129.7,443.5 	"/>
	<polygon fill="#FFFFFF" points="574.6,443.2 508.8,329.7 568.5,225 501.2,225 475.2,272.1 450.1,225 380,225 441.2,330.3 
		376.6,443.2 444.3,443.2 474.5,388.1 504.8,443.2 	"/>
	<path fill="#FFFFFF" d="M304.7,228.1c-57.5,0-104.3,47.7-104.3,106.5s46.8,106.5,104.3,106.5s104.3-47.7,104.3-106.5
		C409.4,275.5,362.2,228.1,304.7,228.1z M305.3,395.8c-9.8,0-17.7-8-17.7-18.1v-87.2c0-10.1,8-19,17.7-19c9.8,0,18.4,8.9,18.4,19
		V378C323.7,388.1,314.8,395.8,305.3,395.8z"/>
</g>
<g>
	<path fill="#FFFFFF" d="M102.1,517.8c0,3.1-0.9,5.8-2.4,8.3c-1.5,2.4-3.7,4.3-6.7,5.5c-3.1,1.2-6.4,1.8-10.4,1.8
		c-3.4,0-6.1-0.3-8.3-0.6c-2.1-0.6-4.6-1.2-7-2.4v-11.9c2.4,1.2,5.2,2.4,8,3.1c2.8,0.6,5.2,1.2,7.7,1.2c1.8,0,3.4-0.3,4.3-0.9
		c0.9-0.6,1.5-1.5,1.5-2.8c0-0.6-0.3-1.2-0.6-1.8c-0.3-0.6-0.9-0.9-1.8-1.5c-0.9-0.6-3.1-1.5-6.4-3.1c-3.4-1.5-5.5-2.8-7.3-4.3
		c-1.5-1.2-2.8-3.1-3.7-4.6c-0.9-1.8-1.2-4-1.2-6.4c0-4.6,1.5-8,4.9-10.7c3.4-2.4,8-3.7,13.8-3.7c5.2,0,10.4,1.2,15.6,3.7l-4,10.4
		c-4.6-2.1-8.6-3.1-11.9-3.1c-1.8,0-3.1,0.3-3.7,0.9c-0.9,0.6-1.2,1.2-1.2,2.1s0.6,1.8,1.5,2.4s3.7,2.1,8.3,4.3
		c4.3,1.8,7.3,4,8.9,6.1C101.2,511.7,102.1,514.5,102.1,517.8z"/>
	<path fill="#FFFFFF" d="M126,533.4c-6.4,0-11.3-1.8-14.7-5.2c-3.7-3.4-5.2-8.3-5.2-14.4c0-6.4,1.5-11.3,4.9-15
		c3.4-3.4,8-5.2,14.1-5.2c5.8,0,10.1,1.5,13.5,4.6c3.1,3.1,4.6,7.3,4.6,12.9v5.8h-23.6c0,2.1,0.9,3.7,2.4,4.9
		c1.5,1.2,3.4,1.8,6.1,1.8c2.4,0,4.6-0.3,6.4-0.6c1.8-0.3,4-1.2,6.4-2.1v9.5c-2.1,0.9-4.3,1.8-6.4,2.1
		C131.5,533.1,129.1,533.4,126,533.4z M125.1,502.8c-1.5,0-2.8,0.6-4,1.5c-0.9,0.9-1.5,2.4-1.8,4.6h11.3c0-1.8-0.6-3.4-1.5-4.3
		C128.2,503.4,126.9,502.8,125.1,502.8z"/>
	<path fill="#FFFFFF" d="M162.1,532.8H149v-52.6h13.2V532.8z"/>
	<path fill="#FFFFFF" d="M188.1,533.4c-6.4,0-11.3-1.8-14.7-5.2c-3.7-3.4-5.2-8.3-5.2-14.4c0-6.4,1.5-11.3,4.9-15
		c3.4-3.4,8-5.2,14.1-5.2c5.8,0,10.1,1.5,13.5,4.6c3.1,3.1,4.6,7.3,4.6,12.9v5.8h-23.6c0,2.1,0.9,3.7,2.4,4.9s3.4,1.8,6.1,1.8
		c2.4,0,4.6-0.3,6.4-0.6c1.8-0.3,4-1.2,6.4-2.1v9.5c-2.1,0.9-4.3,1.8-6.4,2.1C193.9,533.1,191.2,533.4,188.1,533.4z M187.5,502.8
		c-1.5,0-2.8,0.6-4,1.5c-0.9,0.9-1.5,2.4-1.8,4.6H193c0-1.8-0.6-3.4-1.5-4.3C190.6,503.4,189,502.8,187.5,502.8z"/>
	<path fill="#FFFFFF" d="M228.5,533.4c-6.1,0-11-1.8-14.1-5.2c-3.4-3.4-4.9-8.3-4.9-14.7c0-6.4,1.8-11.3,5.2-14.7
		c3.4-3.4,8.6-5.2,15-5.2c4.3,0,8.6,0.9,12.5,2.8l-4,9.8c-1.5-0.6-3.1-1.2-4.3-1.5c-1.2-0.3-2.8-0.6-4.3-0.6c-2.1,0-3.7,0.9-4.9,2.4
		c-1.2,1.5-1.8,4-1.8,7c0,6.1,2.1,9.2,6.7,9.2c4,0,7.6-1.2,11-3.4v10.4C237.4,532.2,233.4,533.4,228.5,533.4z"/>
	<path fill="#FFFFFF" d="M265.5,523c1.8,0,4-0.3,6.4-1.2v9.5c-1.8,0.6-3.4,1.2-5.2,1.5c-1.5,0.3-3.4,0.6-5.5,0.6
		c-4.3,0-7.6-1.2-9.5-3.4c-1.8-2.1-3.1-5.5-3.1-10.1v-15.6h-4.6v-5.5l5.8-4.3l3.4-8h8.6v7.6h9.5v9.8h-9.5v15
		C262.2,521.8,263.4,523,265.5,523z"/>
	<path fill="#FFFFFF" d="M316,532.8l-10.1-35.5h-0.3c0.6,6.1,0.6,10.7,0.6,14.1v21.4h-11.9v-49.3h17.7l10.4,34.9h0.3l10.1-34.9h17.7
		v49.3h-12.2v-21.7c0-1.2,0-2.4,0-3.7c0-1.2,0.3-4.6,0.3-10.1h-0.3l-10.1,35.5H316z"/>
	<path fill="#FFFFFF" d="M384.3,532.8l-2.4-5.2h-0.3c-1.8,2.1-3.7,3.7-5.5,4.6c-1.8,0.9-4.3,1.2-7,1.2c-3.7,0-6.4-1.2-8.6-3.4
		c-2.1-2.1-3.1-5.2-3.1-9.2s1.5-7,4.3-9.2c2.8-2.1,7-3.1,12.2-3.4l6.4-0.3v-0.6c0-3.1-1.5-4.6-4.6-4.6c-2.8,0-6.4,0.9-10.7,2.8
		l-3.7-8.6c4.6-2.1,10.1-3.4,16.8-3.4c4.9,0,8.6,1.2,11.3,3.7c2.8,2.4,4,5.8,4,10.1v25.1L384.3,532.8L384.3,532.8L384.3,532.8z
		 M374.5,524c1.5,0,3.1-0.6,4-1.5c1.2-0.9,1.8-2.4,1.8-4v-3.1h-3.1c-4.3,0.3-6.4,1.8-6.4,4.9C370.8,522.7,372,524,374.5,524z"/>
	<path fill="#FFFFFF" d="M424.1,493.7c1.2,0,2.1,0,3.4,0.3h0.6l-1.2,12.5c-1.2-0.3-2.4-0.3-4.6-0.3c-2.8,0-4.9,0.6-6.4,1.8
		c-1.2,1.2-1.8,3.4-1.8,5.8v18.7h-13.2v-38.2h9.8l2.1,6.1h0.6c1.2-2.1,2.8-3.7,4.6-4.9C420.1,494.3,422.2,493.7,424.1,493.7z"/>
	<path fill="#FFFFFF" d="M444.9,511.1c1.5-2.4,3.1-4.6,4-5.8l8.6-10.7h14.7l-13.2,16.2l14.1,22h-15l-8.3-13.8l-4.3,3.4v10.4h-13.2
		v-52.6h13.2v20.5C445.2,504.4,445.2,507.7,444.9,511.1L444.9,511.1z"/>
	<path fill="#FFFFFF" d="M494.7,533.4c-6.4,0-11.3-1.8-14.7-5.2c-3.7-3.4-5.2-8.3-5.2-14.4c0-6.4,1.5-11.3,4.9-15
		c3.4-3.4,8-5.2,14.1-5.2c5.8,0,10.1,1.5,13.5,4.6c3.1,3.1,4.6,7.3,4.6,12.9v5.8h-23.6c0,2.1,0.9,3.7,2.4,4.9s3.4,1.8,6.1,1.8
		c2.4,0,4.6-0.3,6.4-0.6c1.8-0.3,4-1.2,6.4-2.1v9.5c-2.1,0.9-4.3,1.8-6.4,2.1C500.2,533.1,497.8,533.4,494.7,533.4z M493.8,502.8
		c-1.5,0-2.8,0.6-4,1.5c-0.9,0.9-1.5,2.4-1.8,4.6h11.3c0-1.8-0.6-3.4-1.5-4.3C496.9,503.4,495.7,502.8,493.8,502.8z"/>
	<path fill="#FFFFFF" d="M536.4,523c1.8,0,4-0.3,6.4-1.2v9.5c-1.8,0.6-3.4,1.2-5.2,1.5c-1.5,0.3-3.4,0.6-5.5,0.6
		c-4.3,0-7.6-1.2-9.5-3.4c-1.8-2.1-3.1-5.5-3.1-10.1v-15.6h-4.6v-5.5l5.8-4.3l3.4-8h8.6v7.6h9.5v9.8h-9.5v15
		C532.7,521.8,533.9,523,536.4,523z"/>
	<path fill="#FFFFFF" d="M577.4,520.9c0,4-1.5,7-4.3,9.2c-2.8,2.1-6.7,3.1-11.9,3.1c-2.8,0-5.2,0-7.3-0.3c-2.1-0.3-4.3-0.9-6.4-1.5
		v-10.7c2.1,0.9,4.3,1.5,6.7,2.1c2.4,0.6,4.6,0.9,6.4,0.9c2.8,0,4.3-0.6,4.3-1.8c0-0.6-0.3-1.2-1.2-1.8c-0.9-0.6-3.1-1.5-7-3.1
		c-3.4-1.5-5.8-3.1-7.3-4.9c-1.5-1.8-2.1-4.3-2.1-7c0-3.7,1.2-6.4,4-8.3c2.8-1.8,6.7-3.1,11.6-3.1c2.4,0,4.9,0.3,7,0.9
		c2.1,0.6,4.6,1.2,7,2.4l-3.7,8.6c-1.8-0.9-3.7-1.5-5.5-2.1s-3.7-0.9-4.9-0.9c-2.1,0-3.4,0.6-3.4,1.5c0,0.6,0.3,1.2,1.2,1.5
		c0.6,0.3,3.1,1.5,6.4,2.8c2.8,1.2,4.6,2.1,6.1,3.4c1.2,0.9,2.1,2.4,2.8,3.7C577.1,517.2,577.4,518.8,577.4,520.9z"/>
</g>
</svg>
