<?xml version="1.0" encoding="utf-8"?>
<!-- Generator: Adobe Illustrator 17.1.0, SVG Export Plug-In . SVG Version: 6.00 Build 0)  -->
<!DOCTYPE svg PUBLIC "-//W3C//DTD SVG 1.1//EN" "http://www.w3.org/Graphics/SVG/1.1/DTD/svg11.dtd">
<svg version="1.1" xmlns="http://www.w3.org/2000/svg" xmlns:xlink="http://www.w3.org/1999/xlink" x="0px" y="0px"
	 viewBox="0 0 612 792" enable-background="new 0 0 612 792" xml:space="preserve">
<g id="Layer_2" display="none">
	<rect y="16" display="inline" fill="#5F5F5F" width="612" height="792"/>
</g>
<g id="Layer_1">
	<g id="_x2D__Layer_6" display="none">
		<rect x="-4162.1" y="2959.5" display="inline" fill="#A67C52" width="612" height="612"/>
	</g>
	<g>
		<g>
			<path opacity="0.3" fill="#FFFFFF" enable-background="new    " d="M149.2,324.8c0,2.1,0,4.3,0.3,6.4
				C149.2,329.1,149.2,326.9,149.2,324.8z"/>
			<path opacity="0.3" fill="#FFFFFF" enable-background="new    " d="M176.5,257.5c0.6-0.6,1.2-1.2,1.5-1.8
				C177.4,256.2,176.8,256.9,176.5,257.5z"/>
			<path opacity="0.3" fill="#FFFFFF" enable-background="new    " d="M171.9,262.7c0.6-0.6,0.9-1.2,1.5-2.1
				C173.1,261.1,172.5,262.1,171.9,262.7z"/>
			<path opacity="0.3" fill="#FFFFFF" enable-background="new    " d="M182.6,250.7c-0.6,0.6-1.2,1.2-1.5,1.8
				C181.7,252,182,251.4,182.6,250.7z"/>
			<path opacity="0.3" fill="#FFFFFF" enable-background="new    " d="M149.2,324.8c0-2.1,0-4.3,0.3-6.4
				C149.2,320.5,149.2,322.6,149.2,324.8z"/>
			<path opacity="0.3" fill="#FFFFFF" enable-background="new    " d="M186,247.7c0.6-0.6,1.2-0.9,1.5-1.5
				C187.2,246.5,186.6,247.1,186,247.7z"/>
			<path opacity="0.3" fill="#FFFFFF" enable-background="new    " d="M191.5,242.8c0.6-0.3,0.9-0.9,1.5-1.2
				C192.4,241.9,191.8,242.5,191.5,242.8z"/>
			<path opacity="0.3" fill="#FFFFFF" enable-background="new    " d="M150.5,309.5c0.3-1.2,0.3-2.4,0.6-3.7
				C150.8,307,150.8,308.3,150.5,309.5z"/>
			<path opacity="0.3" fill="#FFFFFF" enable-background="new    " d="M151.7,303.4c0.3-1.2,0.6-2.1,0.9-3.4
				C152.3,300.9,152,302.1,151.7,303.4z"/>
			<path opacity="0.3" fill="#FFFFFF" enable-background="new    " d="M167.9,267.9c0.6-0.6,0.9-1.5,1.5-2.1
				C169.1,266.3,168.5,267.3,167.9,267.9z"/>
			<path opacity="0.3" fill="#FFFFFF" enable-background="new    " d="M197,238.5c0.6-0.3,0.9-0.9,1.5-1.2
				C197.9,237.6,197.6,237.9,197,238.5z"/>
			<path opacity="0.3" fill="#FFFFFF" enable-background="new    " d="M153.5,296.9c0.3-0.9,0.6-2.1,0.9-3.1
				C154.1,294.8,153.8,296,153.5,296.9z"/>
			<path opacity="0.3" fill="#FFFFFF" enable-background="new    " d="M164.2,273.4c0.6-0.9,0.9-1.5,1.5-2.4
				C165.5,271.9,164.9,272.8,164.2,273.4z"/>
			<path opacity="0.3" fill="#FFFFFF" enable-background="new    " d="M161.2,279.2c0.6-0.9,0.9-1.8,1.5-2.8
				C162.1,277.4,161.5,278.3,161.2,279.2z"/>
			<path opacity="0.3" fill="#FFFFFF" enable-background="new    " d="M155.7,290.8c0.3-0.9,0.6-2.1,1.2-3.1
				C156.3,289,156,289.9,155.7,290.8z"/>
			<path opacity="0.3" fill="#FFFFFF" enable-background="new    " d="M215.3,226.3c0.3-0.3,0.9-0.6,1.2-0.6
				C216.3,225.6,216,226,215.3,226.3z"/>
			<path opacity="0.3" fill="#FFFFFF" enable-background="new    " d="M282.7,203c0.3,0,0.3,0,0.6,0C283,203,282.7,203,282.7,203z"
				/>
			<path opacity="0.3" fill="#FFFFFF" enable-background="new    " d="M274.4,204.5c0.3,0,0.3,0,0.6,0
				C274.7,204.2,274.7,204.5,274.4,204.5z"/>
			<path opacity="0.3" fill="#FFFFFF" enable-background="new    " d="M202.8,234.2c0.6-0.3,0.9-0.6,1.5-0.9
				C203.7,233.6,203.4,233.9,202.8,234.2z"/>
			<path opacity="0.3" fill="#FFFFFF" enable-background="new    " d="M258.5,208.2c0.3,0,0.6,0,0.6-0.3
				C259.1,208.2,258.8,208.2,258.5,208.2z"/>
			<path opacity="0.3" fill="#FFFFFF" enable-background="new    " d="M149.6,316.5c0-1.5,0.3-2.8,0.3-4.3
				C149.9,313.5,149.9,315,149.6,316.5z"/>
			<path opacity="0.3" fill="#FFFFFF" enable-background="new    " d="M290.9,201.8c0.3,0,0.3,0,0.6,0
				C291.2,201.8,290.9,201.8,290.9,201.8z"/>
			<path opacity="0.3" fill="#FFFFFF" enable-background="new    " d="M299.2,200.9c0.3,0,0.3,0,0.6,0
				C299.5,200.6,299.5,200.9,299.2,200.9z"/>
			<path opacity="0.3" fill="#FFFFFF" enable-background="new    " d="M266.4,206.4c0.3,0,0.3,0,0.6-0.3
				C266.8,206.1,266.4,206.4,266.4,206.4z"/>
			<path opacity="0.3" fill="#FFFFFF" enable-background="new    " d="M250.8,210.7c0.3,0,0.6-0.3,0.9-0.3
				C251.4,210.7,251.1,210.7,250.8,210.7z"/>
			<path opacity="0.3" fill="#FFFFFF" enable-background="new    " d="M307.8,199.9c0.3,0,0.3,0,0.6,0
				C308.1,199.9,308.1,199.9,307.8,199.9z"/>
			<path opacity="0.3" fill="#FFFFFF" enable-background="new    " d="M208.9,230.2c0.6-0.3,0.9-0.6,1.5-0.9
				C209.8,229.6,209.5,229.9,208.9,230.2z"/>
			<path opacity="0.3" fill="#FFFFFF" enable-background="new    " d="M222.1,222.6c0.3-0.3,0.9-0.3,1.2-0.6
				C223,222.3,222.4,222.6,222.1,222.6z"/>
			<path opacity="0.3" fill="#FFFFFF" enable-background="new    " d="M243.2,213.4c0.3,0,0.6-0.3,0.9-0.3
				C243.8,213.1,243.5,213.1,243.2,213.4z"/>
			<path opacity="0.3" fill="#FFFFFF" enable-background="new    " d="M236.1,216.2c0.3,0,0.6-0.3,0.9-0.3
				C236.8,215.9,236.5,216.2,236.1,216.2z"/>
			<path opacity="0.3" fill="#FFFFFF" enable-background="new    " d="M228.8,219.2c0.3-0.3,0.6-0.3,1.2-0.6
				C229.7,218.9,229.4,219.2,228.8,219.2z"/>
			<path opacity="0.3" fill="#FFFFFF" enable-background="new    " d="M158.1,285c0.3-0.9,0.9-1.8,1.2-2.8
				C159,283.2,158.4,284.1,158.1,285z"/>
			<path opacity="0.3" fill="#FFFFFF" enable-background="new    " d="M181.1,397.6c0.6,0.6,0.9,0.9,1.5,1.5
				C182.3,398.5,181.7,397.9,181.1,397.6z"/>
			<path opacity="0.3" fill="#FFFFFF" enable-background="new    " d="M230,431c-0.3,0-0.6-0.3-0.9-0.3
				C229.4,430.7,229.7,430.7,230,431z"/>
			<path opacity="0.3" fill="#FFFFFF" enable-background="new    " d="M251.4,439.2c-0.3,0-0.3,0-0.6-0.3
				C251.1,439.2,251.4,439.2,251.4,439.2z"/>
			<path opacity="0.3" fill="#FFFFFF" enable-background="new    " d="M244.1,436.8c-0.3,0-0.3,0-0.6-0.3
				C243.8,436.5,243.8,436.5,244.1,436.8z"/>
			<path opacity="0.3" fill="#FFFFFF" enable-background="new    " d="M223,427.6c-0.3,0-0.6-0.3-0.9-0.3
				C222.7,427.3,223,427.3,223,427.6z"/>
			<path opacity="0.3" fill="#FFFFFF" enable-background="new    " d="M210.1,420.3c-0.3-0.3-0.6-0.6-1.2-0.6
				C209.5,420,209.8,420.3,210.1,420.3z"/>
			<path opacity="0.3" fill="#FFFFFF" enable-background="new    " d="M216.6,424.2c-0.3-0.3-0.6-0.3-0.9-0.6
				C216,423.6,216.3,423.9,216.6,424.2z"/>
			<path opacity="0.3" fill="#FFFFFF" enable-background="new    " d="M236.8,433.7c-0.3,0-0.6-0.3-0.6-0.3
				C236.5,433.7,236.8,433.7,236.8,433.7z"/>
			<path opacity="0.3" fill="#FFFFFF" enable-background="new    " d="M259.1,441.4L259.1,441.4L259.1,441.4z"/>
			<path opacity="0.3" fill="#FFFFFF" enable-background="new    " d="M299.5,449L299.5,449L299.5,449z"/>
			<path opacity="0.3" fill="#FFFFFF" enable-background="new    " d="M291.2,448.1C291.2,448.1,290.9,448.1,291.2,448.1
				C290.9,448.1,291.2,448.1,291.2,448.1z"/>
			<path opacity="0.3" fill="#FFFFFF" enable-background="new    " d="M283,446.9C283,446.9,282.7,446.9,283,446.9
				C282.7,446.9,283,446.9,283,446.9z"/>
			<path opacity="0.3" fill="#FFFFFF" enable-background="new    " d="M266.8,443.5L266.8,443.5L266.8,443.5z"/>
			<path opacity="0.3" fill="#FFFFFF" enable-background="new    " d="M274.7,445.4L274.7,445.4L274.7,445.4z"/>
			<path opacity="0.3" fill="#FFFFFF" enable-background="new    " d="M204.3,416.6c-0.3-0.3-0.9-0.6-1.2-0.9
				C203.4,416,203.7,416.3,204.3,416.6z"/>
			<path opacity="0.3" fill="#FFFFFF" enable-background="new    " d="M154.4,355.7c-0.3-0.9-0.6-2.1-0.9-3.1
				C153.8,353.9,154.1,354.8,154.4,355.7z"/>
			<path opacity="0.3" fill="#FFFFFF" enable-background="new    " d="M156.9,361.8c-0.3-0.9-0.6-1.8-1.2-2.8
				C156,360,156.3,360.9,156.9,361.8z"/>
			<path opacity="0.3" fill="#FFFFFF" enable-background="new    " d="M162.4,373.1c-0.3-0.9-0.9-1.5-1.2-2.4
				C161.5,371.6,162.1,372.2,162.4,373.1z"/>
			<path opacity="0.3" fill="#FFFFFF" enable-background="new    " d="M198.5,412.3c-0.3-0.3-0.9-0.6-1.2-0.9
				C197.6,411.7,197.9,412,198.5,412.3z"/>
			<path opacity="0.3" fill="#FFFFFF" enable-background="new    " d="M150.2,337.6c-0.3-1.5-0.3-2.8-0.3-4.3
				C149.9,334.9,149.9,336.1,150.2,337.6z"/>
			<path opacity="0.3" fill="#FFFFFF" enable-background="new    " d="M152.6,349.9c-0.3-1.2-0.6-2.1-0.9-3.4
				C152,347.7,152.3,348.7,152.6,349.9z"/>
			<path opacity="0.3" fill="#FFFFFF" enable-background="new    " d="M151.1,343.8c-0.3-1.2-0.3-2.4-0.6-3.7
				C150.8,341.3,150.8,342.5,151.1,343.8z"/>
			<path opacity="0.3" fill="#FFFFFF" enable-background="new    " d="M159.3,367.3c-0.3-0.9-0.9-1.8-1.2-2.4
				C158.7,365.8,159,366.7,159.3,367.3z"/>
			<path opacity="0.3" fill="#FFFFFF" enable-background="new    " d="M187.5,403.7c-0.6-0.3-0.9-0.9-1.5-1.2
				C186.6,402.8,187.2,403.1,187.5,403.7z"/>
			<path opacity="0.3" fill="#FFFFFF" enable-background="new    " d="M308.1,449.6L308.1,449.6L308.1,449.6z"/>
			<path opacity="0.3" fill="#FFFFFF" enable-background="new    " d="M193,408c-0.3-0.3-0.9-0.6-1.2-1.2
				C192.1,407.4,192.4,407.7,193,408z"/>
			<path opacity="0.3" fill="#FFFFFF" enable-background="new    " d="M165.8,378.6c-0.6-0.6-0.9-1.5-1.2-2.1
				C164.9,377.1,165.5,377.7,165.8,378.6z"/>
			<path opacity="0.3" fill="#FFFFFF" enable-background="new    " d="M169.4,383.8c-0.6-0.6-0.9-1.2-1.5-2.1
				C168.5,382.6,169.1,383.2,169.4,383.8z"/>
			<path opacity="0.3" fill="#FFFFFF" enable-background="new    " d="M173.7,389.1c-0.6-0.6-0.9-1.2-1.5-1.8
				C172.5,387.8,173.1,388.4,173.7,389.1z"/>
			<path opacity="0.3" fill="#FFFFFF" enable-background="new    " d="M178,393.9c-0.6-0.6-0.9-1.2-1.5-1.5
				C177.1,393,177.4,393.6,178,393.9z"/>
		</g>
		<g>
			<path opacity="0.3" fill="#FFFFFF" enable-background="new    " d="M335.6,449.6L335.6,449.6L335.6,449.6z"/>
			<path opacity="0.3" fill="#FFFFFF" enable-background="new    " d="M344.2,449L344.2,449L344.2,449z"/>
			<path opacity="0.3" fill="#FFFFFF" enable-background="new    " d="M352.4,448.1L352.4,448.1L352.4,448.1z"/>
			<path opacity="0.3" fill="#FFFFFF" enable-background="new    " d="M360.7,203L360.7,203L360.7,203z"/>
			<path opacity="0.3" fill="#FFFFFF" enable-background="new    " d="M343.9,200.6L343.9,200.6
				C344.2,200.9,344.2,200.6,343.9,200.6z"/>
			<path opacity="0.3" fill="#FFFFFF" enable-background="new    " d="M352.4,201.8L352.4,201.8L352.4,201.8z"/>
			<path opacity="0.3" fill="#FFFFFF" enable-background="new    " d="M360.7,446.9L360.7,446.9L360.7,446.9z"/>
			<path opacity="0.3" fill="#FFFFFF" enable-background="new    " d="M392.5,438.9L392.5,438.9
				C392.2,439.2,392.5,439.2,392.5,438.9z"/>
			<path opacity="0.3" fill="#FFFFFF" enable-background="new    " d="M400.2,436.5c-0.3,0-0.3,0-0.6,0.3
				C399.6,436.5,399.9,436.5,400.2,436.5z"/>
			<path opacity="0.3" fill="#FFFFFF" enable-background="new    " d="M414.5,430.4c-0.3,0-0.6,0.3-0.9,0.3
				C413.9,430.7,414.2,430.7,414.5,430.4z"/>
			<path opacity="0.3" fill="#FFFFFF" enable-background="new    " d="M369,445.4L369,445.4L369,445.4z"/>
			<path opacity="0.3" fill="#FFFFFF" enable-background="new    " d="M368.6,204.2L368.6,204.2C369,204.5,369,204.5,368.6,204.2z"
				/>
			<path opacity="0.3" fill="#FFFFFF" enable-background="new    " d="M384.9,441.4C384.9,441.4,384.6,441.4,384.9,441.4
				C384.6,441.4,384.9,441.4,384.9,441.4z"/>
			<path opacity="0.3" fill="#FFFFFF" enable-background="new    " d="M376.9,443.5L376.9,443.5L376.9,443.5z"/>
			<path opacity="0.3" fill="#FFFFFF" enable-background="new    " d="M407.5,433.7c-0.3,0-0.3,0.3-0.6,0.3
				C406.9,433.7,407.2,433.7,407.5,433.7z"/>
			<path opacity="0.3" fill="#FFFFFF" enable-background="new    " d="M445.1,237.3c0.6,0.3,1.2,0.9,1.8,1.5
				C446.4,238.2,445.8,237.6,445.1,237.3z"/>
			<path opacity="0.3" fill="#FFFFFF" enable-background="new    " d="M450.7,241.6c0.6,0.6,1.2,1.2,1.8,1.5
				C451.9,242.5,451.3,241.9,450.7,241.6z"/>
			<path opacity="0.3" fill="#FFFFFF" enable-background="new    " d="M433.2,229.3c0.6,0.3,0.9,0.6,1.5,0.9
				C434.1,229.9,433.8,229.6,433.2,229.3z"/>
			<path opacity="0.3" fill="#FFFFFF" enable-background="new    " d="M439.3,233c0.6,0.3,1.2,0.9,1.8,1.2
				C440.3,233.9,439.6,233.6,439.3,233z"/>
			<path opacity="0.3" fill="#FFFFFF" enable-background="new    " d="M460.8,250.7c0.6,0.6,1.5,1.5,2.1,2.1
				C462.3,252,461.7,251.4,460.8,250.7z"/>
			<path opacity="0.3" fill="#FFFFFF" enable-background="new    " d="M455.9,245.8c0.6,0.6,1.2,1.2,2.1,1.8
				C457.1,247.1,456.5,246.5,455.9,245.8z"/>
			<path opacity="0.3" fill="#FFFFFF" enable-background="new    " d="M335.3,199.9L335.3,199.9
				C335.6,199.9,335.6,199.9,335.3,199.9z"/>
			<path opacity="0.3" fill="#FFFFFF" enable-background="new    " d="M391.9,210.3c0.3,0,0.6,0,0.6,0.3
				C392.5,210.7,392.2,210.7,391.9,210.3z"/>
			<path opacity="0.3" fill="#FFFFFF" enable-background="new    " d="M399.2,213.1c0.3,0,0.6,0.3,0.9,0.3
				C399.9,213.1,399.6,213.1,399.2,213.1z"/>
			<path opacity="0.3" fill="#FFFFFF" enable-background="new    " d="M376.6,206.1c0.3,0,0.3,0,0.6,0
				C376.9,206.1,376.9,206.1,376.6,206.1z"/>
			<path opacity="0.3" fill="#FFFFFF" enable-background="new    " d="M384.6,208.2c0.3,0,0.3,0,0.6,0.3
				C384.9,208.2,384.6,208.2,384.6,208.2z"/>
			<path opacity="0.3" fill="#FFFFFF" enable-background="new    " d="M426.8,225.6c0.6,0.3,0.9,0.6,1.5,0.9
				C427.7,226,427.4,225.6,426.8,225.6z"/>
			<path opacity="0.3" fill="#FFFFFF" enable-background="new    " d="M413.6,218.9c0.3,0.3,0.6,0.3,1.2,0.6
				C414.2,219.2,413.9,218.9,413.6,218.9z"/>
			<path opacity="0.3" fill="#FFFFFF" enable-background="new    " d="M406.6,215.9c0.3,0,0.6,0.3,0.9,0.3
				C407.2,216.2,406.9,215.9,406.6,215.9z"/>
			<path opacity="0.3" fill="#FFFFFF" enable-background="new    " d="M420.4,222c0.3,0.3,0.9,0.3,1.2,0.6
				C421.3,222.6,420.7,222.3,420.4,222z"/>
			<path opacity="0.3" fill="#FFFFFF" enable-background="new    " d="M472.1,263c-0.6-0.9-1.5-1.8-2.1-2.8
				C470.5,261.4,471.2,262.4,472.1,263z"/>
			<path opacity="0.3" fill="#FFFFFF" enable-background="new    " d="M467.5,257.8c-0.6-0.9-1.5-1.5-2.1-2.4
				C466.3,256.2,466.9,257.2,467.5,257.8z"/>
			<path opacity="0.3" fill="#FFFFFF" enable-background="new    " d="M476.1,268.5c-0.6-0.9-1.2-2.1-2.1-3.1
				C474.5,266.7,475.4,267.6,476.1,268.5z"/>
			<path opacity="0.3" fill="#FFFFFF" enable-background="new    " d="M488.3,357.5c-0.6,1.5-0.9,2.8-1.5,4.3
				C487.4,360.6,488,359.1,488.3,357.5z"/>
			<path opacity="0.3" fill="#FFFFFF" enable-background="new    " d="M492.3,344.4c-0.3,1.8-0.9,3.7-1.2,5.5
				C491.4,348,492,346.2,492.3,344.4z"/>
			<path opacity="0.3" fill="#FFFFFF" enable-background="new    " d="M479.7,274.3c-0.6-1.2-1.2-2.1-2.1-3.4
				C478.5,272.2,479.1,273.1,479.7,274.3z"/>
			<path opacity="0.3" fill="#FFFFFF" enable-background="new    " d="M490.4,351.1c-0.6,1.5-0.9,3.1-1.5,4.9
				C489.5,354.5,490.1,352.9,490.4,351.1z"/>
			<path opacity="0.3" fill="#FFFFFF" enable-background="new    " d="M492.3,305.2c-0.3-1.8-0.9-3.7-1.5-5.5
				C491.4,301.5,492,303.4,492.3,305.2z"/>
			<path opacity="0.3" fill="#FFFFFF" enable-background="new    " d="M490.7,298.5c-0.6-1.5-0.9-3.4-1.5-4.9
				C489.5,295.4,490.1,296.9,490.7,298.5z"/>
			<path opacity="0.3" fill="#FFFFFF" enable-background="new    " d="M485.8,364c-0.6,1.2-1.2,2.4-1.8,3.7
				C484.6,366.4,485.2,365.2,485.8,364z"/>
			<path fill="#FFFFFF" d="M321.8,186.5c-127.6,0-231,61.8-231,138.3s103.4,138.3,231,138.3s231-61.8,231-138.3
				C552.6,248.6,449.4,186.5,321.8,186.5z M327,457.3v-7.3l0,0c-1.8,0-3.4,0-5.2,0s-3.4,0-5.2,0l0,0v7.3
				C195.1,455.8,97.5,397,97.5,324.8c0-72.2,97.6-131,219.1-132.5v7.3c0,0,0,0-0.3,0c1.8,0,3.7,0,5.2,0c1.8,0,3.7,0,5.2,0
				c0,0,0,0-0.3,0v-7.3c121.5,1.5,219.1,60.3,219.1,132.5C546.1,397,448.5,455.8,327,457.3z"/>
			<path opacity="0.3" fill="#FFFFFF" enable-background="new    " d="M421.3,427c-0.3,0.3-0.6,0.3-0.9,0.6
				C420.7,427.3,421,427.3,421.3,427z"/>
			<path opacity="0.3" fill="#FFFFFF" enable-background="new    " d="M488.6,292.4c-0.6-1.5-1.2-3.1-1.8-4.3
				C487.4,289.3,488,290.8,488.6,292.4z"/>
			<path opacity="0.3" fill="#FFFFFF" enable-background="new    " d="M483.1,280.1c-0.6-1.2-1.2-2.4-1.8-3.7
				C481.9,277.7,482.5,278.9,483.1,280.1z"/>
			<path opacity="0.3" fill="#FFFFFF" enable-background="new    " d="M485.8,285.9c-0.6-1.2-1.2-2.8-1.8-4
				C484.6,283.5,485.2,284.7,485.8,285.9z"/>
			<path opacity="0.3" fill="#FFFFFF" enable-background="new    " d="M446.7,411.4c-0.6,0.3-0.9,0.9-1.5,1.2
				C445.8,412,446.1,411.7,446.7,411.4z"/>
			<path opacity="0.3" fill="#FFFFFF" enable-background="new    " d="M482.8,369.8c-0.6,1.2-1.2,2.1-1.8,3.4
				C481.9,372.2,482.2,371,482.8,369.8z"/>
			<path opacity="0.3" fill="#FFFFFF" enable-background="new    " d="M440.9,415.7c-0.6,0.3-0.9,0.6-1.5,0.9
				C439.6,416.3,440.3,416,440.9,415.7z"/>
			<path opacity="0.3" fill="#FFFFFF" enable-background="new    " d="M452.2,406.8c-0.6,0.6-1.2,0.9-1.8,1.5
				C451.3,407.7,451.9,407.1,452.2,406.8z"/>
			<path opacity="0.3" fill="#FFFFFF" enable-background="new    " d="M428,423.6c-0.3,0.3-0.6,0.3-1.2,0.6
				C427.4,423.9,427.7,423.6,428,423.6z"/>
			<path opacity="0.3" fill="#FFFFFF" enable-background="new    " d="M434.4,419.7c-0.3,0.3-0.9,0.6-1.2,0.9
				C433.8,420.3,434.1,420,434.4,419.7z"/>
			<path opacity="0.3" fill="#FFFFFF" enable-background="new    " d="M457.7,401.9c-0.6,0.6-1.2,1.2-1.8,1.5
				C456.5,403.1,457.1,402.5,457.7,401.9z"/>
			<path opacity="0.3" fill="#FFFFFF" enable-background="new    " d="M476.1,381.4c-0.6,0.9-1.2,1.8-1.8,2.8
				C474.5,383.2,475.1,382.3,476.1,381.4z"/>
			<path opacity="0.3" fill="#FFFFFF" enable-background="new    " d="M479.7,375.6c-0.6,0.9-1.2,2.1-1.8,3.1
				C478.5,377.7,479.1,376.5,479.7,375.6z"/>
			<path opacity="0.3" fill="#FFFFFF" enable-background="new    " d="M471.8,386.6c-0.6,0.9-1.2,1.5-1.8,2.4
				C470.5,388.4,471.2,387.5,471.8,386.6z"/>
			<path opacity="0.3" fill="#FFFFFF" enable-background="new    " d="M494.4,324.8c0,6.4-0.6,12.9-1.8,19
				C493.8,337.6,494.4,331.2,494.4,324.8s-0.6-12.9-1.8-19C493.8,311.9,494.4,318.4,494.4,324.8z"/>
			<path opacity="0.3" fill="#FFFFFF" enable-background="new    " d="M467.5,392.1c-0.6,0.6-1.2,1.5-1.8,2.1
				C466.3,393.3,466.9,392.7,467.5,392.1z"/>
			<path opacity="0.3" fill="#FFFFFF" enable-background="new    " d="M460.8,399.1c0.6-0.6,1.2-1.2,1.8-1.8
				C462,397.6,461.4,398.5,460.8,399.1z"/>
		</g>
		<g>
			<path fill="#FFFFFF" d="M141.6,318.7c2.8-43.5,34.6-81.4,82-103.4l-0.9-3.7c-67,20.2-113.5,60.3-117.2,107.1H141.6z"/>
			<path fill="#FFFFFF" d="M141.6,327.9h-36.1c1.8,48,49,89.7,117.5,110.5l0.9-3.7C175.3,411.7,142.8,372.5,141.6,327.9z"/>
		</g>
		<g>
			<path fill="#FFFFFF" d="M501.8,318.7h36.1c-3.7-46.8-50.5-86.9-117.5-107.1l-0.9,3.7C467.2,237.3,499.3,275.2,501.8,318.7z"/>
			<path fill="#FFFFFF" d="M502.1,327.9c-1.2,44.7-33.7,84.1-82.3,106.8l0.9,3.7c68.5-20.8,116-62.1,117.8-110.5H502.1L502.1,327.9z
				"/>
		</g>
		<g>
			<g>
				<g>
					<polygon fill="#FFFFFF" points="198.2,353.9 198.2,246.5 262.8,246.5 264.9,275.8 228.5,275.8 228.5,289.6 258.2,289.6 
						258.2,319 228.5,319 228.5,353.9 					"/>
				</g>
				<g>
					<polygon fill="#FFFFFF" points="448.2,353.6 416.1,297.9 445.5,246.5 413,246.5 399.6,269.7 386.4,246.5 352.7,246.5 
						382.7,298.2 350.9,353.6 383.6,353.6 399.2,326.6 414.9,353.6 					"/>
				</g>
				<g>
					<path fill="#FFFFFF" d="M264,300.3c0-28.8,23-52.3,51.1-52.3c28.2,0,51.1,23.3,51.1,52.3c0,28.8-22.9,52.3-51.1,52.3
						C286.9,352.3,264,329.1,264,300.3z M324.3,321.7v-42.8c0-4.9-4.3-9.2-9.2-9.2s-8.6,4.3-8.6,9.2v42.8c0,4.9,4,8.9,8.6,8.9
						C320.3,330.3,324.3,326.6,324.3,321.7z"/>
				</g>
			</g>
			<g>
				<g>
					<path fill="#FFFFFF" d="M195.8,400.7v-5.5l2.8-2.8h23.3l0.9-0.9v-5.8l-0.6-0.6h-21.4l-4.9-4.9v-13.8l5.5-5.5h31.2v6.1l-2.1,2.1
						h-22.6l-0.9,0.9v5.8l0.6,0.6h21.4l4.9,4.9v13.8l-5.5,5.5L195.8,400.7L195.8,400.7z"/>
				</g>
				<g>
					<path fill="#FFFFFF" d="M240.4,360.9h32.1l6.1,6.1v14.7l-6.1,6.1h-21.4v12.9h-11L240.4,360.9L240.4,360.9z M266.1,380.2
						l1.5-1.5V371l-1.5-1.5h-15v10.7H266.1z"/>
				</g>
				<g>
					<path fill="#FFFFFF" d="M284.8,394.6V367l6.1-6.1h26.9l6.1,6.1v27.5l-6.1,6.1h-26.9L284.8,394.6z M310.5,391.5l2.1-2.1v-17.4
						l-2.1-2.1h-12.9l-2.1,2.1v17.4l2.1,2.1H310.5z"/>
				</g>
				<g>
					<path fill="#FFFFFF" d="M330.7,360.9h32.7l5.5,5.5V379l-5.2,5.2l7,16.2h-12.2l-5.2-14.4h-11.6v14.4h-11V360.9z M356.4,378
						l1.5-1.5v-5.8l-1.5-1.5h-14.7v8.9H356.4z"/>
				</g>
				<g>
					<path fill="#FFFFFF" d="M385.5,370.1h-12.5v-9.2H409v9.2h-12.5v30.6h-11L385.5,370.1L385.5,370.1z"/>
				</g>
				<g>
					<path fill="#FFFFFF" d="M412.7,400.7v-5.5l2.8-2.8h23.3l0.9-0.9v-5.8l-0.6-0.6h-21.4l-4.9-4.9v-13.8l5.5-5.5h31.2v6.1l-2.1,2.1
						h-22.6l-0.9,0.9v5.8l0.6,0.6h21.4l4.9,4.9v13.8l-5.5,5.5L412.7,400.7L412.7,400.7z"/>
				</g>
			</g>
		</g>
		<g>
			<g>
				<path fill="#FFFFFF" d="M141.6,327.9h-36.1c1.8,48,49,89.7,117.5,110.5l0.9-3.7C175.3,411.7,142.8,372.5,141.6,327.9z"/>
			</g>
		</g>
		<g>
			<g>
				<path fill="#FFFFFF" d="M502.1,327.9c-1.2,44.7-33.7,84.1-82.3,106.8l0.9,3.7c68.5-20.8,116-62.1,117.8-110.5H502.1L502.1,327.9
					z"/>
			</g>
		</g>
		<path fill="#FFFFFF" d="M321.8,199.6c-95.5,0-172.6,56-172.6,125.2s77.4,125.2,172.6,125.2c95.5,0,172.6-56,172.6-125.2
			C494.4,255.6,417,199.6,321.8,199.6z M450.7,402.5c-30.9,26.3-77.1,43.1-128.8,43.1s-97.9-16.8-128.8-43.1
			c-19-21.7-30.3-48.7-30.3-77.7s11.3-56,30.3-77.7c30.9-26.3,77.1-43.1,128.8-43.1s97.9,16.8,128.8,43.1
			c19,21.7,30.3,48.7,30.3,77.7S469.6,380.8,450.7,402.5z"/>
	</g>
	<g>
		<path fill="#FFFFFF" d="M101.3,537.9c0,3.1-0.7,5.8-2.4,8.1c-1.7,2.4-3.7,4.1-6.8,5.4c-3.1,1.4-6.4,2-10.2,2
			c-3.4,0-6.1-0.3-8.1-0.7c-2.4-0.3-4.4-1.4-6.8-2.4v-11.9c2.4,1.4,5.1,2.4,7.8,3.1s5.1,1,7.5,1c2,0,3.4-0.3,4.4-1
			c1-0.7,1.4-1.7,1.4-2.7c0-0.7-0.3-1.4-0.7-1.7c-0.3-0.3-1-1-1.7-1.7c-0.7-0.7-3.1-1.7-6.4-3.1c-3.1-1.4-5.8-2.7-7.1-4.1
			c-1.7-1.4-2.7-3.1-3.4-4.8c-0.7-1.7-1-3.7-1-6.4c0-4.4,1.7-8.1,5.1-10.5c3.4-2.4,7.8-3.7,13.6-3.7c5.1,0,10.2,1,15.6,3.4
			l-4.1,10.2c-4.8-2-8.5-3.1-11.9-3.1c-1.7,0-3.1,0.3-3.7,1c-0.7,0.7-1,1.4-1,2.4s0.3,1.7,1.4,2.7c1,0.7,3.7,2,8.1,4.1
			c4.1,2,7.1,4.1,8.8,6.1C100.6,532.1,101.3,534.8,101.3,537.9z"/>
		<path fill="#FFFFFF" d="M125.4,553.5c-6.4,0-11.2-1.7-14.6-5.1c-3.4-3.4-5.1-8.1-5.1-14.3c0-6.4,1.7-11.2,4.8-14.9
			c3.4-3.4,7.8-5.1,13.9-5.1c5.8,0,10.2,1.4,13.2,4.4c3.1,3.1,4.8,7.1,4.8,12.9v5.8h-23.4c0,2,1,3.7,2.4,5.1
			c1.4,1.4,3.4,1.7,6.1,1.7c2.4,0,4.4-0.3,6.4-0.7c2-0.3,4.1-1,6.4-2.4v9.5c-2,1-4.1,1.7-6.4,2C130.8,553.5,128.4,553.5,125.4,553.5
			z M124.4,523.3c-1.7,0-2.7,0.3-3.7,1.4c-1,1-1.7,2.4-1.7,4.8h11.2c0-1.7-0.7-3.4-1.7-4.4C127.4,523.6,126,523.3,124.4,523.3z"/>
		<path fill="#FFFFFF" d="M161,552.8h-13.2v-52.3H161V552.8z"/>
		<path fill="#FFFFFF" d="M187.1,553.5c-6.4,0-11.2-1.7-14.6-5.1c-3.4-3.4-5.1-8.1-5.1-14.3c0-6.4,1.7-11.2,4.8-14.9
			c3.4-3.4,7.8-5.1,13.9-5.1c5.8,0,10.2,1.4,13.2,4.4c3.1,3.1,4.8,7.1,4.8,12.9v5.8h-23.4c0,2,1,3.7,2.4,5.1
			c1.4,1.4,3.4,1.7,6.1,1.7c2.4,0,4.4-0.3,6.4-0.7c2-0.3,4.1-1,6.4-2.4v9.5c-2,1-4.1,1.7-6.4,2C192.9,553.5,190.2,553.5,187.1,553.5
			z M186.5,523.3c-1.7,0-2.7,0.3-3.7,1.4c-1,1-1.7,2.4-1.7,4.8h11.2c0-1.7-0.7-3.4-1.7-4.4C189.5,523.6,188.1,523.3,186.5,523.3z"/>
		<path fill="#FFFFFF" d="M227.2,553.5c-6.1,0-10.9-1.7-14.3-5.1c-3.1-3.4-4.8-8.1-4.8-14.6c0-6.4,1.7-11.2,5.1-14.6
			c3.4-3.4,8.5-5.1,14.9-5.1c4.4,0,8.5,1,12.6,3.1L237,527c-1.7-0.7-3.1-1.4-4.4-1.7c-1.4-0.3-2.7-0.7-4.1-0.7c-2,0-3.7,0.7-5.1,2.4
			c-1.4,1.7-1.7,4.1-1.7,7.1c0,6.1,2.4,9.2,6.8,9.2c3.7,0,7.5-1,11.2-3.4v10.5C236,552.4,231.9,553.5,227.2,553.5z"/>
		<path fill="#FFFFFF" d="M264.2,543.3c1.7,0,3.7-0.3,6.4-1.4v9.5c-1.7,0.7-3.4,1.4-5.1,1.7c-1.7,0.3-3.4,0.3-5.8,0.3
			c-4.4,0-7.5-1-9.5-3.4c-2-2-3.1-5.4-3.1-9.8v-15.6h-4.8v-5.4l5.8-4.1l3.4-8.1h8.5v7.5h9.5v9.8h-9.5v14.9
			C260.8,541.9,261.8,543.3,264.2,543.3z"/>
		<path fill="#FFFFFF" d="M314.7,552.8l-10.2-35.3h-0.3c0.3,6.1,0.7,10.9,0.7,13.9v21.4H293v-49.2h17.6l10.2,35h0.3l10.2-35H349
			v49.2h-12.2v-21.4c0-1,0-2.4,0-3.7c0-1.4,0.3-4.8,0.3-10.2h-0.3l-9.8,35.3H314.7z"/>
		<path fill="#FFFFFF" d="M382.3,552.8l-2.4-5.1h-0.3c-1.7,2-3.7,3.7-5.4,4.4c-1.7,0.7-4.1,1.4-7.1,1.4c-3.7,0-6.4-1-8.5-3.1
			s-3.1-5.1-3.1-9.2s1.4-7.1,4.1-9.2c2.7-2,6.8-3.1,12.2-3.4l6.4-0.3v-0.7c0-3.1-1.7-4.8-4.8-4.8c-2.7,0-6.4,1-10.5,2.7l-3.7-8.8
			c4.4-2.4,10.2-3.4,16.6-3.4c4.8,0,8.8,1.4,11.2,3.7c2.7,2.4,4.1,5.8,4.1,10.2v25.1h-8.8L382.3,552.8L382.3,552.8z M372.8,544.3
			c1.7,0,3.1-0.3,4.1-1.4c1-1,1.7-2.4,1.7-4.1v-3.1h-3.1c-4.4,0-6.4,1.7-6.4,4.8C369,543.3,370,544.3,372.8,544.3z"/>
		<path fill="#FFFFFF" d="M422,514.1c1,0,2.4,0,3.4,0.3h0.7l-1,12.6c-1-0.3-2.7-0.3-4.4-0.3c-2.7,0-5.1,0.7-6.1,2
			c-1.4,1.4-2,3.1-2,5.8v18.7h-13.2v-38h9.8l2,6.1h0.7c1-2,2.7-3.7,4.8-4.8C417.9,514.8,419.9,514.1,422,514.1z"/>
		<path fill="#FFFFFF" d="M442.7,531.4c1.7-2.4,3.1-4.4,4.1-5.8l8.5-10.9h14.6l-13.2,16.3l13.9,21.7h-14.9l-8.5-13.6l-4.4,3.4v10.5
			h-13.2v-52.3h13.2v20.7C443,524.6,443,528,442.7,531.4L442.7,531.4z"/>
		<path fill="#FFFFFF" d="M492.2,553.5c-6.4,0-11.2-1.7-14.6-5.1s-5.1-8.1-5.1-14.3c0-6.4,1.7-11.2,4.8-14.9
			c3.4-3.4,7.8-5.1,13.9-5.1c5.8,0,10.2,1.4,13.2,4.4c3.1,3.1,4.8,7.1,4.8,12.9v5.8h-23.4c0,2,1,3.7,2.4,5.1
			c1.4,1.4,3.4,1.7,6.1,1.7c2.4,0,4.4-0.3,6.4-0.7c2-0.3,4.1-1,6.4-2.4v9.5c-2,1-4.1,1.7-6.4,2C498,553.5,495.3,553.5,492.2,553.5z
			 M491.5,523.3c-1.7,0-2.7,0.3-3.7,1.4s-1.7,2.4-1.7,4.8h11.2c0-1.7-0.7-3.4-1.7-4.4C494.6,523.6,493.2,523.3,491.5,523.3z"/>
		<path fill="#FFFFFF" d="M533.6,543.3c1.7,0,3.7-0.3,6.4-1.4v9.5c-1.7,0.7-3.4,1.4-5.1,1.7s-3.4,0.3-5.8,0.3c-4.4,0-7.5-1-9.5-3.4
			c-2-2-3.1-5.4-3.1-9.8v-15.6h-4.8v-5.4l5.8-4.1l3.4-8.1h8.5v7.5h9.5v9.8h-9.5v14.9C530.2,541.9,531.2,543.3,533.6,543.3z"/>
		<path fill="#FFFFFF" d="M574.7,541.2c0,4.1-1.4,7.1-4.1,9.2c-2.7,2-6.8,3.1-11.9,3.1c-2.7,0-5.4,0-7.5-0.3s-4.1-1-6.4-1.7v-10.5
			c2,1,4.4,1.7,6.8,2.4c2.4,0.7,4.8,1,6.4,1c2.7,0,4.4-0.7,4.4-2c0-0.7-0.3-1.4-1.4-1.7c-0.7-0.7-3.1-1.7-6.8-3.1
			c-3.4-1.4-5.8-3.1-7.5-4.8c-1.4-1.7-2-4.1-2-6.8c0-3.4,1.4-6.4,4.1-8.1c2.7-2,6.4-3.1,11.5-3.1c2.4,0,4.8,0.3,7.1,0.7
			c2,0.7,4.4,1.4,6.8,2.4l-3.4,8.5c-1.7-0.7-3.7-1.4-5.4-2c-2-0.7-3.4-0.7-4.8-0.7c-2,0-3.4,0.7-3.4,1.7c0,0.7,0.3,1.4,1,1.7
			c0.7,0.3,3.1,1.4,6.4,2.7c2.7,1,4.8,2,6.1,3.1c1.4,1,2.4,2.4,3.1,3.7C574.3,537.5,574.7,539.2,574.7,541.2z"/>
	</g>
</g>
</svg>
