<?xml version="1.0" encoding="iso-8859-1"?>
<!-- Generator: Adobe Illustrator 19.2.0, SVG Export Plug-In . SVG Version: 6.00 Build 0)  -->
<svg version="1.1" xmlns="http://www.w3.org/2000/svg" xmlns:xlink="http://www.w3.org/1999/xlink" x="0px" y="0px"
	 viewBox="0 0 200 200" style="enable-background:new 0 0 200 200;" xml:space="preserve">
<g id="FREEFORM">
	<path style="fill:#FFFFFF;" d="M157.489,62.304h-18.061c-1.571,0-2.356,0.795-2.356,2.386v32.942c0,1.591,0.785,2.387,2.356,2.387
		h22.774c1.57,0,2.198-0.796,2.198-2.387v-2.629l-0.013,0.004c-0.064-1.427-0.699-2.149-2.185-2.149h-16.65v-8.116h13.352
		c1.57,0,2.041-0.956,2.041-2.545v-2.07c0-1.591-0.471-2.545-2.041-2.545h-13.352v-8.117h18.22c0.628,0,0.942-0.158,0.942-0.795
		c0-0.795-0.942-2.227-1.884-3.342C161.259,63.418,159.06,62.304,157.489,62.304"/>
	<path style="fill:#FFFFFF;" d="M126.118,92.521h-13.007v-8.616h14.175c1.667,0,2.168-1.014,2.168-2.702v-2.198
		c0-1.69-0.501-2.704-2.168-2.704h-14.175v-8.616h17.677c1.667,0,2.336-0.844,2.336-2.534v-5.069h-26.516
		c-1.667,0-2.502,0.845-2.502,2.534v29.905c0,0,1.502,2.873,2.502,4.732c1.168,2.028,1.836,2.871,4.336,2.871h21.847
		c0.499,0,1-0.167,1-0.843c0-0.844-1-2.364-2.001-3.548C130.12,93.706,127.786,92.521,126.118,92.521"/>
	<path style="fill:#FFFFFF;" d="M95.369,85.631c2.56-1.621,5.842-5.515,5.842-10.555c0-11.186-9.281-12.807-14.401-12.807h-13.12
		c-1.601,0-2.401,0.81-2.401,2.433v6.87h-7.287c-0.027-0.001-0.047-0.007-0.075-0.007H47.535v-8.674h17.795
		c1.679,0,2.35-0.851,2.35-2.551v-5.103H40.988c-1.679,0-2.517,0.85-2.517,2.551v26.978v8.233v5.524c0,0.928,0.751,1.68,1.679,1.68
		h5.688c0.928,0,1.68-0.752,1.68-1.68v-5.184c0.007-0.113,0.018-0.221,0.018-0.339V79.22h10.654v0.013h13.099v6.62v12.409v6.982
		c0,1.018,0.826,1.844,1.844,1.844h4.955c1.017,0,1.843-0.826,1.843-1.844v-6.982V87.399h4.64c1.281,0,2.881,0.161,4.001,2.268
		c1.12,2.11,4.32,8.756,4.48,8.917c0.641,1.295,2.24,2.107,3.361,2.107h7.04L95.369,85.631z M86.81,80.102h-6.88v-6.97
		c0-3.243,2.561-3.568,3.52-3.568h3.36c2.721,0,5.6,1.622,5.6,5.351C92.41,78.32,89.69,80.102,86.81,80.102"/>
	<path style="fill:#FFFFFF;" d="M168.451,107.961h-3.108c-0.46,0-1.487,0.155-2.562,1.551L152.978,121l-10.265-11.798
		c-1.225-1.396-1.942-1.241-2.669-1.241h-3.001c-1.533,0-2.298,0.776-2.298,2.328v27.475c0,0,1.38,2.637,2.298,4.348
		c1.073,1.862,1.686,2.639,3.985,2.639h1.99v-23.44c0,0,6.281,6.986,7.048,7.762c0.765,0.776,1.228,1.396,2.3,1.396h1.835
		l8.275-9.468v21.422c0,1.551,0.614,2.328,2.144,2.328h4.291c1.228,0,1.839-0.777,1.839-2.328v-32.133
		C170.75,108.737,169.984,107.961,168.451,107.961"/>
	<path style="fill:#FFFFFF;" d="M124.561,129.003c2.68-1.696,6.114-5.772,6.114-11.046c0-11.705-9.713-13.402-15.07-13.402h-13.731
		c-1.676,0-2.51,0.849-2.51,2.544v35.119c0,1.697,0.668,2.544,2.008,2.544h4.689c1.673,0,2.344-0.847,2.344-2.544v-11.367h4.855
		c1.341,0,3.015,0.168,4.188,2.373c1.17,2.208,4.519,9.165,4.688,9.333c0.67,1.358,2.344,2.205,3.517,2.205h7.367L124.561,129.003z
		 M115.605,123.216h-7.2v-7.294c0-3.394,2.679-3.734,3.684-3.734h3.517c2.846,0,5.858,1.697,5.858,5.599
		C121.463,121.352,118.616,123.216,115.605,123.216"/>
	<path style="fill:#FFFFFF;" d="M78.146,109.238c-9.233,0-15.96,7.483-15.96,16.705c0,9.219,6.727,16.703,15.96,16.703
		c9.232,0,15.959-7.484,15.959-16.703C94.104,116.721,87.377,109.238,78.146,109.238 M78.146,135.698
		c-5.144,0-8.837-4.411-8.837-9.755c0-5.347,3.693-9.757,8.837-9.757c5.407,0.136,8.837,4.41,8.837,9.757
		C86.983,131.287,83.288,135.698,78.146,135.698"/>
	<path style="fill:#FFFFFF;" d="M31.733,102.021v33.972c0,1.643,0.648,2.463,1.944,2.463h4.536c1.62,0,2.266-0.821,2.266-2.463
		V122.7h15.816c1.621,0,2.107-0.984,2.107-2.625v-2.135c0-1.639-0.486-2.625-2.107-2.625H40.48v-8.369h17.172
		c1.618,0,2.266-0.822,2.266-2.463V99.56H34.163C32.543,99.56,31.733,100.38,31.733,102.021"/>
</g>
<g id="Layer_1">
</g>
</svg>
