<?xml version="1.0" encoding="utf-8"?>
<!-- Generator: Adobe Illustrator 19.0.0, SVG Export Plug-In . SVG Version: 6.00 Build 0)  -->
<svg version="1.1" id="Layer_1" xmlns="http://www.w3.org/2000/svg" xmlns:xlink="http://www.w3.org/1999/xlink" x="0px" y="0px"
	 viewBox="-295 207 200 200" style="enable-background:new -295 207 200 200;" xml:space="preserve">
<style type="text/css">
	.st0{display:none;}
	.st1{display:inline;fill:#A67C52;}
	.st2{fill:#FFFFFF;}
</style>
<g id="_x2D__Layer_6" class="st0">
	<rect x="-590" y="414.2" class="st1" width="200" height="200"/>
</g>
<path class="st2" d="M-268,268.5v77h146v-77H-268z M-221,300.5v11h-19.2l2.2,2.6v18.4h-18v-51h47.1l-10.9,10H-238v9H-221z
	 M-172,324.3l-6.4,8.2H-216v-3.1l10.5-7.9h16.1l0.4-2.5v-6.5l-0.1-1h-17.2l-7.8-6.5v-13.3l12.9-10.2h18.8h10.4v5.7l-3.5,4.3h-18.8
	l-2.7,1.2v6.4l2.4,1.4h17.2l5.4,6.2L-172,324.3L-172,324.3z M-135,332.5h-20v-32l4.9-3H-165v-6.4l12.2-9.6h17.8V332.5z"/>
</svg>
