<?xml version="1.0" encoding="utf-8"?>
<!-- Generator: Adobe Illustrator 19.0.0, SVG Export Plug-In . SVG Version: 6.00 Build 0)  -->
<svg version="1.1" id="Layer_1" xmlns="http://www.w3.org/2000/svg" xmlns:xlink="http://www.w3.org/1999/xlink" x="0px" y="0px"
	 viewBox="-295 207 200 200" style="enable-background:new -295 207 200 200;" xml:space="preserve">
<style type="text/css">
	.st0{display:none;}
	.st1{display:inline;fill:#A67C52;}
	.st2{fill:#FFFFFF;}
</style>
<g id="_x2D__Layer_6" class="st0">
	<rect x="-590" y="414.2" class="st1" width="200" height="200"/>
</g>
<path class="st2" d="M-268,270.5v73h146v-73H-268z M-223,301.5v11h-19.1l3.1,2.3v16.7h-17v-49h43.5l-10.4,11H-239v8H-223z
	 M-177,324.4l-6.5,7.1H-218v-2.2l8.8-8.8h15.2l1-1.1v-6.1l-0.6-0.8h-16.3l-6.1-6.3v-12.7l10.9-11h17.8h10.3v6.7l-3.7,4.3h-17.8
	l-1.4,1v6.1l1.2,0.9h16.3l5.6,6.2v16.7H-177z M-134,307.7l-6,5.8h-19.4l3.5,3.4v4.6h22v10h-36v-22.2l6.4-5.8h15.1l1.5-1.3v-8.8
	l-1.4-0.9h-6.8l-0.9,0.9v4.1h-14v-8l7.4-7h21.5l7.1,7.2L-134,307.7L-134,307.7z"/>
</svg>
