<?xml version="1.0" encoding="utf-8"?>
<!-- Generator: Adobe Illustrator 19.0.0, SVG Export Plug-In . SVG Version: 6.00 Build 0)  -->
<svg version="1.1" id="Layer_1" xmlns="http://www.w3.org/2000/svg" xmlns:xlink="http://www.w3.org/1999/xlink" x="0px" y="0px"
	 viewBox="-295 207 200 200" style="enable-background:new -295 207 200 200;" xml:space="preserve">
<style type="text/css">
	.st0{display:none;}
	.st1{display:inline;fill:#A67C52;}
	.st2{fill:#FFFFFF;}
</style>
<g id="_x2D__Layer_6" class="st0">
	<rect x="-590" y="414.2" class="st1" width="200" height="200"/>
</g>
<path class="st2" d="M-166.6,326.2l25.5,0.1l-20.8-32.3l20.8-32.3h-25.6l-8,12.4l-7.9-12.3v-0.1l0,0l0,0h-25.6l0,0h-18.4h-21.8h-0.6
	v64.6h22.4v-21.1h12.9l9.6,14.9l-20.6,32.1l25.5-0.1l7.9-12.3l7.9,12.2l25.5,0.1l-20.6-32.1l4-6.3L-166.6,326.2z M-191.4,300.1
	l-8.1-12.6v-0.1h-0.1h-25.6h-1.5V280h30.3l9,13.9L-191.4,300.1z"/>
</svg>
