<?xml version="1.0" encoding="iso-8859-1"?>
<!-- Generator: Adobe Illustrator 19.2.0, SVG Export Plug-In . SVG Version: 6.00 Build 0)  -->
<svg version="1.1" xmlns="http://www.w3.org/2000/svg" xmlns:xlink="http://www.w3.org/1999/xlink" x="0px" y="0px"
	 viewBox="0 0 200 200" style="enable-background:new 0 0 200 200;" xml:space="preserve">
<g id="GALAHD">
	<g>
		<g>
			<g>
				<g>
					<path style="fill:#FFFFFF;" d="M39.465,138.797c0-5.3,3.864-9.453,8.801-9.453c4.02,0,7.077,2.297,8.226,6.032h-3.708
						c-0.863-1.697-2.43-2.872-4.517-2.872c-3.002,0-5.352,2.872-5.352,6.294c0,3.446,2.35,6.319,5.352,6.319
						c2.583,0,4.464-1.855,4.96-4.048h-4.489v-3.21h8.276c0.21,6.369-3.575,10.391-8.747,10.391
						C43.329,148.249,39.465,144.098,39.465,138.797z"/>
					<path style="fill:#FFFFFF;" d="M72.471,147.937h-3.264v-1.412c-1.019,1.125-2.48,1.702-4.097,1.702
						c-3.553,0-6.451-3.138-6.451-7.001c0-3.89,2.846-7.076,6.919-7.076c4.048,0,6.893,3.187,6.893,7.076V147.937z M65.578,137.386
						c-1.905,0-3.449,1.647-3.449,3.864c0,2.144,1.544,3.788,3.449,3.788c1.908,0,3.447-1.697,3.447-3.788
						C69.025,139.108,67.486,137.386,65.578,137.386z"/>
					<path style="fill:#FFFFFF;" d="M79.001,147.937h-3.447v-19.428h3.447V147.937z"/>
					<path style="fill:#FFFFFF;" d="M95.189,147.937h-3.263v-1.412c-1.02,1.125-2.479,1.702-4.101,1.702
						c-3.55,0-6.451-3.138-6.451-7.001c0-3.89,2.847-7.076,6.923-7.076c4.048,0,6.892,3.187,6.892,7.076V147.937z M88.297,137.386
						c-1.908,0-3.447,1.647-3.447,3.864c0,2.144,1.539,3.788,3.447,3.788c1.906,0,3.444-1.697,3.444-3.788
						C91.741,139.108,90.203,137.386,88.297,137.386z"/>
					<path style="fill:#FFFFFF;" d="M104.276,147.937h-3.704l-5.094-13.447h3.605l3.34,10.027l3.367-10.027h3.552L104.276,147.937z"
						/>
					<path style="fill:#FFFFFF;" d="M114.461,147.937h-3.446V134.49h3.446V147.937z"/>
					<path style="fill:#FFFFFF;" d="M123.107,148.249c-3.424,0-5.954-1.802-6.375-4.699h3.5c0.469,1.149,1.853,1.567,2.875,1.567
						c1.382,0,2.426-0.418,2.426-1.201c0-0.758-0.471-1.072-2.818-1.438c-2.406-0.365-5.618-1.019-5.618-4.021
						c0-2.114,1.856-4.307,5.748-4.307c3.081,0,5.376,1.673,5.82,4.204h-3.578c-0.209-0.627-0.965-1.123-2.242-1.123
						c-1.597,0-2.248,0.575-2.248,1.07c0,0.705,0.992,0.939,2.665,1.201c3.341,0.548,5.743,1.279,5.743,4.206
						C129.004,146.369,126.55,148.249,123.107,148.249z"/>
					<path style="fill:#FFFFFF;" d="M134.907,147.937h-3.447V134.49h3.447V147.937z"/>
					<path style="fill:#FFFFFF;" d="M150.863,141.226c0,4.021-3.058,7.023-6.793,7.023c-3.732,0-6.759-3.002-6.759-7.023
						c0-4.023,3.027-7.076,6.759-7.076C147.805,134.149,150.863,137.203,150.863,141.226z M147.39,141.25
						c0-2.321-1.49-3.941-3.32-3.941c-1.826,0-3.313,1.62-3.313,3.941c0,2.274,1.487,3.838,3.313,3.838
						C145.9,145.088,147.39,143.524,147.39,141.25z M145.46,132.738h-2.536l2.43-3.682h3.862L145.46,132.738z"/>
					<path style="fill:#FFFFFF;" d="M159.14,134.149c3.761,0,5.977,2.483,5.977,6.006v7.782h-3.446v-7.861
						c0-0.758-0.26-2.562-2.531-2.562c-1.517,0-2.612,1.046-2.612,2.562v7.861h-3.446v-7.782
						C153.083,136.734,155.482,134.149,159.14,134.149z"/>
				</g>
			</g>
			<g>
				<g>
					<path style="fill:#FFFFFF;" d="M133.501,119.468h-0.6c0-0.273-0.229-0.479-0.612-0.479c-0.319,0-0.615,0.123-0.615,0.366
						c0,0.218,0.213,0.295,0.697,0.396c0.753,0.15,1.226,0.336,1.226,0.983c0,0.611-0.509,0.995-1.308,0.995
						c-0.618,0-1.294-0.342-1.294-1.103h0.6c0,0.373,0.375,0.551,0.694,0.551c0.346,0,0.707-0.122,0.707-0.424
						c0-0.2-0.165-0.323-0.747-0.436c-0.582-0.115-1.176-0.288-1.176-0.967c0-0.542,0.478-0.921,1.216-0.921
						C133.123,118.429,133.501,118.967,133.501,119.468z"/>
					<path style="fill:#FFFFFF;" d="M137.181,121.673h-0.592v-2.318l-0.644,2.318h-0.644l-0.643-2.318v2.318h-0.591v-3.163h0.893
						l0.661,2.37l0.66-2.37h0.9V121.673z"/>
				</g>
				<g>
					<path style="fill:#FFFFFF;" d="M114.804,121.083c0,0-5.06,5.466-17.949,4.732c-13.59-0.854-21.088-12.488-22.368-15.636
						c0,0-7.624-13.965-1.789-31.719c0,0,3.097-11.669,13.821-20.633c0,0,12.079-10.904,27.733-6.972l-8.467,22.305h0.006
						c-13.979-0.96-19.389,11.348-19.389,11.348c-6.405,13.095-1.422,24.835,5.693,30.597c7.114,5.763,15.651,5.977,15.651,5.977
						S111.617,121.297,114.804,121.083"/>
					<g>
						<defs>
							<path id="SVGID_236_" d="M105.784,73.16h0.009H105.784z M86.519,57.828c-10.726,8.963-13.821,20.633-13.821,20.633
								c-5.835,17.754,1.787,31.72,1.787,31.72c1.282,3.147,8.779,14.781,22.367,15.634c13.312,0.558,17.952-4.732,17.952-4.732
								c-3.187,0.212-7.058,0-7.058,0s-8.539-0.214-15.654-5.977c-7.115-5.761-12.096-17.503-5.69-30.597
								c0,0,5.404-12.305,19.381-11.349l8.466-22.305c-2.39-0.6-4.699-0.856-6.89-0.856C95.188,50,86.519,57.828,86.519,57.828"/>
						</defs>
						<use xlink:href="#SVGID_236_"  style="overflow:visible;fill:#FFFFFF;"/>
						<clipPath id="SVGID_1_">
							<use xlink:href="#SVGID_236_"  style="overflow:visible;"/>
						</clipPath>
						<g style="opacity:0.7;clip-path:url(#SVGID_1_);">
							<g>
								<defs>
									<rect id="SVGID_238_" x="47.642" y="31.694" width="66.212" height="66.213"/>
								</defs>
								<use xlink:href="#SVGID_238_"  style="overflow:visible;fill:#FFFFFF;"/>
								<clipPath id="SVGID_2_">
									<use xlink:href="#SVGID_238_"  style="overflow:visible;"/>
								</clipPath>
								<g style="clip-path:url(#SVGID_2_);">
									<defs>
										<path id="SVGID_240_" d="M80.509,31.694C62.336,31.822,47.642,46.598,47.642,64.8c0,18.285,14.824,33.106,33.107,33.106
											c18.284,0,33.103-14.821,33.103-33.106c0-18.203-14.69-32.978-32.866-33.106H80.509z"/>
									</defs>
									<use xlink:href="#SVGID_240_"  style="overflow:visible;fill:#FFFFFF;"/>
									<clipPath id="SVGID_3_">
										<use xlink:href="#SVGID_240_"  style="overflow:visible;"/>
									</clipPath>
									<defs>
										
											<filter id="Adobe_OpacityMaskFilter" filterUnits="userSpaceOnUse" x="47.642" y="31.694" width="66.212" height="66.213">
											<feColorMatrix  type="matrix" values="1 0 0 0 0  0 1 0 0 0  0 0 1 0 0  0 0 0 1 0"/>
										</filter>
									</defs>
									<mask maskUnits="userSpaceOnUse" x="47.642" y="31.694" width="66.212" height="66.213" id="SVGID_4_">
										<g style="filter:url(#Adobe_OpacityMaskFilter);">
											<rect x="47.642" y="31.696" style="clip-path:url(#SVGID_3_);" width="66.212" height="66.211"/>
											<g style="enable-background:new    ;">
												<rect x="47.642" y="31.696" style="clip-path:url(#SVGID_3_);" width="66.212" height="66.211"/>
												
													<radialGradient id="SVGID_5_" cx="-292.8292" cy="409.3564" r="0.9745" gradientTransform="matrix(33.9712 0 0 -33.9712 10028.5068 13971.1289)" gradientUnits="userSpaceOnUse">
													<stop  offset="0" style="stop-color:#FFFFFF"/>
													<stop  offset="0.005" style="stop-color:#FFFFFF"/>
													<stop  offset="0.2604" style="stop-color:#CAC9CA"/>
													<stop  offset="0.8432" style="stop-color:#474445"/>
													<stop  offset="1" style="stop-color:#231F20"/>
												</radialGradient>
												<rect x="47.642" y="31.696" style="clip-path:url(#SVGID_3_);fill:url(#SVGID_5_);" width="66.212" height="66.211"/>
											</g>
										</g>
									</mask>
									<g style="clip-path:url(#SVGID_3_);mask:url(#SVGID_4_);">
										<g>
											<defs>
												<rect id="SVGID_244_" x="47.642" y="31.696" width="66.212" height="66.211"/>
											</defs>
											<use xlink:href="#SVGID_244_"  style="overflow:visible;fill:#FFFFFF;"/>
											<clipPath id="SVGID_6_">
												<use xlink:href="#SVGID_244_"  style="overflow:visible;"/>
											</clipPath>
											<g style="clip-path:url(#SVGID_6_);">
												<defs>
													<rect id="SVGID_246_" x="47.642" y="31.694" width="66.212" height="66.212"/>
												</defs>
												<use xlink:href="#SVGID_246_"  style="overflow:visible;fill:#FFFFFF;"/>
												<clipPath id="SVGID_7_">
													<use xlink:href="#SVGID_246_"  style="overflow:visible;"/>
												</clipPath>
												<rect x="47.642" y="31.694" style="clip-path:url(#SVGID_7_);fill:#FFFFFF;" width="66.212" height="66.212"/>
											</g>
										</g>
									</g>
								</g>
							</g>
						</g>
						<g style="opacity:0.7;clip-path:url(#SVGID_1_);">
							<g>
								<defs>
									<rect id="SVGID_249_" x="93.947" y="103.167" width="32.173" height="32.172"/>
								</defs>
								<use xlink:href="#SVGID_249_"  style="overflow:visible;fill:#FFFFFF;"/>
								<clipPath id="SVGID_8_">
									<use xlink:href="#SVGID_249_"  style="overflow:visible;"/>
								</clipPath>
								<g style="clip-path:url(#SVGID_8_);">
									<defs>
										<path id="SVGID_251_" d="M93.947,119.252c0,8.884,7.201,16.088,16.086,16.088c8.885,0,16.088-7.203,16.088-16.088
											c0-8.884-7.202-16.084-16.088-16.084C101.148,103.168,93.947,110.368,93.947,119.252"/>
									</defs>
									<use xlink:href="#SVGID_251_"  style="overflow:visible;fill:#FFFFFF;"/>
									<clipPath id="SVGID_9_">
										<use xlink:href="#SVGID_251_"  style="overflow:visible;"/>
									</clipPath>
									<defs>
										
											<filter id="Adobe_OpacityMaskFilter_1_" filterUnits="userSpaceOnUse" x="93.947" y="103.167" width="32.173" height="32.172">
											<feColorMatrix  type="matrix" values="1 0 0 0 0  0 1 0 0 0  0 0 1 0 0  0 0 0 1 0"/>
										</filter>
									</defs>
									<mask maskUnits="userSpaceOnUse" x="93.947" y="103.167" width="32.173" height="32.172" id="SVGID_10_">
										<g style="filter:url(#Adobe_OpacityMaskFilter_1_);">
											<rect x="93.947" y="103.167" style="clip-path:url(#SVGID_9_);" width="32.175" height="32.172"/>
											<g style="enable-background:new    ;">
												<rect x="93.947" y="103.167" style="clip-path:url(#SVGID_9_);" width="32.175" height="32.172"/>
												
													<radialGradient id="SVGID_11_" cx="-290.5448" cy="411.9709" r="0.9741" gradientTransform="matrix(16.5142 0 0 -16.5142 4908.1499 6922.6235)" gradientUnits="userSpaceOnUse">
													<stop  offset="0" style="stop-color:#FFFFFF"/>
													<stop  offset="0.005" style="stop-color:#FFFFFF"/>
													<stop  offset="0.2604" style="stop-color:#CAC9CA"/>
													<stop  offset="0.8432" style="stop-color:#474445"/>
													<stop  offset="1" style="stop-color:#231F20"/>
												</radialGradient>
												<rect x="93.947" y="103.167" style="clip-path:url(#SVGID_9_);fill:url(#SVGID_11_);" width="32.175" height="32.172"/>
											</g>
										</g>
									</mask>
									<g style="clip-path:url(#SVGID_9_);mask:url(#SVGID_10_);">
										<g>
											<defs>
												<rect id="SVGID_255_" x="93.947" y="103.167" width="32.173" height="32.172"/>
											</defs>
											<use xlink:href="#SVGID_255_"  style="overflow:visible;fill:#FFFFFF;"/>
											<clipPath id="SVGID_12_">
												<use xlink:href="#SVGID_255_"  style="overflow:visible;"/>
											</clipPath>
											<g style="clip-path:url(#SVGID_12_);">
												<defs>
													<rect id="SVGID_257_" x="93.947" y="103.168" width="32.173" height="32.172"/>
												</defs>
												<use xlink:href="#SVGID_257_"  style="overflow:visible;fill:#FFFFFF;"/>
												<clipPath id="SVGID_13_">
													<use xlink:href="#SVGID_257_"  style="overflow:visible;"/>
												</clipPath>
												<rect x="93.947" y="103.168" style="clip-path:url(#SVGID_13_);fill:#FFFFFF;" width="32.173" height="32.172"/>
											</g>
										</g>
									</g>
								</g>
							</g>
						</g>
					</g>
					<path style="fill:#FFFFFF;" d="M130.186,77.947c0,0,8.271,14.497-3.277,30.4c0,0-12.861,16.36-27.395,6.333l-0.341-0.178
						c0,0,13.305-0.347,15.918-15.557c0,0,2.423-10.627-7.778-17.035l0.082-0.068L130.186,77.947"/>
					<g>
						<defs>
							<path id="SVGID_284_" d="M107.356,81.842l-0.08,0.067c10.203,6.412,7.778,17.036,7.778,17.036
								C112.44,114.156,99.139,114.5,99.139,114.5l0.339,0.18c14.536,10.026,27.392-6.332,27.392-6.332
								c11.726-15.948,3.28-30.401,3.28-30.401L107.356,81.842z"/>
						</defs>
						<use xlink:href="#SVGID_284_"  style="overflow:visible;fill:#FFFFFF;"/>
						<clipPath id="SVGID_14_">
							<use xlink:href="#SVGID_284_"  style="overflow:visible;"/>
						</clipPath>
						<g style="opacity:0.3;clip-path:url(#SVGID_14_);">
							<g>
								<defs>
									<rect id="SVGID_286_" x="102.807" y="87.931" width="39.217" height="39.215"/>
								</defs>
								<use xlink:href="#SVGID_286_"  style="overflow:visible;fill:#FFFFFF;"/>
								<clipPath id="SVGID_15_">
									<use xlink:href="#SVGID_286_"  style="overflow:visible;"/>
								</clipPath>
								<g style="clip-path:url(#SVGID_15_);">
									<defs>
										<circle id="SVGID_288_" cx="122.416" cy="107.538" r="19.609"/>
									</defs>
									<use xlink:href="#SVGID_288_"  style="overflow:visible;fill:#FFFFFF;"/>
									<clipPath id="SVGID_16_">
										<use xlink:href="#SVGID_288_"  style="overflow:visible;"/>
									</clipPath>
									<defs>
										
											<filter id="Adobe_OpacityMaskFilter_2_" filterUnits="userSpaceOnUse" x="102.807" y="87.929" width="39.217" height="39.217">
											<feColorMatrix  type="matrix" values="1 0 0 0 0  0 1 0 0 0  0 0 1 0 0  0 0 0 1 0"/>
										</filter>
									</defs>
									<mask maskUnits="userSpaceOnUse" x="102.807" y="87.929" width="39.217" height="39.217" id="SVGID_17_">
										<g style="filter:url(#Adobe_OpacityMaskFilter_2_);">
											<rect x="102.807" y="87.931" style="clip-path:url(#SVGID_16_);" width="39.217" height="39.215"/>
											<g style="enable-background:new    ;">
												<rect x="102.807" y="87.931" style="clip-path:url(#SVGID_16_);" width="39.217" height="39.215"/>
												
													<radialGradient id="SVGID_18_" cx="-291.3917" cy="411.0312" r="0.9745" gradientTransform="matrix(20.1212 0 0 -20.1212 5985.5669 8377.9805)" gradientUnits="userSpaceOnUse">
													<stop  offset="0" style="stop-color:#FFFFFF"/>
													<stop  offset="0.005" style="stop-color:#FFFFFF"/>
													<stop  offset="0.2604" style="stop-color:#CAC9CA"/>
													<stop  offset="0.8432" style="stop-color:#474445"/>
													<stop  offset="1" style="stop-color:#231F20"/>
												</radialGradient>
												
													<rect x="102.807" y="87.931" style="clip-path:url(#SVGID_16_);fill:url(#SVGID_18_);" width="39.217" height="39.215"/>
											</g>
										</g>
									</mask>
									<g style="clip-path:url(#SVGID_16_);mask:url(#SVGID_17_);">
										<g>
											<defs>
												<rect id="SVGID_292_" x="102.807" y="87.931" width="39.217" height="39.215"/>
											</defs>
											<use xlink:href="#SVGID_292_"  style="overflow:visible;fill:#FFFFFF;"/>
											<clipPath id="SVGID_19_">
												<use xlink:href="#SVGID_292_"  style="overflow:visible;"/>
											</clipPath>
											<g style="clip-path:url(#SVGID_19_);">
												<defs>
													<rect id="SVGID_294_" x="102.807" y="87.929" width="39.217" height="39.217"/>
												</defs>
												<use xlink:href="#SVGID_294_"  style="overflow:visible;fill:#FFFFFF;"/>
												<clipPath id="SVGID_20_">
													<use xlink:href="#SVGID_294_"  style="overflow:visible;"/>
												</clipPath>
												<rect x="102.807" y="87.929" style="clip-path:url(#SVGID_20_);fill:#FFFFFF;" width="39.217" height="39.217"/>
											</g>
										</g>
									</g>
								</g>
							</g>
						</g>
					</g>
				</g>
			</g>
		</g>
	</g>
</g>
<g id="Layer_1">
</g>
</svg>
