<?xml version="1.0" encoding="iso-8859-1"?>
<!-- Generator: Adobe Illustrator 19.2.0, SVG Export Plug-In . SVG Version: 6.00 Build 0)  -->
<svg version="1.1" xmlns="http://www.w3.org/2000/svg" xmlns:xlink="http://www.w3.org/1999/xlink" x="0px" y="0px"
	 viewBox="0 0 200 200" style="enable-background:new 0 0 200 200;" xml:space="preserve">
<g id="HGTV">
	<g>
		<polygon style="fill:#FFFFFF;" points="136.486,94.754 71.138,52.333 5.789,94.754 		"/>
		<polygon style="fill:#FFFFFF;" points="5.81,98.134 22.378,98.134 22.378,115.62 37.938,115.62 37.938,98.134 54.509,98.134 
			54.509,147.723 37.938,147.723 37.938,129.92 22.378,129.92 22.378,147.723 5.81,147.723 		"/>
		<path style="fill:#FFFFFF;" d="M56.646,123.054v-0.142c0-14.795,11.68-25.842,27.329-25.842c8.494,0,15.832,2.833,21.213,7.503
			l-9.275,11.188c-3.255-2.758-6.865-3.849-10.971-3.849c-6.442,0-10.645,4.487-10.645,11.21v0.142
			c0,7.014,5.182,11.358,11.352,11.358c2.831,0,4.39-0.665,5.663-1.37v-3.329h-8.496v-11.546h24.002v22.941
			c-5.381,4.391-13.356,7.433-22.348,7.433C69.034,148.753,56.646,138.418,56.646,123.054"/>
		<polygon style="fill:#FFFFFF;" points="176.409,98.134 166.781,125.992 157.155,98.134 106.905,98.134 106.905,112.035 
			120.074,112.035 120.074,147.717 136.634,147.717 136.634,112.035 144.259,112.035 158.715,147.717 174.565,147.717 
			194.667,98.134 		"/>
	</g>
</g>
<g id="Layer_1">
</g>
</svg>
