<?xml version="1.0" encoding="iso-8859-1"?>
<!-- Generator: Adobe Illustrator 19.2.0, SVG Export Plug-In . SVG Version: 6.00 Build 0)  -->
<svg version="1.1" xmlns="http://www.w3.org/2000/svg" xmlns:xlink="http://www.w3.org/1999/xlink" x="0px" y="0px"
	 viewBox="0 0 200 200" style="enable-background:new 0 0 200 200;" xml:space="preserve">
<g id="HISTORY">
	<g>
		<g>
			<path style="fill:#FFFFFF;" d="M43.153,144.461h5.382v6.7h5.333v-6.7h5.383v17.649h-5.383v-7.027h-5.333v7.027h-5.382V144.461z"
				/>
			<path style="fill:#FFFFFF;" d="M62.914,144.461h5.383v17.649h-5.383V144.461z"/>
			<path style="fill:#FFFFFF;" d="M83.05,149.34c-1.046-1.12-2.293-1.565-3.937-1.565c-1.346,0-2.268,0.445-2.268,1.262
				c0,2.848,10.342,0.326,10.342,7.518c0,2.917-2.493,5.883-7.999,5.883c-3.364,0-6.33-0.748-8.323-3.431l3.24-2.358
				c1.171,1.354,2.816,2.148,4.735,2.148c2.118,0,2.965-0.771,2.965-1.541c0-2.685-10.192-0.631-10.192-7.309
				c0-3.455,3.065-5.812,7.576-5.812c2.641,0,5.333,0.747,7.003,2.777L83.05,149.34z"/>
			<path style="fill:#FFFFFF;" d="M93.042,148.242h-5.183v-3.78h15.749v3.78h-5.184v13.869h-5.382V148.242z"/>
			<path style="fill:#FFFFFF;" d="M113.227,162.438c-5.607,0-8.996-3.525-8.996-9.152s3.389-9.152,8.996-9.152
				c5.607,0,8.996,3.525,8.996,9.152S118.834,162.438,113.227,162.438z M109.914,153.286c0,4.739,1.47,5.651,3.313,5.651
				c1.82,0,3.314-0.911,3.314-5.651c0-4.483-1.22-5.649-3.314-5.649C111.06,147.637,109.914,149.014,109.914,153.286z"/>
			<path style="fill:#FFFFFF;" d="M124.441,144.461h9.021c6.28,0,7.501,2.802,7.501,5.089c0,2.195-1.471,3.665-3.562,4.436
				l3.513,8.124h-5.98l-2.667-7.237h-2.442v7.237h-5.384V144.461z M129.825,151.511h2.791c1.544,0,2.667-0.63,2.667-1.774
				c0-1.12-0.774-1.915-2.443-1.915h-3.015V151.511z"/>
			<path style="fill:#FFFFFF;" d="M147.617,154.616l-6.828-10.155h6.105l3.938,6l3.763-6h4.885l-6.48,9.736v7.913h-5.382V154.616z"
				/>
		</g>
	</g>
	<polygon style="fill:#FFFFFF;" points="157.325,140.149 152.592,135.3 50.043,135.3 45.288,140.149 	"/>
	<g>
		<path style="fill:#FFFFFF;" d="M156.289,162.11h-0.248v-1.766h-0.564v-0.217h1.376v0.217h-0.563V162.11z"/>
		<path style="fill:#FFFFFF;" d="M159.033,162.11h-0.248v-1.732h-0.012l-0.628,1.732h-0.167l-0.642-1.732h-0.013v1.732h-0.208
			v-1.983h0.371l0.599,1.588l0.584-1.588h0.363V162.11z"/>
	</g>
	<path style="fill:#FFFFFF;" d="M54.015,131.041h43.61l-0.014-0.014h0.014l-10.019-10.331V89.656l0.004,0.004l27.457,0v31.036
		l-10.033,10.345h43.61l-0.014-0.015h0.014l-10.087-10.334V50.678l9.975-10.278h-43.287l9.836,10.247v19.41H87.624l-0.018-19.41
		L97.461,40.4H54.159h-0.004h-0.014l9.974,10.278v70.015L54.015,131.041z M137.984,50.121l-0.226,0.232v0.324v70.015v0.325
		l0.227,0.233l8.688,8.901l-19.743-8.827l-0.001-71.921v0l-19.773-8.205h39.487L137.984,50.121z M95.584,41.199l-8.553,8.894
		l-0.223,0.232l0,0.322l0.018,19.41l0.001,0.798h0.798h27.456h0.799l11.05,7.238H75.766l11.041,10.782v0.766v31.053v0.324
		l0.225,0.233l8.648,8.917l-19.916-8.845l0.001-43.23h0h-0.001l0.001-28.691l-19.689-8.205H95.584z"/>
</g>
<g id="Layer_1">
</g>
</svg>
