<?xml version="1.0" encoding="iso-8859-1"?>
<!-- Generator: Adobe Illustrator 19.2.0, SVG Export Plug-In . SVG Version: 6.00 Build 0)  -->
<svg version="1.1" xmlns="http://www.w3.org/2000/svg" xmlns:xlink="http://www.w3.org/1999/xlink" x="0px" y="0px"
	 viewBox="0 0 200 200" style="enable-background:new 0 0 200 200;" xml:space="preserve">
<g id="IFCHD">
	<path style="fill:#FFFFFF;" d="M178.678,106.126l-12.402-9.819c0,0-0.011-0.006-0.026-0.015c-0.134-0.108-0.287-0.197-0.46-0.26
		c-0.475-0.171-17.838-5.3-18.139-5.397c-0.894-0.283-1.616-0.035-2.149,0.737l-0.025,0.036c-2.329,3.291-4.58,4.89-7.767,5.519
		c0.103-0.912,0.234-1.606,0.234-1.606c0.922-5.496,5.266-9.896,9.937-10.814c2.813-0.556,4.88-0.157,6.722,1.1
		c0.022,0.019,1.167,0.919,1.172,0.924c0.224,0.205,0.756,0.547,1.395,0.043l18.136-14.357l-0.001-0.001
		c0.207-0.173,0.339-0.432,0.339-0.723c0-0.207-0.067-0.397-0.18-0.552l0.001-0.001l-0.163-0.219
		c-1.542-2.075-6.934-6.152-13.177-10.873c-0.671-0.507-1.356-1.026-2.045-1.548c-2.803-2.353-6.177-4.1-9.838-5.079
		c-4.442-1.188-9.247-1.286-14.281-0.293c-9.658,1.907-17.778,6.611-23.483,13.604c-0.693,0.849-1.344,1.729-1.956,2.635
		l-10.005-7.889l-0.001,0.002c-0.307-0.229-0.687-0.366-1.098-0.366c-0.116,0-0.236,0.012-0.357,0.035l-42.103,6.887
		c-0.002,0-0.005,0.001-0.007,0.001c-0.889,0.153-1.534,0.918-1.534,1.818v6.052l-7.368-5.81L48.045,69.9
		C47.729,69.65,47.332,69.5,46.9,69.5c-0.096,0-0.195,0.009-0.295,0.026c-0.026,0.003-21.997,3.606-21.997,3.606
		c-0.032,0.005-0.063,0.012-0.093,0.02c-0.839,0.188-1.44,0.932-1.44,1.799c0,0,0,62.196,0.001,62.209
		c0.023,0.528,0.266,0.993,0.635,1.314l11.747,9.322l0.001,0c0.16,0.127,0.362,0.203,0.583,0.203c0.067,0,27.673-4.52,27.673-4.52
		c0.448-0.079,0.788-0.468,0.788-0.939v-3.788l4.49,3.568l0,0c0.322,0.252,0.669,0.194,0.669,0.194l21.663-3.542
		c0.454-0.074,0.8-0.466,0.8-0.941v-12.124c0.012-0.209,0.155-0.383,0.349-0.44l19.557-3.203v0c0.452-0.075,0.798-0.467,0.798-0.941
		v-4.835c7.463,7.235,18.293,12.227,18.302,12.228c5.294,2.529,11.78,3.193,18.92,1.773c12.881-2.564,22.987-12.013,28.039-21.843
		l0.015-0.005c0.121-0.23,0.228-0.456,0.344-0.686C178.713,107.431,179.188,106.541,178.678,106.126z M47.871,133.512
		c0,0.466-0.334,0.854-0.776,0.937l0,0l-21.962,3.591c-0.065,0.014-0.133,0.022-0.203,0.022c-0.514,0-0.931-0.406-0.952-0.914
		l-0.002-62.19c0-0.47,0.339-0.859,0.786-0.938l0,0l21.997-3.607c0.052-0.009,0.104-0.014,0.158-0.014
		c0.527,0,0.955,0.428,0.955,0.954V133.512z M100.403,81.974c0,0.478-0.353,0.873-0.812,0.942l0,0l-19.482,3.19l0.003,0.007
		c-0.269,0-0.487,0.218-0.487,0.487l-0.002-0.001v8.137l0.002-0.001c0,0.269,0.219,0.487,0.487,0.487l-0.002,0.005
		c0,0,16.43-2.696,16.504-2.696c0.527,0,0.954,0.427,0.954,0.954v18.894c0,0.475-0.347,0.867-0.801,0.941l-16.658,2.72l0.003,0.008
		c-0.242,0-0.442,0.177-0.479,0.409v11.868c0,0.496-0.379,0.904-0.863,0.95c0,0-21.382,3.507-21.488,3.507
		c-0.527,0-0.955-0.427-0.955-0.954V69.661c0-0.471,0.342-0.862,0.792-0.939l42.13-6.891c0.065-0.014,0.131-0.021,0.2-0.021
		c0.527,0,0.954,0.427,0.954,0.955V81.974z M165.473,98.859c-4.997,9.94-14.896,19.208-27.912,21.799
		c-18.349,3.65-32.418-6.408-32.87-26.746l-0.004-0.183c-0.435-21.524,12.68-36.224,31.527-39.946
		c12.037-2.376,21.651,1.882,27.008,9.095c0.678,0.908,0.602,1.421,0.081,1.856c-0.522,0.437-16.106,13.38-16.743,13.882
		c-0.639,0.503-1.172,0.161-1.395-0.042c-2.148-1.986-4.472-2.701-7.894-2.024c-5.523,1.086-10.282,7.152-10.114,13.119l0.005,0.119
		c0.172,6.144,5.198,9.101,10.724,8.008c3.835-0.755,6.168-2.834,8.323-5.879c0.154-0.218,0.416-0.685,1.187-0.439
		c0.768,0.249,17.3,5.094,18.112,5.388C166.323,97.161,165.765,98.28,165.473,98.859z"/>
</g>
<g id="Layer_1">
</g>
</svg>
