<?xml version="1.0" encoding="iso-8859-1"?>
<!-- Generator: Adobe Illustrator 19.2.0, SVG Export Plug-In . SVG Version: 6.00 Build 0)  -->
<svg version="1.1" xmlns="http://www.w3.org/2000/svg" xmlns:xlink="http://www.w3.org/1999/xlink" x="0px" y="0px"
	 viewBox="0 0 200 200" style="enable-background:new 0 0 200 200;" xml:space="preserve">
<g id="LIFEHD">
	<g>
		<g>
			<path style="fill:#FFFFFF;" d="M48.093,152.863V131.29h2.093c1.597,0,2.379,0.563,2.379,1.314l0.005,16.282h7.953v3.977H48.093z
				 M62.027,132.855c0,1.315,1.033,2.348,2.348,2.348c1.315,0,2.38-1.033,2.38-2.348s-1.065-2.38-2.38-2.38
				C63.06,130.475,62.027,131.54,62.027,132.855z M62.277,152.863v-15.812h1.848c1.596,0,2.379,0.564,2.379,1.315v14.497H62.277z
				 M68.947,152.863h4.227v-12.212h3.194v-3.601h-3.194v-0.689c0-1.471,0.658-2.505,2.38-2.505c0.72,0,1.065,0.094,1.315,0.094
				c0.407,0,0.658-0.188,0.658-0.563v-2.504c-0.845-0.157-1.753-0.283-2.661-0.283c-3.851,0-5.918,1.942-5.918,5.949V152.863z
				 M89.895,146.476c1.283,0,2.035-0.877,2.035-2.661c0-3.695-2.849-7.045-7.64-7.045c-4.947,0-7.859,3.663-7.859,8.235
				c0,4.571,3.475,8.142,7.953,8.142c2.724,0,5.073-1.033,6.795-3.007l-1.91-1.785c-0.313-0.281-0.783-0.281-1.252,0.031
				c-1.127,0.752-2.192,1.095-3.445,1.095c-1.941,0-3.412-1.22-3.757-3.005H89.895z M80.846,143.376
				c0.344-1.629,1.346-3.006,3.444-3.006c2.161,0,3.288,1.378,3.538,3.006H80.846z M97.629,140.651h4.352v-3.601h-4.352v-4.447
				c0-0.751-0.783-1.314-2.38-1.314h-1.847v15.906c0,4.007,2.067,5.949,5.918,5.949c0.908,0,1.817-0.126,2.661-0.283v-2.505
				c0-0.375-0.251-0.563-0.657-0.563c-0.25,0-0.595,0.093-1.315,0.093c-1.722,0-2.379-1.033-2.379-2.505V140.651z M103.671,132.855
				c0,1.315,1.034,2.348,2.349,2.348c1.315,0,2.379-1.033,2.379-2.348s-1.065-2.38-2.379-2.38
				C104.705,130.475,103.671,131.54,103.671,132.855z M103.922,152.863v-15.812h1.847c1.598,0,2.381,0.564,2.381,1.315v14.497
				H103.922z M114.662,139.055c1.189-1.471,2.786-2.285,4.696-2.285c2.005,0,3.633,0.907,4.541,2.536
				c1.316-1.597,3.069-2.536,5.198-2.536c3.381,0,5.511,2.129,5.511,5.949v10.145h-4.227v-9.394c0-1.721-0.908-2.818-2.567-2.818
				c-1.91,0-3.1,1.315-3.1,3.351v8.861h-4.226v-9.394c0-1.721-0.909-2.818-2.568-2.818c-1.91,0-3.1,1.315-3.1,3.351v8.861h-4.227
				v-15.812h1.691c1.597,0,2.38,0.564,2.38,1.315V139.055z M149.575,146.476c1.284,0,2.035-0.877,2.035-2.661
				c0-3.695-2.85-7.045-7.64-7.045c-4.947,0-7.859,3.663-7.859,8.235c0,4.571,3.475,8.142,7.952,8.142
				c2.725,0,5.074-1.033,6.796-3.007l-1.91-1.785c-0.313-0.281-0.783-0.281-1.253,0.031c-1.127,0.752-2.192,1.095-3.443,1.095
				c-1.942,0-3.414-1.22-3.758-3.005H149.575z M140.525,143.376c0.345-1.629,1.348-3.006,3.445-3.006
				c2.161,0,3.287,1.378,3.538,3.006H140.525z"/>
		</g>
		<g>
			<path style="fill:#FFFFFF;" d="M99.937,44.938c-21.646,0-39.198,17.552-39.198,39.204c0,21.641,17.552,39.186,39.198,39.186
				c21.646,0,39.192-17.546,39.192-39.186C139.129,62.49,121.583,44.938,99.937,44.938z M97.744,85.454
				c-1.423,5.075-2.87,10.319-2.905,15.218c-0.041,4.626,1.178,9.105,4.853,12.698c-13.305-0.309-26.674-11.666-26.674-29.346
				c0-16.402,10.114-25.449,17.464-25.449c6.375,0,10.342,4.416,10.342,12.074C100.824,74.844,99.138,80.467,97.744,85.454z
				 M109.626,112.415c-4.678,0-8.47-3.791-8.47-8.47s3.791-8.47,8.47-8.47c4.678,0,8.47,3.791,8.47,8.47
				S114.304,112.415,109.626,112.415z"/>
		</g>
		<g id="Copyright_3_">
			<path style="fill:#FFFFFF;" d="M152.316,151.199c0.074-0.167,0.174-0.312,0.301-0.436c0.126-0.122,0.274-0.219,0.442-0.289
				c0.168-0.07,0.347-0.105,0.536-0.105c0.189,0,0.367,0.035,0.535,0.105c0.167,0.07,0.313,0.167,0.439,0.289
				c0.126,0.123,0.225,0.268,0.298,0.436c0.074,0.167,0.111,0.347,0.111,0.542c0,0.199-0.037,0.383-0.111,0.551
				c-0.073,0.169-0.173,0.315-0.298,0.439c-0.126,0.124-0.271,0.221-0.439,0.29c-0.168,0.069-0.346,0.103-0.535,0.103
				c-0.189,0-0.368-0.034-0.536-0.103c-0.169-0.069-0.316-0.166-0.442-0.29c-0.127-0.124-0.227-0.27-0.301-0.439
				c-0.074-0.168-0.111-0.352-0.111-0.551C152.205,151.547,152.242,151.366,152.316,151.199z M152.542,152.211
				c0.058,0.144,0.138,0.269,0.24,0.375c0.102,0.105,0.223,0.189,0.361,0.249c0.139,0.06,0.29,0.091,0.452,0.091
				c0.16,0,0.309-0.031,0.446-0.091c0.138-0.06,0.257-0.144,0.36-0.249c0.102-0.106,0.182-0.231,0.24-0.375
				c0.058-0.144,0.086-0.3,0.086-0.47c0-0.165-0.028-0.319-0.086-0.461c-0.058-0.143-0.138-0.266-0.24-0.371
				c-0.102-0.105-0.222-0.187-0.36-0.247c-0.138-0.06-0.286-0.09-0.446-0.09c-0.162,0-0.312,0.03-0.452,0.09
				c-0.139,0.06-0.259,0.142-0.361,0.247c-0.102,0.105-0.182,0.228-0.24,0.371c-0.058,0.142-0.087,0.296-0.087,0.461
				C152.456,151.911,152.485,152.067,152.542,152.211z M153.68,150.941c0.192,0,0.334,0.038,0.426,0.115
				c0.092,0.076,0.138,0.191,0.138,0.346c0,0.145-0.041,0.252-0.122,0.319c-0.081,0.068-0.182,0.108-0.302,0.12l0.461,0.712h-0.269
				l-0.439-0.694h-0.266v0.694h-0.251v-1.612H153.68z M153.57,151.656c0.056,0,0.11-0.002,0.16-0.005
				c0.05-0.004,0.095-0.014,0.134-0.031c0.039-0.017,0.071-0.044,0.094-0.079c0.023-0.036,0.035-0.086,0.035-0.15
				c0-0.054-0.01-0.097-0.031-0.129c-0.021-0.032-0.048-0.057-0.081-0.074c-0.033-0.018-0.072-0.029-0.115-0.036
				c-0.043-0.006-0.085-0.009-0.127-0.009h-0.332v0.512H153.57z"/>
		</g>
	</g>
</g>
<g id="Layer_1">
</g>
</svg>
