<?xml version="1.0" encoding="utf-8"?>
<!-- Generator: Adobe Illustrator 19.1.0, SVG Export Plug-In . SVG Version: 6.00 Build 0)  -->
<!DOCTYPE svg PUBLIC "-//W3C//DTD SVG 1.1//EN" "http://www.w3.org/Graphics/SVG/1.1/DTD/svg11.dtd">
<svg version="1.1" id="Layer_1" xmlns="http://www.w3.org/2000/svg" xmlns:xlink="http://www.w3.org/1999/xlink" x="0px" y="0px"
	 viewBox="0 0 800 800" style="enable-background:new 0 0 800 800;" xml:space="preserve">
<style type="text/css">
	.st0{fill:#FFFFFF;}
</style>
<g>
	<rect x="36" y="84" class="st0" width="52" height="319"/>
	<path class="st0" d="M132.8,378.8c9.9,9.3,21.6,16.5,35.2,21.6c13.6,5.1,28,7.6,43.3,7.6c15.3,0,29.7-2.5,43.3-7.6
		c13.6-5.1,25.3-12.3,35.2-21.6c9.9-9.3,17.7-20.6,23.5-33.7c5.8-13.2,8.7-27.8,8.7-43.9c0-16.1-2.9-30.8-8.7-43.9
		c-5.8-13.2-13.6-24.4-23.5-33.7c-9.9-9.3-21.6-16.5-35.2-21.6c-13.6-5.1-28-7.6-43.3-7.6c-15.3,0-29.7,2.5-43.3,7.6
		c-13.6,5.1-25.3,12.3-35.2,21.6s-17.7,20.6-23.5,33.7c-5.8,13.2-8.7,27.8-8.7,43.9c0,16.1,2.9,30.8,8.7,43.9
		C115,358.2,122.9,369.5,132.8,378.8z M155.5,278.3c2.7-7.4,6.6-13.9,11.9-19.5c5.2-5.7,11.5-10.2,18.9-13.6
		c7.4-3.4,15.7-5.1,25-5.1c9.3,0,17.7,1.7,25,5.1c7.4,3.4,13.6,7.9,18.9,13.6c5.2,5.7,9.2,12.2,11.9,19.5c2.7,7.4,4,15,4,22.9
		c0,7.9-1.3,15.6-4,22.9c-2.7,7.4-6.6,13.9-11.9,19.5c-5.2,5.7-11.5,10.2-18.9,13.6c-7.4,3.4-15.7,5.1-25,5.1
		c-9.3,0-17.7-1.7-25-5.1c-7.4-3.4-13.6-7.9-18.9-13.6c-5.2-5.7-9.2-12.2-11.9-19.5c-2.7-7.4-4-15-4-22.9
		C151.4,293.3,152.8,285.6,155.5,278.3z"/>
	<path class="st0" d="M366.1,378.8c9.9,9.3,21.6,16.5,35.2,21.6c13.6,5.1,28,7.6,43.3,7.6c4.5,0,9.9-0.5,16.1-1.5
		c6.2-1,12.7-2.6,19.5-4.9c6.8-2.3,13.5-5.2,20.1-8.9c6.6-3.7,12.5-8.1,17.6-13.2L484,343.2c-4.8,6.2-10.6,11-17.4,14.2
		c-6.8,3.3-14.1,4.9-22.1,4.9c-9.3,0-17.7-1.7-25-5.1c-7.4-3.4-13.6-7.9-18.9-13.6c-5.2-5.7-9.2-12.2-11.9-19.5
		c-2.7-7.4-4-15-4-22.9c0-7.9,1.3-15.6,4-22.9c2.7-7.4,6.6-13.9,11.9-19.5c5.2-5.7,11.5-10.2,18.9-13.6c7.4-3.4,15.7-5.1,25-5.1
		c6.8,0,13.4,1.8,19.9,5.5c6.5,3.7,12.7,8.6,18.7,14.8l35.2-35.2c-9.9-10.7-21.4-18.6-34.6-23.5c-13.1-4.9-26.2-7.4-39.2-7.4
		c-15.3,0-29.7,2.5-43.3,7.6c-13.6,5.1-25.3,12.3-35.2,21.6c-9.9,9.3-17.8,20.6-23.5,33.7c-5.8,13.2-8.7,27.8-8.7,43.9
		c0,16.1,2.9,30.8,8.7,43.9C348.3,358.2,356.2,369.5,366.1,378.8z"/>
	<path class="st0" d="M550.5,392.8c6.9,5.1,14.8,8.9,23.8,11.5c8.9,2.5,18,3.8,27.4,3.8c13.6,0,26-2.1,37.3-7.3
		c11.3-5.2,20.6-12.7,28-24.7h2.1v27h45V285.9c0-4.8-0.2-10.4-0.4-16.8c-0.3-6.4-1.3-12.9-2.8-19.7c-1.6-6.8-4.1-13.5-7.6-20.1
		c-3.5-6.6-8.5-12.5-15-17.6c-6.5-5.1-14.7-9.3-24.6-12.5c-9.9-3.2-22.1-4.9-36.5-4.9c-16.1,0-31.7,2.5-46.9,7.6
		c-15.1,5.1-28.4,13.4-39.7,25l26.7,26.7c6.8-6.5,14.8-11.7,24.2-15.5c9.3-3.8,19.4-5.7,30.1-5.7c13.6,0,25.2,3.2,33.9,9.5
		c8.8,6.4,13.6,15.9,13.6,28.6v6.4h-13.6c-8.5,0-17.5-0.2-27.1,0.2c-9.6,0.4-19.2,1.2-28.6,2.8c-9.5,1.6-18.6,3.8-27.4,6.9
		c-8.8,3.1-16.5,7.2-23.1,12.5c-6.6,5.2-12,11.7-15.9,19.5c-4,7.8-5.9,17.2-5.9,28.2c0,10.2,2.1,19.1,6.4,26.7
		C537.9,381.4,543.5,387.7,550.5,392.8z M586.3,326c5.4-4.1,11.9-7.2,19.7-9.3c7.8-2.1,16-3.9,24.8-4.4c8.8-0.6,16.7-1.2,23.8-1.2
		H666v12.2c0,14.4-4.6,25.8-12.9,34.1c-8.3,8.3-21.5,12.5-39,12.5c-4.2,0-8.6-0.5-12.8-1.5c-4.2-1-8.1-2.6-11.5-4.9
		c-3.4-2.3-6.2-5-8.3-8.3c-2.1-3.2-3.2-7.3-3.2-12.1C578.3,335.8,580.9,330.1,586.3,326z"/>
	<rect x="728" y="84" class="st0" width="50" height="319"/>
	<path class="st0" d="M307.1,465.5c-5.6,6.1-9.9,13-12.7,20.9c-2.9,7.9-4.3,16.1-4.3,24.6c0,8.5,1.4,16.7,4.3,24.6
		c2.9,7.9,7.1,14.9,12.7,20.9c5.6,6.1,12.4,10.9,20.2,14.6c7.9,3.6,16.8,5.5,26.8,5.5c10,0,19-1.8,26.8-5.5
		c7.9-3.6,14.6-8.5,20.3-14.6c5.6-6.1,9.8-13,12.7-20.9c2.9-7.9,4.3-16.1,4.3-24.6c0-8.5-1.4-16.7-4.3-24.6
		c-2.9-7.9-7.1-14.9-12.7-20.9c-5.6-6.1-12.4-10.9-20.3-14.6c-7.9-3.6-16.8-5.5-26.8-5.5c-10,0-19,1.8-26.8,5.5
		C319.4,454.6,312.7,459.4,307.1,465.5z"/>
	<polygon class="st0" points="695.7,558 696.6,558 731.8,438 659.1,438 	"/>
	<polygon class="st0" points="544.2,558 545.1,558 579.3,438 507.6,438 	"/>
	<path class="st0" d="M723,622l55-168v208H36v-40h57V501c0-7.3,0-14.3,1.9-20.9c1.8-6.7,4.4-12.6,8.5-17.7c4.1-5.2,9-9.2,15.2-12.3
		c6.2-3,13.7-4.5,22.8-4.5c26.1,0,35.1,20.9,37,43.9c0.6,7.4-0.3,14.2-0.3,20.2V622h55v-98.6c6,12.5,5.5,24,10.2,34.7
		c6.2,14.1,15.6,26.2,26.2,36.2c10.6,10,23.5,17.7,38,23.2c14.6,5.5,30.2,8.2,46.6,8.2c16.4,0,31.9-2.7,46.5-8.2
		c14.6-5.5,27.2-13.2,37.8-23.2c10.6-10,19-22.1,25.3-36.2c6.2-14.1,9.3-30,9.3-47.2c0-3.1-0.1-4.8-0.3-7.8L513.7,622h56.4l46-151
		h0.9l51.9,151H723z"/>
</g>
</svg>
