<?xml version="1.0" encoding="iso-8859-1"?>
<!-- Generator: Adobe Illustrator 19.2.0, SVG Export Plug-In . SVG Version: 6.00 Build 0)  -->
<svg version="1.1" xmlns="http://www.w3.org/2000/svg" xmlns:xlink="http://www.w3.org/1999/xlink" x="0px" y="0px"
	 viewBox="0 0 200 200" style="enable-background:new 0 0 200 200;" xml:space="preserve">
<g id="MAKER">
	<g>
		<path id="_x38__2_" style="fill:#FFFFFF;" d="M145.294,151.626c-1.65,0-2.989,1.338-2.989,2.99c0,1.649,1.339,2.988,2.989,2.988
			c1.65,0,2.989-1.339,2.989-2.988C148.283,152.964,146.944,151.626,145.294,151.626z M145.294,157.12
			c-1.383-0.003-2.503-1.121-2.504-2.504c0.001-1.382,1.121-2.502,2.504-2.505c1.383,0.003,2.501,1.122,2.504,2.505
			C147.795,155.998,146.677,157.117,145.294,157.12z M146.119,154.98c-0.089-0.096-0.201-0.182-0.338-0.262
			c0.274-0.04,0.48-0.136,0.617-0.29c0.138-0.151,0.206-0.345,0.206-0.579c0-0.184-0.044-0.348-0.136-0.492
			c-0.09-0.143-0.212-0.243-0.363-0.299c-0.151-0.056-0.393-0.083-0.727-0.083h-1.326v3.12h0.631v-1.304h0.127
			c0.145,0,0.25,0.012,0.318,0.036c0.066,0.023,0.129,0.066,0.189,0.13c0.06,0.063,0.17,0.216,0.333,0.459l0.455,0.679h0.754
			l-0.381-0.609C146.328,155.244,146.207,155.075,146.119,154.98z M145.149,154.294h-0.466v-0.792h0.491
			c0.255,0,0.41,0.004,0.46,0.011c0.102,0.016,0.181,0.057,0.238,0.122c0.055,0.065,0.083,0.149,0.083,0.254
			c0,0.093-0.021,0.172-0.064,0.235c-0.043,0.063-0.101,0.106-0.176,0.131C145.64,154.281,145.451,154.294,145.149,154.294z"/>
		<rect x="55.117" y="41.333" style="fill:#FFFFFF;" width="24.592" height="83.634"/>
		<rect x="113.902" y="41.333" style="fill:#FFFFFF;" width="24.591" height="83.634"/>
		<rect x="84.507" y="41.333" style="fill:#FFFFFF;" width="24.593" height="83.634"/>
		<polygon style="fill:#FFFFFF;" points="70.158,157.514 70.158,139.172 69.133,144.678 66.436,157.514 62.866,157.514 
			60.322,144.678 59.335,139.172 59.335,157.514 55.119,157.514 55.119,132.223 61.461,132.223 64.081,145.059 64.879,149.729 
			65.714,145.059 68.297,132.223 74.601,132.223 74.601,157.514 		"/>
		<path style="fill:#FFFFFF;" d="M87.227,157.514l-0.835-4.974h-4.481l-0.912,4.974h-4.405l5.089-25.291h5.279l5.05,25.291H87.227z
			 M84.266,139.058l-1.708,9.76h3.227L84.266,139.058z"/>
		<polygon style="fill:#FFFFFF;" points="103.881,157.514 100.387,147.109 98.754,150.451 98.754,157.514 94.044,157.514 
			94.044,132.223 98.754,132.223 98.754,143.805 103.842,132.223 108.589,132.223 103.615,142.894 108.817,157.514 		"/>
		<polygon style="fill:#FFFFFF;" points="110.714,157.514 110.714,132.223 122.789,132.223 122.789,136.287 115.423,136.287 
			115.423,142.552 120.511,142.552 120.511,146.274 115.423,146.274 115.423,153.299 122.789,153.299 122.789,157.514 		"/>
		<path style="fill:#FFFFFF;" d="M136.534,157.667c-1.861,0-2.581-1.519-2.581-3.722v-4.746c0-1.177-0.609-2.166-1.938-2.166h-2.468
			v10.482h-4.71v-25.291h7.786c3.456,0,5.773,1.974,5.773,5.506v3.57c0,1.899-0.873,3.305-2.849,3.911
			c1.976,0.532,2.924,2.203,2.924,3.835v4.634c0,1.177,0.342,1.974,0.912,2.583v1.405H136.534z M133.8,137.919
			c0-1.141-0.495-1.822-1.671-1.822h-2.582v7.443h2.392c1.216,0,1.861-0.646,1.861-2.014V137.919z"/>
	</g>
</g>
<g id="Layer_1">
</g>
</svg>
