<?xml version="1.0" encoding="utf-8"?>
<!-- Generator: Adobe Illustrator 17.1.0, SVG Export Plug-In . SVG Version: 6.00 Build 0)  -->
<!DOCTYPE svg PUBLIC "-//W3C//DTD SVG 1.1//EN" "http://www.w3.org/Graphics/SVG/1.1/DTD/svg11.dtd">
<svg version="1.1" id="Layer_1" xmlns="http://www.w3.org/2000/svg" xmlns:xlink="http://www.w3.org/1999/xlink" x="0px" y="0px"
	 viewBox="0 0 612 792" enable-background="new 0 0 612 792" xml:space="preserve">
<g id="nbc_x5F_white">
	<g id="NBC_3_">
		<path id="XMLID_145_" fill="#FFFFFF" d="M469.8,456.1c-8.9,9.5-22.9,17.7-39.2,17.7c-23.3,0-38.6-17.7-38.6-39.5
			s15-39.5,37.9-39.5c12.9,0,27.2,5.5,36.4,14.4l12.2-11.9c-11.6-11-30-18.4-49-18.4c-33.4,0-56.3,25.1-56.3,55.4
			c0,30.6,22.6,55.7,57.2,55.7c22.6,0,40.4-10.7,51.7-21.7L469.8,456.1z"/>
		<path id="XMLID_141_" fill="#FFFFFF" d="M328.1,397.9c4.9,0,8.9,1.2,11.6,4c2.1,2.1,3.7,5.5,3.7,8.9c0,4-1.5,7.7-4.3,10.4
			c-2.8,2.8-6.7,4-11,4h-43.5v-27.2L328.1,397.9L328.1,397.9z M332.1,439.6c5.2,0,9.8,2.1,13.2,5.5c2.4,2.8,4.3,6.1,4.3,9.8
			c0,4-1.5,8-4.3,10.7c-3.1,3.1-8,4.9-12.9,4.9h-47.1v-30.9H332.1L332.1,439.6z M331.1,486.4c15,0,22-4.3,26.9-8.9
			c7-6.7,9.5-14.7,9.5-22.3c0-12.9-6.7-23.6-19-26.3c7.6-3.1,13.2-11.6,13.2-21.4c0-6.4-2.4-11.9-7-16.5c-5.2-5.2-13.2-9.2-25.1-9.2
			h-63.3v104.7L331.1,486.4L331.1,486.4z"/>
		<polygon id="XMLID_140_" fill="#FFFFFF" points="236.6,382 236.6,454.6 236.6,454.6 176,382 160.1,382 160.1,486.4 178.1,486.4 
			178.1,413.9 178.4,413.9 238.7,486.4 254.6,486.4 254.6,382 		"/>
		<g id="superopen_3_">
			<path id="XMLID_139_" fill="#FFFFFF" d="M469.1,289.6c20.5,0,37,16.5,37,37c0,9.8-4,19.3-11,26.3c-7,7-16.5,11-26.3,11H351
				l97.9-68.9C454.8,291.5,461.5,289.6,469.1,289.6z"/>
			<path id="XMLID_138_" fill="#FFFFFF" d="M440.4,200c12.9,0,24.5,6.4,31.2,17.1c5.2,8.3,7,18.1,4.9,27.5s-8,17.7-16.2,23.6
				l-107.1,73.4l52.9-120.6c2.8-6.1,7.7-11.3,14.1-15.6C426.6,202.1,433.3,200,440.4,200z"/>
			<path id="XMLID_137_" fill="#FFFFFF" d="M328.7,184.4c0-5.5,1.2-11,4-16.5c3.1-6.4,8-11.9,14.1-15.6c5.8-3.7,12.9-5.5,19.6-5.5
				c5.5,0,10.7,1.2,15.6,3.7c8.9,4.3,15.9,11.6,19.3,21.1c3.4,9.2,2.8,19.3-1.2,28.5l0,0l0,0l-51.4,113.5l-14.4-90.9
				c-0.6-3.7-0.6-12.5,1.2-15.9c2.8-5.8,8.3-10.7,12.2-13.2c2.4-1.5,5.2-2.8,5.2-4.3c0-1.8-6.1-4-11.3-4L328.7,184.4z"/>
			<path id="XMLID_136_" fill="#FFFFFF" d="M276.1,146.4c7,0,13.8,1.8,19.6,5.5c6.1,3.7,11,9.2,14.1,15.6c3.4,7,4.6,13.8,3.7,20.5
				l-19.3,124.2l-51.4-113.5l0,0l0,0c-4.3-8.9-4.6-19-1.2-28.5c3.4-9.2,10.1-16.8,19.3-21.1C265.4,147.6,270.6,146.4,276.1,146.4z"
				/>
			<path id="XMLID_135_" fill="#FFFFFF" d="M201.7,200c7,0,14.1,2.1,19.9,5.8c6.4,4.3,11.3,9.5,14.1,15.6L288.6,342l-107.1-73.4
				c-8.3-5.8-14.1-14.1-16.2-23.6c-2.1-9.5-0.3-19.3,4.9-27.5C177.2,206.4,188.9,200,201.7,200z"/>
			<path id="XMLID_134_" fill="#FFFFFF" d="M172.9,289.6c7.6,0,14.4,1.8,20.2,5.5l97.9,68.8H173.2c-9.8,0-19.3-4-26.3-11
				s-11-16.2-11-26.3C135.6,306.1,152.4,289.6,172.9,289.6z"/>
		</g>
	</g>
</g>
<g id="Layer_1_1_">
</g>
<g>
	<path fill="#FFFFFF" d="M104.1,560.8c0,2.8-0.8,5.7-2.4,8.1s-3.7,4.1-6.5,5.3c-2.8,1.2-6.1,2-10.1,2c-3.2,0-6.1-0.4-8.1-0.8
		c-2-0.4-4.5-1.2-6.9-2.4v-11.8c2.4,1.2,5.3,2.4,7.7,2.8c2.4,0.4,5.3,1.2,7.3,1.2s3.2-0.4,4.5-0.8c1.2-0.4,1.2-1.6,1.2-2.4
		s0-1.2-0.4-1.6c-0.4-0.4-0.8-0.8-1.6-1.6c-0.8-0.4-2.8-1.6-6.5-3.2c-3.2-1.6-5.7-2.8-7.3-4.1s-2.8-2.8-3.7-4.5
		c-0.8-1.6-1.2-3.7-1.2-6.1c0-4.5,1.6-8.1,4.9-10.5s7.7-3.7,13.4-3.7c4.9,0,10.1,1.2,15.4,3.7l-4.1,10.1c-4.5-2-8.5-3.2-11.8-3.2
		c-1.6,0-2.8,0.4-3.7,0.8c-0.8,0.4-1.2,1.2-1.2,2c0,0.8,0.4,1.6,1.6,2.4c0.8,0.8,3.7,2,8.1,4.1c4.1,2,7.3,4.1,8.9,6.1
		C103.3,554.8,104.1,557.2,104.1,560.8z"/>
	<path fill="#FFFFFF" d="M127.6,576.3c-6.1,0-11-1.6-14.6-4.9c-3.7-3.2-5.3-8.1-5.3-14.2c0-6.5,1.6-11.4,4.9-14.6
		c3.2-3.2,7.7-5.3,13.8-5.3c5.7,0,10.1,1.6,13,4.5c3.2,2.8,4.5,7.3,4.5,13v5.7h-23.1c0,2,0.8,3.7,2.4,4.9c1.6,1.2,3.2,1.6,6.1,1.6
		c2.4,0,4.5-0.4,6.5-0.8c2-0.4,4.1-1.2,6.1-2v9.3c-2,1.2-4.1,1.6-6.5,2C133.3,575.9,130.9,576.3,127.6,576.3z M126.8,545.8
		c-1.6,0-2.8,0.4-3.7,1.6c-1.2,0.8-1.6,2.4-1.6,4.5h11.4c0-1.6-0.4-3.2-1.6-4.5C130,546.6,128.8,545.8,126.8,545.8z"/>
	<path fill="#FFFFFF" d="M163.3,575.4h-13v-51.9h13V575.4z"/>
	<path fill="#FFFFFF" d="M189.3,576.3c-6.1,0-11-1.6-14.6-4.9c-3.7-3.2-5.3-8.1-5.3-14.2c0-6.5,1.6-11.4,4.9-14.6
		c3.2-3.2,7.7-5.3,13.8-5.3c5.7,0,10.1,1.6,13,4.5c3.2,2.8,4.5,7.3,4.5,13v5.7h-23.1c0,2,0.8,3.7,2.4,4.9c1.6,1.2,3.2,1.6,6.1,1.6
		c2.4,0,4.5-0.4,6.5-0.8c2-0.4,4.1-1.2,6.1-2v9.3c-2,1.2-4.1,1.6-6.5,2C195,575.9,192.1,576.3,189.3,576.3z M188.5,545.8
		c-1.6,0-2.8,0.4-3.7,1.6c-1.2,0.8-1.6,2.4-1.6,4.5h11.4c0-1.6-0.4-3.2-1.6-4.5C191.3,546.6,190.1,545.8,188.5,545.8z"/>
	<path fill="#FFFFFF" d="M229,576.3c-6.1,0-11-1.6-14.2-4.9c-3.2-3.2-4.9-8.1-4.9-14.2c0-6.1,1.6-11,5.3-14.6
		c3.2-3.2,8.5-5.3,14.6-5.3c4.5,0,8.5,0.8,12.2,2.8l-3.7,9.7c-1.6-0.8-2.8-1.2-4.5-1.6c-1.2-0.4-2.8-0.8-4.1-0.8
		c-2,0-3.7,0.8-4.9,2.4c-1.2,1.6-1.6,4.1-1.6,6.9c0,6.1,2,8.9,6.5,8.9c3.7,0,7.3-1.2,11-3.2V573C237.6,575,233.5,576.3,229,576.3z"
		/>
	<path fill="#FFFFFF" d="M265.5,565.7c1.6,0,3.7-0.4,6.1-1.2v9.3c-1.6,0.8-3.2,1.2-4.9,1.6c-1.6,0.4-3.2,0.4-5.7,0.4
		c-4.5,0-7.7-1.2-9.3-3.2c-2-2-2.8-5.3-2.8-9.7v-15.4h-4.5v-5.3l5.7-4.1l3.2-8.1h8.5v7.7h9.3v9.7h-9.3v14.6
		C261.9,564.5,263.1,565.7,265.5,565.7z"/>
	<path fill="#FFFFFF" d="M315.4,575.4l-10.1-34.9h-0.4c0.4,6.1,0.8,10.5,0.8,13.8v21.1h-11.8v-48.7h17.4l10.1,34.5h0.4l10.1-34.5
		h17.4v48.7h-12.2v-21.5c0-1.2,0-2.4,0-3.7s0-4.9,0.4-10.1h-0.4l-9.7,34.9L315.4,575.4L315.4,575.4z"/>
	<path fill="#FFFFFF" d="M382.4,575.4l-2.4-4.9h-0.4c-1.6,2-3.7,3.7-5.3,4.5c-1.6,0.8-4.1,1.2-6.9,1.2c-3.7,0-6.5-1.2-8.5-3.2
		c-2-2-3.2-5.3-3.2-8.9c0-4.1,1.2-6.9,4.1-8.9c2.8-2,6.9-3.2,12.2-3.2h6.5v-0.4c0-3.2-1.6-4.5-4.5-4.5s-6.1,0.8-10.5,2.8l-3.7-8.5
		c4.5-2.4,9.7-3.2,16.6-3.2c4.9,0,8.5,1.2,11.4,3.7s4.1,5.7,4.1,10.1v24.7h-9.3L382.4,575.4L382.4,575.4z M372.6,566.9
		c1.6,0,2.8-0.4,4.1-1.6c1.2-0.8,1.6-2.4,1.6-4.1v-2.8h-2.8c-4.5,0-6.5,1.6-6.5,4.9C369,565.7,370.2,566.9,372.6,566.9z"/>
	<path fill="#FFFFFF" d="M421.7,536.9c1.2,0,2,0,3.2,0.4h0.8l-1.2,12.2c-1.2-0.4-2.4-0.4-4.5-0.4c-2.8,0-4.9,0.8-6.1,2
		c-1.2,1.2-2,3.2-2,5.7v18.7h-13v-37.7h9.7l2,6.1h0.8c1.2-2,2.4-3.7,4.5-4.9C417.7,537.7,419.7,536.9,421.7,536.9z"/>
	<path fill="#FFFFFF" d="M442,554.4c1.6-2.4,2.8-4.5,4.1-5.7l8.5-10.5h14.6l-13,16.2l13.8,21.5h-15l-8.1-13.4l-4.1,3.2v10.1h-13
		v-52.3h13v20.3C442.8,547.5,442.4,551.1,442,554.4L442,554.4z"/>
	<path fill="#FFFFFF" d="M491.5,576.3c-6.1,0-11-1.6-14.6-4.9c-3.7-3.2-5.3-8.1-5.3-14.2c0-6.5,1.6-11.4,4.9-14.6
		c3.2-3.2,7.7-5.3,13.8-5.3c5.7,0,10.1,1.6,13,4.5c3.2,2.8,4.5,7.3,4.5,13v5.7h-23.1c0,2,0.8,3.7,2.4,4.9c1.6,1.2,3.2,1.6,6.1,1.6
		c2.4,0,4.5-0.4,6.5-0.8s4.1-1.2,6.1-2v9.3c-2,1.2-4.1,1.6-6.5,2C496.8,575.9,494.4,576.3,491.5,576.3z M490.7,545.8
		c-1.6,0-2.8,0.4-3.7,1.6c-1.2,0.8-1.6,2.4-1.6,4.5h11.4c0-1.6-0.4-3.2-1.6-4.5C493.5,546.6,492.3,545.8,490.7,545.8z"/>
	<path fill="#FFFFFF" d="M532.5,565.7c1.6,0,3.7-0.4,6.1-1.2v9.3c-1.6,0.8-3.2,1.2-4.9,1.6c-1.6,0.4-3.2,0.4-5.7,0.4
		c-4.5,0-7.7-1.2-9.3-3.2c-2-2-2.8-5.3-2.8-9.7v-15.4h-4.5v-5.3l5.7-4.1l3.2-8.1h8.5v7.7h9.3v9.7h-9.3v14.6
		C528.8,564.5,530.1,565.7,532.5,565.7z"/>
	<path fill="#FFFFFF" d="M573.1,563.7c0,4.1-1.2,6.9-4.1,9.3c-2.8,2-6.9,3.2-11.8,3.2c-2.8,0-5.3,0-7.3-0.4c-2-0.4-4.1-0.8-6.5-1.6
		v-10.5c2,0.8,4.1,1.6,6.5,2c2.4,0.4,4.5,0.8,6.5,0.8c2.8,0,4.1-0.8,4.1-2c0-0.8-0.4-1.2-1.2-1.6c-0.8-0.4-3.2-1.6-6.9-3.2
		c-3.7-1.2-5.7-2.8-7.3-4.9c-1.2-1.6-2-4.1-2-6.9c0-3.7,1.2-6.1,4.1-8.1c2.8-2,6.5-2.8,11.4-2.8c2.4,0,4.9,0.4,6.9,0.8
		c2,0.4,4.5,1.2,6.9,2.4l-3.7,8.5c-1.6-0.8-3.7-1.6-5.7-2c-2-0.4-3.7-0.8-4.9-0.8c-2,0-3.2,0.4-3.2,1.6c0,0.8,0.4,1.2,1.2,1.6
		c0.8,0.4,2.8,1.2,6.5,2.8c2.8,1.2,4.5,2,6.1,3.2s2.4,2.4,2.8,3.7C572.7,560,573.1,561.7,573.1,563.7z"/>
</g>
</svg>
