<?xml version="1.0" encoding="iso-8859-1"?>
<!-- Generator: Adobe Illustrator 19.2.1, SVG Export Plug-In . SVG Version: 6.00 Build 0)  -->
<svg version="1.1" xmlns="http://www.w3.org/2000/svg" xmlns:xlink="http://www.w3.org/1999/xlink" x="0px" y="0px"
	 viewBox="0 0 200 200" style="enable-background:new 0 0 200 200;" xml:space="preserve">
<g id="nbc_x5F_sports_x5F_network_x5F_white">
	<g>
		<g>
			<path style="fill:#FFFFFF;" d="M123.282,48.079c1.762,3.514,0.749,8.136-1.133,11.32l-14.348,31.754l-0.118,0.139l-5.203-32.213
				c-0.405-3.086,2.967-4.399,4.936-5.896c-0.087-0.458-0.624-0.437-0.948-0.646l-4.83-0.059l-0.143-0.137
				c0.011-3.994,2.21-7.7,5.921-9.635c3.873-2.2,9.324-1.603,12.68,1.218C121.45,45.118,122.625,46.515,123.282,48.079"/>
			<path style="fill:#FFFFFF;" d="M96.841,46.965c1.161,2.144,1.861,4.57,1.437,7.244l-5.845,36.884
				c0.024,0.06-0.022,0.108-0.082,0.129l-1.501-2.966L76.181,56.04c-1.368-4.156-0.099-8.497,2.96-11.458
				c3.092-3.094,8.209-3.943,12.242-2.246C93.54,43.235,95.569,44.913,96.841,46.965"/>
			<path style="fill:#FFFFFF;" d="M144.5,62.507c1.982,3.304,1.545,8.315-0.653,11.392c-1.377,2.153-3.618,3.227-5.49,4.646
				L107.953,99.06h-0.074l0.341-0.988l16.121-35.759c2.395-4.205,6.993-6.345,11.879-5.701
				C139.558,57.209,142.879,59.345,144.5,62.507"/>
			<path style="fill:#FFFFFF;" d="M75.466,62.313L92.236,99.06H91.95L58.16,76.142c-3.446-2.837-4.829-7.117-3.667-11.432
				c0.874-3.234,3.598-6.251,6.838-7.459C66.645,55.351,72.647,57.378,75.466,62.313"/>
			<path style="fill:#FFFFFF;" d="M153.32,88.457c1.674,3.478,1.004,8.269-1.392,11.249c-2.389,2.855-5.575,4.404-9.332,4.312
				l-36.03,0.023l30.173-20.664c2.97-1.856,7.444-2.188,10.655-0.68C149.888,83.641,152.227,86.047,153.32,88.457"/>
			<path style="fill:#FFFFFF;" d="M46.625,88.457c-1.687,3.478-1.026,8.269,1.379,11.249c2.383,2.855,5.595,4.404,9.332,4.312
				l36.039,0.023L63.189,83.376c-2.952-1.856-7.423-2.188-10.662-0.68C50.041,83.641,47.714,86.047,46.625,88.457"/>
			<path style="fill:#FFFFFF;" d="M123.282,48.079c1.762,3.514,0.749,8.136-1.133,11.32l-14.348,31.754l-0.118,0.139l-5.203-32.213
				c-0.405-3.086,2.967-4.399,4.936-5.896c-0.087-0.458-0.624-0.437-0.948-0.646l-4.83-0.059l-0.143-0.137
				c0.011-3.994,2.21-7.7,5.921-9.635c3.873-2.2,9.324-1.603,12.68,1.218C121.45,45.118,122.625,46.515,123.282,48.079"/>
			<path style="fill:#FFFFFF;" d="M96.841,46.965c1.161,2.144,1.861,4.57,1.437,7.244l-5.845,36.884
				c0.024,0.06-0.022,0.108-0.082,0.129l-1.501-2.966L76.181,56.04c-1.368-4.156-0.099-8.497,2.96-11.458
				c3.092-3.094,8.209-3.943,12.242-2.246C93.54,43.235,95.569,44.913,96.841,46.965"/>
			<path style="fill:#FFFFFF;" d="M144.5,62.507c1.982,3.304,1.545,8.315-0.653,11.392c-1.377,2.153-3.618,3.227-5.49,4.646
				L107.953,99.06h-0.074l0.341-0.988l16.121-35.759c2.395-4.205,6.993-6.345,11.879-5.701
				C139.558,57.209,142.879,59.345,144.5,62.507"/>
			<path style="fill:#FFFFFF;" d="M75.466,62.313L92.236,99.06H91.95L58.16,76.142c-3.446-2.837-4.829-7.117-3.667-11.432
				c0.874-3.234,3.598-6.251,6.838-7.459C66.645,55.351,72.647,57.378,75.466,62.313"/>
			<path style="fill:#FFFFFF;" d="M153.32,88.457c1.674,3.478,1.004,8.269-1.392,11.249c-2.389,2.855-5.575,4.404-9.332,4.312
				l-36.03,0.023l30.173-20.664c2.97-1.856,7.444-2.188,10.655-0.68C149.888,83.641,152.227,86.047,153.32,88.457"/>
			<path style="fill:#FFFFFF;" d="M46.625,88.457c-1.687,3.478-1.026,8.269,1.379,11.249c2.383,2.855,5.595,4.404,9.332,4.312
				l36.039,0.023L63.189,83.376c-2.952-1.856-7.423-2.188-10.662-0.68C50.041,83.641,47.714,86.047,46.625,88.457"/>
		</g>
		<g>
			<path style="fill:#FFFFFF;" d="M173.345,117.963v18.595l-16.061-18.595h-2.273c0.038,0.126,0.08,0.249,0.107,0.38l0.018,0.085
				c0.182,0.571,0.305,1.123,0.387,1.652c0.303,1.611-0.182,3.14-0.182,3.14c-0.611,1.42-2.302,2.775-5.013,4.039v9.531
				c1.341,0.386,2.037,1.055,2.411,1.641c0.614,0.976,0.656,2.218,0.095,3.335c-0.509,1.005-1.141,1.584-2.506,2.227v1.272v2.886
				h7.437v-3.59V140v-11.031l16.605,19.185h6.415v-30.191H173.345z"/>
			<path style="fill:#FFFFFF;" d="M153.993,118.611c-1.325-5.653-10.286-5.42-10.286-5.42c-7.724,0.022-19.301,2.231-29.565,9.757
				c-5.275,3.867-4.469,6.628-4.469,6.628s-0.097,5.354,3.972,6.662c1.634,0.52,2.819,0.809,5.516,1.072
				c5.199,0.519,9.048,0.588,14.43,0.966c3.064,0.203,5.217,0.545,6.72,0.93c-0.762,0.287-1.246,0.504-1.305,0.531
				c-0.164,0.082-0.345,0.152-0.519,0.234l-0.499,0.197l-0.002,0.016c-3.605,1.377-7.203,2.885-10.413,4.489
				c-3.453,1.733-8.623,4.642-10.479,6.952c-2.223,2.786-0.154,4.985-0.406,4.516c0.334,0.61,1.712,3.094,7.625,2.349
				c2.882-0.375,6.243-1.739,8.856-3.155c3.743-2.033,6.502-4.399,8.176-6.004c3.341-3.232,4.299-5.731,4.304-7.905
				c0-0.627-0.096-1.16-0.235-1.619c0.29-0.038,0.578-0.069,0.845-0.084c1.948-0.108,2.751,0.371,3.056,0.664
				c0.192,0.181,0.296,0.412,0.292,0.629c-0.017,0.479-0.384,0.867-0.674,1.185c-0.111,0.106-0.199,0.208-0.261,0.299
				c-0.149,0.186-0.105,0.35-0.074,0.436c0.099,0.23,0.398,0.291,0.483,0.302h0.078l0.06-0.02c1.73-0.718,2.182-1.187,2.587-1.978
				c0.368-0.745,0.351-1.567-0.05-2.2c-0.416-0.663-1.448-1.444-4.009-1.418c-1.141,0.016-2.289,0.179-3.36,0.398l-0.097-0.147
				c-0.235-0.226-0.475-0.424-0.778-0.611c-4.505-2.826-17.986-3.061-23.158-3.456c-5.589-0.415-6.844-0.783-7.055-1.713
				c-0.275-1.203,1.492-2.906,4.016-4.741c9.777-7.131,23.284-8.588,27.654-8.513c4.786,0.068,6.134,0.637,6.21,0.986
				c0.08,0.339-0.151,0.61-0.151,0.61c-0.776,0.888-1.837,1.45-2.987,2.197c-4.385,2.843-9.157,4.946-9.157,4.946
				c-1.044,0.963,0.987,1.219,0.987,1.219c2.773-0.094,5.451-0.766,7.961-1.736c5.201-1.989,6.451-3.784,6.589-4.843
				C154.685,120.364,153.896,118.442,153.993,118.611z M142.306,141.801c-1.799,3.133-7.93,6.899-9.972,8.05
				c-1.133,0.648-3.752,2.167-6.962,3.33c-3.556,1.282-6.728,1.882-7.015,1.006c-0.129-0.371-0.363-0.522,0.785-1.73
				c1.361-1.425,5.492-4.078,9.309-6.059c4.068-2.113,8.555-3.983,12.78-5.565c0.418-0.136,0.82-0.259,1.212-0.371
				C142.606,140.801,142.617,141.239,142.306,141.801z"/>
			<g>
				<path style="fill:#FFFFFF;" d="M68.109,148.154H51.804v-30.191h15.92c7.001,0,11.311,3.056,11.311,7.81v0.083
					c0,3.408-2.061,5.304-4.505,6.52c3.965,1.328,6.402,3.364,6.402,7.411v0.087C80.933,145.398,75.853,148.154,68.109,148.154
					 M71.535,126.89c0-1.977-1.758-3.109-4.943-3.109h-7.438v6.394h6.941c3.343,0,5.44-0.947,5.44-3.198V126.89z M73.447,138.969
					c0-2.027-1.713-3.277-5.578-3.277h-8.715v6.637h8.955c3.335,0,5.338-1.02,5.338-3.282V138.969z"/>
				<path style="fill:#FFFFFF;" d="M98.71,148.668c-10.098,0-17.586-6.846-17.586-15.521v-0.078c0-8.597,7.346-15.624,17.873-15.624
					c6.47,0,10.346,1.901,13.53,4.654l-4.814,4.878c-2.642-2.109-5.326-3.406-8.759-3.406c-5.776,0-9.953,4.219-9.953,9.404v0.094
					c0,5.167,4.083,9.475,9.953,9.475c3.923,0,6.318-1.373,9.004-3.531l4.799,4.278C109.242,146.604,105.322,148.668,98.71,148.668"
					/>
				<polygon style="fill:#FFFFFF;" points="26.655,140 26.655,128.969 43.261,148.154 49.671,148.154 49.671,117.963 
					42.234,117.963 42.234,136.558 26.169,117.963 19.216,117.963 19.216,141.555 19.216,145.263 19.216,148.149 26.655,148.149 
					26.655,144.559 				"/>
			</g>
		</g>
	</g>
</g>
<g id="Layer_1">
</g>
</svg>
