<?xml version="1.0" encoding="iso-8859-1"?>
<!-- Generator: Adobe Illustrator 19.2.0, SVG Export Plug-In . SVG Version: 6.00 Build 0)  -->
<svg version="1.1" xmlns="http://www.w3.org/2000/svg" xmlns:xlink="http://www.w3.org/1999/xlink" x="0px" y="0px"
	 viewBox="0 0 200 200" style="enable-background:new 0 0 200 200;" xml:space="preserve">
<g id="NEWSY">
	<g>
		<path style="fill:#FFFFFF;" d="M140.891,53.079v8.95c1.51,0.191,3.284,0.498,4.755,0.978v-5.183h48.744v63.458h-48.744v-15.774
			c-1.505,0.532-2.846,0.857-4.359,1.057v19.432L154.358,147v-21.004h44.392V53.079H140.891z"/>
		<path style="fill:#FFFFFF;" d="M13.592,64.571v5.089h0.145c1.688-3.859,4.849-5.485,9.48-5.485c1.447,0,2.786,0.083,4.016,0.396
			c1.23,0.315,2.303,0.651,3.221,1.471c0.916,0.821,1.64,1.906,2.171,3.257c0.53,1.351,0.796,3.088,0.796,5.21V104.2H20.418V78.2
			c0-1.64,0.085-2.823-0.396-3.546c-0.483-0.724-1.654-1.085-2.812-1.085c-1.158,0-1.979,0.362-2.46,1.085
			c-0.483,0.724-0.724,1.907-0.724,3.546V104.2H1V64.571H13.592z"/>
		<path style="fill:#FFFFFF;" d="M48.951,91.805c0,2.123,0.394,3.535,1.118,4.233c0.724,0.7,1.543,1.049,2.461,1.049
			c1.158,0,2.062-0.47,2.714-1.411c0.651-0.941,0.841-2.692,0.841-5.346h11.859c-0.097,4.825-1.327,8.41-3.691,10.846
			c-2.364,2.437-6.249,3.42-11.651,3.42c-3.137,0-5.766-0.116-7.888-0.815c-2.123-0.699-3.835-1.856-5.138-3.473
			c-1.303-1.616-2.232-3.727-2.786-6.332c-0.555-2.605-0.832-5.765-0.832-9.48c0-3.763,0.313-6.947,0.941-9.552
			c0.626-2.605,1.616-4.728,2.967-6.368c1.35-1.64,3.076-2.834,5.174-3.582c2.098-0.748,4.619-0.818,7.562-0.818
			c2.605,0,4.885,0.01,6.839,0.637c1.954,0.628,3.594,1.677,4.921,3.148c1.326,1.472,2.316,3.402,2.967,5.789
			c0.651,2.388,0.977,5.368,0.977,8.938l0.064,4.077H48.984L48.951,91.805z M55.388,73.279c-0.506-0.964-1.46-1.447-2.858-1.447
			c-1.351,0-2.28,0.483-2.786,1.447c-0.507,0.966-0.76,2.485-0.76,4.559v1.737h7.164v-1.737
			C56.148,75.764,55.895,74.244,55.388,73.279"/>
		<polygon style="fill:#FFFFFF;" points="80.893,64.571 84.15,93.035 84.295,93.035 88.13,64.571 102.025,64.571 105.86,93.035 
			106.005,93.035 109.261,64.571 121.853,64.571 113.893,104.2 99.13,104.2 95.15,76.318 95.005,76.318 91.025,104.2 76.262,104.2 
			68.301,64.571 		"/>
		<path style="fill:#FFFFFF;" d="M133.737,93.814c0.145,0.676,0.385,1.23,0.724,1.665c0.626,0.917,1.543,1.193,2.75,1.193
			c1.013,0,1.893-0.107,2.641-0.686c0.747-0.579,1.122-1.399,1.122-2.46c0-1.158-0.471-2.05-1.411-2.677
			c-0.941-0.627-2.111-1.182-3.51-1.665c-1.4-0.482-2.907-0.989-4.523-1.52c-1.617-0.53-3.124-1.254-4.523-2.171
			c-1.4-0.916-2.569-2.135-3.51-3.655c-0.94-1.52-1.231-3.51-1.231-5.97c0-1.737,0.133-3.34,0.761-4.812
			c0.627-1.471,1.58-2.761,2.858-3.872c1.278-1.109,2.895-1.977,4.849-2.605c1.954-0.627,4.257-0.799,6.911-0.799
			c9.794,0,14.691,4.084,14.691,12.285h-11.289c0-1.688-0.302-2.958-0.905-3.562c-0.604-0.603-1.46-0.797-2.569-0.797
			c-0.966,0-1.762,0.158-2.388,0.689c-0.628,0.531-0.941,1.279-0.941,2.243c0,1.11,0.47,1.942,1.411,2.497
			c0.941,0.555,2.11,1.05,3.51,1.484c1.399,0.434,2.906,0.893,4.523,1.375c1.616,0.482,3.123,1.17,4.523,2.062
			c1.399,0.893,2.569,2.099,3.51,3.618c0.941,1.52,1.412,3.535,1.412,6.043c0,1.93-0.362,3.69-1.086,5.283
			c-0.724,1.592-1.749,2.967-3.076,4.125c-1.328,1.158-2.967,2.026-4.921,2.605c-1.954,0.579-4.161,0.869-6.622,0.869
			c-5.452,0-9.372-1.086-11.76-3.256c-2.388-2.171-3.402-5.527-3.402-9.821h11.493C133.758,92.291,133.592,93.139,133.737,93.814"/>
		<path style="fill:#FFFFFF;" d="M158.88,106.905c0.82,0,1.507-0.056,2.063-0.297c0.554-0.242,1.001-0.519,1.338-0.832
			c0.337-0.314,0.579-0.64,0.724-0.977c0.145-0.338,0.217-0.603,0.217-0.796c0-0.29-0.061-0.675-0.181-1.158
			c-0.121-0.481-0.253-0.988-0.398-1.52l-10.276-37.22h13.388l3.98,26.727h0.145l3.763-26.727h13.026l-10.493,40.549
			c-0.579,2.267-1.242,4.136-1.99,5.609c-0.748,1.471-1.64,2.641-2.678,3.51c-1.038,0.868-2.232,1.471-3.582,1.809
			c-1.351,0.337-2.895,0.506-4.631,0.506c-1.4,0-2.69-0.025-3.872-0.073c-1.183-0.049-2.328,0.099-3.438,0.003v-9.115"/>
	</g>
</g>
<g id="Layer_1">
</g>
</svg>
