<?xml version="1.0" encoding="iso-8859-1"?>
<!-- Generator: Adobe Illustrator 19.2.0, SVG Export Plug-In . SVG Version: 6.00 Build 0)  -->
<svg version="1.1" xmlns="http://www.w3.org/2000/svg" xmlns:xlink="http://www.w3.org/1999/xlink" x="0px" y="0px"
	 viewBox="0 0 200 200" style="enable-background:new 0 0 200 200;" xml:space="preserve">
<g id="NFLHD">
	<g>
		<polygon style="fill:#FFFFFF;" points="100.9,84.163 100.9,88.83 102.429,88.83 103.034,87.942 104.281,87.942 104.281,92.095 
			103.034,92.095 102.449,91.257 100.9,91.257 100.9,98.941 101.834,100.066 101.834,102.044 101.823,102.039 101.823,102.044 
			97.182,100.313 97.182,98.628 98.206,98.21 98.206,84.31 97.187,83.795 97.187,81.787 105.259,81.787 105.259,85.823 
			103.473,85.823 102.938,84.163 		"/>
		<polygon style="fill:#FFFFFF;" points="96.263,81.787 96.263,83.77 95.355,84.31 95.355,99.9 95.34,99.895 95.34,99.9 
			93.004,99.198 89.644,89.279 89.639,95.808 90.714,96.63 90.714,98.653 90.698,98.653 86.011,97.463 86.011,95.737 87.086,95.319 
			87.086,84.315 85.986,83.77 85.986,81.787 89.548,81.787 92.848,91.913 92.843,84.31 91.884,83.77 91.884,81.787 		"/>
		<polygon style="fill:#FFFFFF;" points="114.22,92.357 114.22,97.458 106.026,99.647 106.026,99.642 106.011,99.647 
			106.011,97.665 107.166,96.716 107.166,84.31 106.178,83.795 106.178,81.787 110.84,81.787 110.84,83.795 109.926,84.31 
			109.926,95.944 111.914,95.409 112.298,92.357 		"/>
		<path style="fill:#FFFFFF;" d="M99.886,72.211c-0.055,0.076-0.106,0.151-0.156,0.227c0-0.005-0.005-0.005-0.01-0.01
			c-0.515-0.424-1.095-0.716-1.68-0.888c0.05-0.071,0.111-0.151,0.136-0.182c0.686,0.177,1.241,0.505,1.685,0.863h0.005l0.005,0.005
			C99.876,72.221,99.881,72.216,99.886,72.211z"/>
		<path style="fill:#FFFFFF;" d="M97.081,72.382c0.02-0.035,0.035-0.076,0.055-0.106c-0.005,0.01-0.01,0.02-0.015,0.03
			C97.106,72.332,97.096,72.357,97.081,72.382z"/>
		<path style="fill:#FFFFFF;" d="M97.156,72.241c-0.005,0.01-0.01,0.015-0.015,0.025c0.005-0.01,0.005-0.02,0.01-0.025H97.156z"/>
		<path style="fill:#FFFFFF;" d="M100.713,71.076c-0.061,0.076-0.116,0.151-0.172,0.222c0-0.005-0.005-0.005-0.005-0.01
			c-0.474-0.394-1.034-0.706-1.655-0.898c0.071-0.076,0.151-0.156,0.182-0.192C99.548,70.319,100.169,70.652,100.713,71.076z"/>
		<path style="fill:#FFFFFF;" d="M117.721,65.601c-0.106,0.081-0.938,0.671-2.17,1.155c-0.217,0.086-0.439,0.161-0.666,0.232
			c-0.04,0.01-0.076,0.025-0.116,0.035c-0.101,0.035-0.202,0.061-0.308,0.091c-0.126,0.035-0.247,0.071-0.383,0.096
			c-0.025,0.015-0.055,0.02-0.081,0.025c-0.136,0.035-0.272,0.061-0.414,0.091c-0.025,0-0.05,0.005-0.076,0.015
			c-0.05,0.01-0.111,0.015-0.161,0.025c-0.01,0.005-0.025,0.005-0.035,0.005c-0.6,0.111-1.176,0.167-1.66,0.167h-0.141
			c-0.61-0.005-1.246-0.04-1.983-0.172c-0.383-0.066-0.802-0.156-1.251-0.283c-0.01,0-0.03-0.005-0.045-0.015
			c-0.096-0.025-0.192-0.05-0.293-0.081c-0.04-0.015-0.076-0.025-0.116-0.04c-0.136-0.035-0.267-0.081-0.409-0.131
			c-0.071-0.02-0.136-0.045-0.212-0.071c-0.04-0.015-0.076-0.035-0.121-0.045c-0.02-0.01-0.045-0.02-0.066-0.025
			c-0.449-0.167-0.898-0.368-1.347-0.59c-0.081-0.04-0.167-0.086-0.247-0.131c-0.045-0.02-0.086-0.035-0.121-0.061
			c-0.101-0.055-0.197-0.106-0.293-0.156c-0.03-0.02-0.061-0.04-0.096-0.05c-0.091-0.061-0.177-0.111-0.267-0.166
			c-0.045-0.025-0.091-0.061-0.141-0.086c-0.071-0.045-0.136-0.086-0.207-0.131c-0.02-0.01-0.025-0.015-0.035-0.02
			c-0.025-0.02-0.045-0.03-0.071-0.045c-0.141-0.096-0.288-0.197-0.429-0.303c-0.055-0.03-0.106-0.061-0.151-0.101
			c-0.141-0.101-0.283-0.212-0.419-0.323c-0.081-0.061-0.156-0.126-0.232-0.192c-0.096-0.076-0.187-0.151-0.283-0.237
			c-0.515-0.449-0.999-0.938-1.448-1.473c-0.035-0.04-0.071-0.081-0.106-0.121c-0.081-0.101-0.167-0.207-0.247-0.313
			c-0.278-0.368-0.54-0.752-0.762-1.15c0,0-0.01,0.01-0.01,0.015c-0.071,0.121-1.07,1.892-3.083,3.481
			c-0.313,0.247-0.676,0.505-1.075,0.762c-0.03,0.02-0.066,0.045-0.096,0.066c-0.061,0.035-0.121,0.076-0.182,0.111
			c-0.091,0.055-0.177,0.111-0.272,0.161c-0.066,0.04-0.131,0.076-0.192,0.111c-0.081,0.045-0.156,0.091-0.227,0.126
			c-0.116,0.061-0.222,0.121-0.338,0.182c-0.015,0.005-0.035,0.02-0.05,0.025c-0.424,0.212-0.863,0.414-1.317,0.58
			c-0.343,0.136-0.696,0.252-1.039,0.353c-0.05,0.015-0.101,0.035-0.151,0.045c-0.005,0-0.02,0.01-0.035,0.01
			c-0.464,0.131-0.928,0.237-1.367,0.313c-0.277,0.05-0.555,0.091-0.817,0.116c-0.02,0.005-0.045,0.005-0.061,0.005
			c-0.126,0.01-0.247,0.02-0.368,0.025c-0.066,0.005-0.126,0.015-0.197,0.015c-0.091,0.005-0.182,0.005-0.272,0.005
			c-0.05,0-0.096,0.005-0.146,0.005H88.67c-0.787-0.005-1.393-0.071-1.922-0.172c-0.343-0.066-0.651-0.146-0.964-0.237
			c-0.081-0.025-0.177-0.05-0.267-0.076c-0.02-0.01-0.04-0.015-0.066-0.03c-0.096-0.025-0.192-0.055-0.283-0.086
			c-0.308-0.106-0.59-0.207-0.853-0.323c-0.035-0.02-0.076-0.03-0.106-0.045c-0.262-0.116-0.51-0.237-0.747-0.368
			c-0.328-0.182-0.646-0.378-0.979-0.611v30.701c0,0.716,0.207,3.032,3.017,4.798c0.399,0.252,0.853,0.494,1.362,0.711
			c0,0,0,0.005,0.005,0.005c1.125,0.489,2.538,0.893,4.314,1.15c1.68,0.242,3.143,0.641,4.405,1.196
			c0.242,0.111,0.484,0.222,0.716,0.348c0.167,0.086,0.323,0.172,0.479,0.262c0.686,0.409,1.302,0.873,1.852,1.403
			c0.626,0.595,1.1,1.206,1.468,1.771c0,0,0,0,0.005,0.005v-0.005c0.368-0.56,0.843-1.176,1.473-1.781
			c1.751-1.685,4.193-2.735,7.452-3.204c8.259-1.196,8.698-5.626,8.698-6.665V65.596C117.726,65.596,117.726,65.596,117.721,65.601z
			 M107.303,70.349l0.56-1.609l0.01-0.02l0.565,1.63h1.72l-1.408,1.06l0.52,1.65l-0.015-0.01l-1.382-0.969h-0.01l-1.387,0.979
			l0.005-0.01l0.51-1.64l-1.408-1.06H107.303z M107.303,75.859l0.56-1.615l0.01-0.015l0.565,1.63h1.72l-1.408,1.054l0.52,1.655
			l-0.015-0.01l-1.382-0.969l-0.01,0.005l-1.387,0.974l0.005-0.01l0.51-1.645l-1.408-1.054H107.303z M103.367,66.777
			c0.272,0,0.394,0.04,0.419,0.05l0.106,0.212c0.055-0.03,0.091-0.05,0.091-0.05c0.146-0.01,0.232,0.167,0.272,0.272
			c0.035,0.086,0.061,0.172,0.091,0.257c-0.02-0.081-0.05-0.166-0.081-0.247l0.151,0.313c0.015,0.035,0.035,0.071,0.045,0.101
			c0.621,1.534,0.777,3.406,0.313,5.202c-0.706,2.735-3.022,5.257-7.972,5.903c-0.081,0.01-0.177-0.01-0.222-0.05v0.005
			c-0.267-0.177-0.439-0.479-0.479-0.555c-0.005-0.005-0.005-0.01-0.01-0.02c-0.298-0.494-0.53-1.589-0.616-2.19
			c-0.066-0.474-0.096-0.933-0.096-1.377C95.381,69.673,99.225,66.832,103.367,66.777z M91.778,70.349l0.56-1.609l0.01-0.02
			l0.565,1.63h1.72l-1.408,1.06l0.52,1.65l-0.015-0.01l-1.382-0.969h-0.01l-1.387,0.979l0.005-0.01l0.51-1.64l-1.403-1.06H91.778z
			 M91.778,75.859l0.56-1.609l0.01-0.02l0.565,1.63h1.72l-1.408,1.06l0.52,1.65l-0.015-0.01l-1.382-0.969l-0.01,0.005l-1.387,0.974
			l0.005-0.01l0.51-1.645l-1.403-1.054H91.778z M85.673,70.349l0.56-1.609l0.01-0.02l0.57,1.63h1.715l-1.408,1.06l0.52,1.65
			l-0.015-0.01l-1.382-0.969h-0.01l-1.387,0.979l0.005-0.01l0.51-1.64l-1.403-1.06H85.673z M83.958,75.859h1.715l0.56-1.609
			l0.01-0.02l0.57,1.63h1.715l-1.408,1.06l0.52,1.65l-0.015-0.01l-1.382-0.969l-0.01,0.005l-1.387,0.974l0.005-0.01l0.51-1.645
			L83.958,75.859z M108.726,100.899c-6.049,0.933-8.486,3.749-8.623,3.91c-0.136-0.161-2.568-2.977-8.623-3.91
			c-7.139-1.1-6.922-4.45-6.922-4.622V80.208h31.095v16.069C115.653,96.449,115.865,99.799,108.726,100.899z M114.856,76.913
			l0.52,1.655l-0.015-0.01l-1.387-0.969l-0.005,0.005l-1.393,0.974l0.005-0.01l0.515-1.645l-1.408-1.054h1.72l0.56-1.609l0.005-0.02
			l0.57,1.63h1.72L114.856,76.913z M114.856,71.409l0.52,1.65l-0.015-0.01l-1.387-0.969h-0.005l-1.393,0.979l0.005-0.01l0.515-1.64
			l-1.408-1.06h1.72l0.56-1.609l0.005-0.02l0.57,1.63h1.72L114.856,71.409z"/>
		<path style="fill:#FFFFFF;" d="M99.134,73.371c-0.056,0.086-0.101,0.156-0.136,0.217l-0.005-0.005
			c-0.212-0.167-0.424-0.308-0.656-0.434c0,0-0.005,0-0.005,0.005c-0.873,1.529-1.408,2.997-1.72,4.082
			c0.01-0.045,0.02-0.091,0.03-0.136c0.202-1.034,0.56-2.376,1.206-3.84l-0.212-0.434c-0.111-0.035-0.212-0.071-0.303-0.096
			c0.055-0.106,0.096-0.182,0.096-0.182C98.07,72.67,98.63,73.003,99.134,73.371z"/>
		<path style="fill:#FFFFFF;" d="M102.605,69.032c0.005,0.005,0.005,0.005,0.01,0.005c-0.066,0.066-0.136,0.126-0.197,0.187
			l-0.005-0.005c-0.464-0.383-0.938-0.631-1.367-0.787c0.04-0.035,0.076-0.061,0.091-0.071c0.288,0.076,0.621,0.237,0.621,0.237
			c0.293-0.222,0.575-0.414,0.843-0.58c0.01-0.01,0.02-0.02,0.035-0.025c-0.126,0.116-0.257,0.237-0.394,0.373v0.01l0.04,0.454
			C102.389,68.891,102.5,68.962,102.605,69.032z"/>
		<path style="fill:#FFFFFF;" d="M101.642,70.001c-0.066,0.071-0.131,0.141-0.192,0.207c-0.005,0-0.005-0.005-0.01-0.005
			c-0.479-0.394-0.999-0.676-1.549-0.863c0.081-0.056,0.166-0.116,0.197-0.141c0.676,0.202,1.171,0.505,1.549,0.797
			C101.637,70.001,101.642,70.001,101.642,70.001z"/>
		<polygon style="fill:#FFFFFF;" points="96.263,81.787 96.263,83.77 95.355,84.31 95.355,99.9 95.34,99.895 95.34,99.9 
			93.004,99.198 89.644,89.279 89.639,95.808 90.714,96.63 90.714,98.653 90.698,98.653 86.011,97.463 86.011,95.737 87.086,95.319 
			87.086,84.315 85.986,83.77 85.986,81.787 89.548,81.787 92.848,91.913 92.843,84.31 91.884,83.77 91.884,81.787 		"/>
		<polygon style="fill:#FFFFFF;" points="100.9,84.163 100.9,88.83 102.429,88.83 103.034,87.942 104.281,87.942 104.281,92.095 
			103.034,92.095 102.449,91.257 100.9,91.257 100.9,98.941 101.834,100.066 101.834,102.044 101.823,102.039 101.823,102.044 
			97.182,100.313 97.182,98.628 98.206,98.21 98.206,84.31 97.187,83.795 97.187,81.787 105.259,81.787 105.259,85.823 
			103.473,85.823 102.938,84.163 		"/>
		<polygon style="fill:#FFFFFF;" points="114.22,92.357 114.22,97.458 106.026,99.647 106.026,99.642 106.011,99.647 
			106.011,97.665 107.166,96.716 107.166,84.31 106.178,83.795 106.178,81.787 110.84,81.787 110.84,83.795 109.926,84.31 
			109.926,95.944 111.914,95.409 112.298,92.357 		"/>
		<path style="fill:#FFFFFF;" d="M97.848,73.26c-0.646,1.463-1.004,2.805-1.206,3.84c-0.01,0.045-0.02,0.091-0.03,0.136
			c-0.005,0.035-0.01,0.076-0.02,0.111c0,0.005,0,0.005,0,0.005c-0.076,0.267-0.136,0.515-0.187,0.732
			c-0.005,0-0.005,0.005-0.005,0.01c-0.005,0.03-0.015,0.061-0.02,0.091c-0.005,0.035-0.015,0.071-0.02,0.101
			c0,0.005,0,0.005,0,0.01l0.197,0.419c0.005,0.01,0.015,0.015,0.025,0.025v0.005c-0.267-0.177-0.439-0.479-0.479-0.555
			c0.101-0.959,0.459-3.083,1.534-5.363L97.848,73.26z"/>
		<path style="fill:#FFFFFF;" d="M97.429,72.549c0,0-0.04,0.076-0.096,0.182c-0.005,0-0.005,0-0.005,0
			c-0.136-0.035-0.247-0.066-0.313-0.076c-0.03-0.005-0.055-0.01-0.055-0.01l-0.005-0.005c0.04-0.081,0.086-0.172,0.126-0.257
			c0.02-0.035,0.035-0.076,0.055-0.106c0-0.005,0.005-0.01,0.005-0.01c0.005-0.01,0.01-0.015,0.015-0.025L97.429,72.549z"/>
		<path style="fill:#FFFFFF;" d="M97.172,72.206c-0.005,0.01-0.01,0.02-0.015,0.035h-0.005
			C97.162,72.226,97.167,72.211,97.172,72.206z"/>
		<path style="fill:#FFFFFF;" d="M97.172,72.206c-0.005,0.01-0.01,0.02-0.015,0.035h-0.005
			C97.162,72.226,97.167,72.211,97.172,72.206z"/>
		<path style="fill:#FFFFFF;" d="M99.316,73.084c-0.071,0.106-0.131,0.202-0.182,0.283c0,0,0,0,0,0.005
			c-0.505-0.368-1.065-0.701-1.705-0.822l-0.212-0.429h0.005c0.04,0.005,0.076,0.015,0.111,0.025
			C98.08,72.302,98.736,72.619,99.316,73.084z"/>
		<path style="fill:#FFFFFF;" d="M97.429,72.549l-0.272-0.308c0.005-0.015,0.01-0.025,0.015-0.035
			c0.025-0.05,0.04-0.081,0.045-0.086L97.429,72.549z"/>
		<path style="fill:#FFFFFF;" d="M98.176,71.358c-0.025,0.03-0.086,0.111-0.136,0.182c-0.03-0.01-0.061-0.02-0.091-0.025
			c-0.081-0.025-0.166-0.045-0.247-0.061c-0.035-0.005-0.066-0.015-0.101-0.025c0,0,0.005-0.005,0.01-0.01
			c0.035-0.056,0.227-0.373,0.343-0.545c0.005,0,0.01,0,0.01,0L98.176,71.358z"/>
		<path style="fill:#FFFFFF;" d="M99.064,70.198c-0.03,0.035-0.111,0.116-0.182,0.192c-0.04-0.015-0.081-0.03-0.121-0.045
			c-0.066-0.015-0.131-0.03-0.197-0.045c-0.055-0.015-0.111-0.03-0.167-0.04c0.005-0.005,0.005-0.01,0.01-0.015
			c0.126-0.156,0.267-0.323,0.404-0.479L99.064,70.198z"/>
		<path style="fill:#FFFFFF;" d="M100.951,70.783c-0.086,0.101-0.161,0.197-0.237,0.293c-0.545-0.424-1.165-0.757-1.65-0.878
			l-0.252-0.434h0.01v-0.005C99.452,69.875,100.244,70.203,100.951,70.783z"/>
		<path style="fill:#FFFFFF;" d="M100.088,69.199c-0.03,0.025-0.116,0.086-0.197,0.141c-0.172-0.056-0.343-0.101-0.52-0.141
			c0.182-0.167,0.363-0.313,0.525-0.449l0.005-0.005l0.005,0.005L100.088,69.199z"/>
		<path style="fill:#FFFFFF;" d="M101.889,69.744c-0.055,0.055-0.106,0.111-0.161,0.172c-0.03,0.025-0.055,0.056-0.086,0.086
			c0,0-0.005,0-0.005-0.005c-0.378-0.293-0.873-0.595-1.549-0.797l-0.182-0.449c0.005-0.005,0.005-0.005,0.005-0.005
			C100.85,68.967,101.465,69.39,101.889,69.744z"/>
		<path style="fill:#FFFFFF;" d="M103.892,67.039c-0.187,0.111-0.641,0.404-1.251,0.954c-0.005,0-0.005,0-0.005,0
			c-0.015,0.005-0.025,0.015-0.035,0.025c-0.267,0.167-0.55,0.358-0.843,0.58l-0.106-0.52c1.1-0.838,2.064-1.221,2.134-1.251
			L103.892,67.039z"/>
		<path style="fill:#FFFFFF;" d="M101.758,68.598c0,0-0.333-0.161-0.621-0.237l-0.045-0.464c0.288,0.071,0.56,0.182,0.56,0.182
			L101.758,68.598z"/>
		<path style="fill:#FFFFFF;" d="M101.137,68.361c-0.015,0.01-0.05,0.035-0.091,0.071c-0.182-0.071-0.358-0.126-0.515-0.161
			c0.177-0.126,0.363-0.252,0.55-0.368v-0.01c0.005,0.005,0.005,0.005,0.01,0.005L101.137,68.361z"/>
		<path style="fill:#FFFFFF;" d="M97.081,72.382c0.015-0.025,0.025-0.05,0.04-0.076c0.005-0.01,0.01-0.02,0.015-0.03
			C97.116,72.307,97.101,72.347,97.081,72.382z"/>
		<path style="fill:#FFFFFF;" d="M97.081,72.382c0.015-0.025,0.025-0.05,0.04-0.076c0.005-0.01,0.01-0.02,0.015-0.03
			C97.116,72.307,97.101,72.347,97.081,72.382z"/>
		<path style="fill:#FFFFFF;" d="M100.098,71.903c-0.071,0.106-0.146,0.207-0.212,0.308c-0.005,0.005-0.01,0.01-0.015,0.015
			l-0.005-0.005h-0.005c-0.444-0.358-0.999-0.686-1.685-0.863l-0.212-0.484C98.867,71.05,99.588,71.469,100.098,71.903z"/>
		<path style="fill:#FFFFFF;" d="M102.873,68.8c-0.076,0.071-0.151,0.141-0.227,0.212c-0.01,0.005-0.025,0.015-0.03,0.025
			c-0.005,0-0.005,0-0.01-0.005c-0.106-0.071-0.217-0.141-0.323-0.202l-0.04-0.454v-0.01
			C102.474,68.497,102.727,68.669,102.873,68.8z"/>
		
			<ellipse transform="matrix(0.1591 -0.9873 0.9873 0.1591 34.2493 171.3924)" style="fill:#FFFFFF;" cx="117.733" cy="65.592" rx="0.003" ry="0.002"/>
		
			<ellipse transform="matrix(0.1591 -0.9873 0.9873 0.1591 34.2493 171.3924)" style="fill:#FFFFFF;" cx="117.733" cy="65.592" rx="0.003" ry="0.002"/>
		
			<ellipse transform="matrix(0.1591 -0.9873 0.9873 0.1591 34.2493 171.3924)" style="fill:#FFFFFF;" cx="117.733" cy="65.592" rx="0.003" ry="0.002"/>
	</g>
	<g>
		<path style="fill:#FFFFFF;" d="M133.452,134.175c-0.019,0.006-0.039,0.01-0.059,0.016
			C133.413,134.185,133.433,134.181,133.452,134.175z"/>
		<path style="fill:#FFFFFF;" d="M133.026,134.288c-0.039,0.009-0.079,0.015-0.118,0.023
			C132.948,134.303,132.988,134.297,133.026,134.288z"/>
		<path style="fill:#FFFFFF;" d="M133.862,134.031c-0.007,0.003-0.015,0.005-0.022,0.008
			C133.848,134.036,133.855,134.034,133.862,134.031z"/>
		<path style="fill:#FFFFFF;" d="M132.584,134.371c-0.071,0.01-0.144,0.016-0.216,0.024
			C132.44,134.387,132.513,134.381,132.584,134.371z"/>
		<path style="fill:#FFFFFF;" d="M132.125,134.421c-0.157,0.011-0.316,0.017-0.477,0.017
			C131.809,134.439,131.968,134.433,132.125,134.421z"/>
		<path style="fill:#FFFFFF;" d="M136.644,131.658c-0.012,0.02-0.026,0.038-0.038,0.058
			C136.618,131.696,136.632,131.678,136.644,131.658z"/>
		<path style="fill:#FFFFFF;" d="M136.899,131.212c-0.016,0.03-0.033,0.058-0.049,0.087
			C136.866,131.27,136.883,131.242,136.899,131.212z"/>
		<path style="fill:#FFFFFF;" d="M136.362,132.074c-0.008,0.011-0.016,0.021-0.024,0.031
			C136.346,132.095,136.354,132.085,136.362,132.074z"/>
		<path style="fill:#FFFFFF;" d="M136.055,132.461c-0.003,0.004-0.007,0.007-0.01,0.011
			C136.048,132.468,136.052,132.464,136.055,132.461z"/>
		<path style="fill:#FFFFFF;" d="M137.127,130.74c-0.016,0.036-0.034,0.07-0.051,0.106
			C137.092,130.81,137.111,130.777,137.127,130.74z"/>
		<g>
			<g>
				<path style="fill:#FFFFFF;" d="M138.338,117.917h-14.608c-2.086,0-3.9,1.011-4.99,2.711h12.018c0.851,0,1.297,0.376,1.522,0.692
					c0.236,0.332,0.452,0.917,0.138,1.822l-2.427,6.702c-0.184,0.492-0.462,0.895-0.804,1.204c-0.48,0.433-1.089,0.678-1.775,0.678
					h-2.792c-0.85,0-1.296-0.376-1.521-0.692c-0.236-0.332-0.452-0.917-0.14-1.822l1.875-5.16h-7.5l-2.473,6.834
					c-0.445,1.223-0.473,2.205-0.081,2.766c0.454,0.649,1.479,0.785,2.258,0.785h14.609c0.161,0,0.32-0.006,0.477-0.017
					c0.082-0.006,0.162-0.017,0.243-0.026c0.072-0.008,0.145-0.014,0.216-0.024c0.11-0.016,0.217-0.038,0.324-0.06
					c0.039-0.008,0.079-0.014,0.118-0.023c0.124-0.028,0.246-0.061,0.367-0.097c0.019-0.006,0.039-0.01,0.059-0.016
					c0.132-0.041,0.261-0.086,0.388-0.136c0.007-0.003,0.015-0.005,0.022-0.008c0.404-0.16,0.785-0.365,1.139-0.614
					c0.38-0.267,0.729-0.583,1.044-0.946c0.003-0.004,0.007-0.007,0.01-0.011c0.098-0.113,0.192-0.232,0.283-0.355
					c0.008-0.011,0.016-0.021,0.024-0.031c0.085-0.115,0.165-0.236,0.243-0.359c0.013-0.02,0.026-0.038,0.038-0.058
					c0.072-0.115,0.14-0.236,0.206-0.358c0.016-0.03,0.034-0.057,0.049-0.087c0.062-0.118,0.12-0.242,0.177-0.366
					c0.016-0.036,0.035-0.07,0.051-0.106c0.071-0.161,0.137-0.327,0.199-0.497l3.191-8.777c0.444-1.221,0.473-2.202,0.08-2.763
					C140.143,118.053,139.118,117.917,138.338,117.917z M140.465,121.447l-3.191,8.777c-0.96,2.643-3.011,4.159-5.626,4.159h-14.609
					c-0.766,0-1.771-0.132-2.212-0.762c-0.382-0.545-0.351-1.51,0.087-2.714l2.46-6.797h7.381l-1.848,5.085
					c-0.321,0.929-0.097,1.531,0.146,1.873c0.233,0.326,0.694,0.714,1.567,0.714h2.792c0.703,0,1.328-0.252,1.818-0.697
					c0.347-0.315,0.628-0.724,0.814-1.221l2.428-6.703c0.322-0.928,0.098-1.531-0.145-1.873c-0.232-0.327-0.693-0.716-1.568-0.716
					h-11.915c1.098-1.654,2.873-2.6,4.887-2.6h14.608c0.767,0,1.773,0.132,2.214,0.762
					C140.934,119.28,140.903,120.243,140.465,121.447z"/>
			</g>
		</g>
		<path style="fill:#FFFFFF;" d="M129.991,129.845l2.427-6.702c0.314-0.905,0.098-1.49-0.138-1.822l-0.704,0.69
			c0.078,0.208,0.067,0.482-0.051,0.823l-2.423,6.69c-0.148,0.396-0.367,0.699-0.638,0.909l0.723,0.617
			C129.529,130.74,129.807,130.337,129.991,129.845z"/>
		<path style="fill:#FFFFFF;" d="M130.758,120.629H118.74l-1.516,0.946h13.534c0.44,0,0.713,0.156,0.818,0.436l0.704-0.69
			C132.055,121.005,131.608,120.629,130.758,120.629z"/>
		<path style="fill:#FFFFFF;" d="M123.729,117.917h14.608c0.78,0,1.805,0.136,2.26,0.785l0.608-0.753
			c-0.573-0.638-1.538-0.978-2.868-0.978h-14.608c-3.038,0-5.492,1.841-6.506,4.603l1.516-0.946
			C119.829,118.928,121.643,117.917,123.729,117.917z"/>
		<path style="fill:#FFFFFF;" d="M122.959,129.214c-0.313,0.905-0.097,1.49,0.14,1.822l0.699-0.702
			c-0.073-0.207-0.06-0.477,0.056-0.81l2.332-6.415l-1.35,0.946L122.959,129.214z"/>
		<path style="fill:#FFFFFF;" d="M124.619,131.727h2.792c0.686,0,1.295-0.244,1.775-0.678l-0.723-0.617
			c-0.295,0.23-0.652,0.349-1.053,0.349h-2.792c-0.446,0-0.721-0.16-0.822-0.448l-0.699,0.702
			C123.323,131.351,123.769,131.727,124.619,131.727z"/>
		<path style="fill:#FFFFFF;" d="M114.861,130.888l2.473-6.834l-0.664-0.946l-2.699,7.458c-0.632,1.737-0.529,3.061,0.24,3.878
			l0.568-0.79C114.388,133.093,114.416,132.111,114.861,130.888z"/>
		<path style="fill:#FFFFFF;" d="M135.001,133.417c-0.354,0.248-0.735,0.454-1.139,0.614c-0.007,0.003-0.015,0.005-0.022,0.008
			c-0.127,0.05-0.256,0.095-0.388,0.136c-0.019,0.006-0.039,0.01-0.059,0.016c-0.121,0.036-0.243,0.069-0.367,0.097
			c-0.039,0.009-0.079,0.015-0.118,0.023c-0.107,0.022-0.214,0.044-0.324,0.06c-0.071,0.011-0.144,0.016-0.216,0.024
			c-0.081,0.009-0.161,0.02-0.243,0.026c-0.157,0.011-0.316,0.017-0.477,0.017h-14.609c-0.779,0-1.804-0.136-2.258-0.785
			l-0.568,0.79c0.576,0.612,1.525,0.941,2.826,0.941h14.609c1.612,0,3.05-0.506,4.212-1.432L135.001,133.417z"/>
		<path style="fill:#FFFFFF;" d="M141.205,117.95l-0.608,0.753c0.393,0.561,0.364,1.542-0.08,2.763l-3.191,8.777
			c-0.062,0.17-0.129,0.336-0.199,0.497c-0.016,0.036-0.034,0.07-0.051,0.106c-0.057,0.124-0.115,0.248-0.177,0.366
			c-0.016,0.03-0.033,0.058-0.049,0.087c-0.066,0.122-0.134,0.243-0.206,0.358c-0.012,0.02-0.026,0.038-0.038,0.058
			c-0.078,0.123-0.159,0.243-0.243,0.359c-0.008,0.011-0.016,0.021-0.024,0.031c-0.091,0.122-0.185,0.241-0.283,0.355
			c-0.003,0.004-0.007,0.007-0.01,0.011c-0.315,0.363-0.664,0.679-1.044,0.946l0.859,0.536c1.026-0.818,1.838-1.962,2.356-3.387
			l3.191-8.777C142.028,120.08,141.941,118.77,141.205,117.95z"/>
		<polygon style="fill:#FFFFFF;" points="124.834,124.054 126.184,123.108 116.671,123.108 117.335,124.054 		"/>
		<g>
			<g>
				<path style="fill:#FFFFFF;" d="M141.495,134.439h7.502l3.763-10.385h-7.501L141.495,134.439z M152.681,124.11l-3.723,10.273
					h-7.383l3.724-10.273H152.681z"/>
			</g>
		</g>
		<g>
			<g>
				<path style="fill:#FFFFFF;" d="M165.343,117.917h-19.687l-0.995,2.711h13.071c0.92,0,1.367,0.45,1.551,0.719
					c0.234,0.34,0.441,0.933,0.099,1.825l-0.424,1.153c-0.456,1.181-1.417,1.878-2.577,1.878h-0.75l-0.876,2.405h0.091
					c0.904,0,1.347,0.439,1.531,0.7c0.233,0.332,0.444,0.912,0.126,1.794l-0.427,1.219c-0.232,0.634-0.208,1.212,0.061,1.597
					c0.235,0.336,0.659,0.521,1.194,0.521h6.701l1.046-2.904c-0.215-0.122-0.353-0.277-0.433-0.391
					c-0.159-0.225-0.387-0.709-0.133-1.418l0.188-0.503c0.125-0.326,0.14-0.602,0.044-0.785c-0.109-0.21-0.362-0.311-0.554-0.359
					l-3.531-0.89l3.518-0.941c1.233-0.327,2.022-1.18,2.639-2.851l0.705-1.931c0.444-1.219,0.472-2.2,0.079-2.761
					C167.147,118.054,166.122,117.917,165.343,117.917z M167.471,121.445l-0.706,1.931c-0.609,1.652-1.387,2.494-2.6,2.816
					l-3.545,0.942l0.001,0.108l3.558,0.89c0.181,0.045,0.418,0.139,0.518,0.331c0.088,0.169,0.072,0.431-0.047,0.739l-0.189,0.504
					c-0.263,0.734-0.026,1.236,0.139,1.47c0.077,0.109,0.209,0.26,0.411,0.384l-1.017,2.824h-6.662
					c-0.517,0-0.924-0.177-1.148-0.498c-0.259-0.37-0.279-0.934-0.055-1.546l0.427-1.219c0.326-0.903,0.107-1.501-0.133-1.844
					c-0.19-0.27-0.649-0.724-1.577-0.724h-0.012l0.835-2.293h0.71c1.184,0,2.166-0.715,2.629-1.913l0.425-1.154
					c0.351-0.914,0.136-1.525-0.105-1.876c-0.191-0.278-0.652-0.743-1.597-0.743h-12.992l0.954-2.6h19.648
					c0.766,0,1.772,0.132,2.214,0.762C167.939,119.281,167.908,120.243,167.471,121.445z"/>
			</g>
		</g>
		<polygon style="fill:#FFFFFF;" points="141.495,134.439 140.146,135.385 149.66,135.385 148.997,134.439 		"/>
		<polygon style="fill:#FFFFFF;" points="152.76,124.054 154.109,123.108 144.596,123.108 145.259,124.054 		"/>
		<polygon style="fill:#FFFFFF;" points="152.76,124.054 148.997,134.439 149.66,135.385 154.109,123.108 		"/>
		<polygon style="fill:#FFFFFF;" points="145.259,124.054 144.596,123.108 140.146,135.385 141.495,134.439 		"/>
		<path style="fill:#FFFFFF;" d="M156.077,132.321l0.427-1.219c0.318-0.882,0.107-1.462-0.126-1.794
			c-0.184-0.262-0.627-0.7-1.531-0.7h-0.091l-1.351,0.946h1.442c0.768,0,1.044,0.46,0.768,1.228l-0.43,1.226
			c-0.394,1.075-0.221,2.042,0.354,2.663l0.599-0.754C155.869,133.532,155.845,132.955,156.077,132.321z"/>
		<path style="fill:#FFFFFF;" d="M165.343,117.917c0.78,0,1.804,0.136,2.259,0.786l0.618-0.74c-0.571-0.646-1.539-0.992-2.877-0.992
			h-20.348l0.661,0.946H165.343z"/>
		<path style="fill:#FFFFFF;" d="M164.192,128.078c0.193,0.048,0.445,0.15,0.554,0.359c0.095,0.183,0.081,0.46-0.044,0.785
			l-0.188,0.503c-0.254,0.709-0.026,1.193,0.133,1.418c0.081,0.114,0.219,0.27,0.433,0.391l1.277-0.753h-0.493
			c-0.459,0-0.614-0.307-0.459-0.737l0.184-0.491c0.459-1.196-0.061-2.117-1.166-2.394l-3.76,0.027L164.192,128.078z"/>
		<path style="fill:#FFFFFF;" d="M168.22,117.963l-0.618,0.74c0.393,0.561,0.365,1.542-0.079,2.761l-0.705,1.931
			c-0.617,1.671-1.406,2.523-2.639,2.851l-3.518,0.941l3.76-0.027c1.504-0.399,2.547-1.443,3.283-3.437l0.706-1.934
			C169.03,120.089,168.945,118.784,168.22,117.963z"/>
		<polygon style="fill:#FFFFFF;" points="155.631,126.203 154.969,125.257 153.404,129.554 154.755,128.608 		"/>
		<path style="fill:#FFFFFF;" d="M157.332,134.439c-0.535,0-0.959-0.185-1.194-0.521l-0.599,0.754
			c0.411,0.444,1.026,0.714,1.794,0.714h7.365l-0.665-0.946H157.332z"/>
		<polygon style="fill:#FFFFFF;" points="164.033,134.439 164.698,135.385 166.356,130.781 165.08,131.535 		"/>
		<polygon style="fill:#FFFFFF;" points="145.656,117.917 144.995,116.971 143.307,121.574 144.661,120.629 		"/>
		<path style="fill:#FFFFFF;" d="M156.381,126.203c1.16,0,2.121-0.697,2.577-1.878l0.424-1.153c0.342-0.892,0.135-1.484-0.099-1.825
			l-0.716,0.676c0.075,0.207,0.059,0.477-0.069,0.81l-0.429,1.166c-0.308,0.798-0.921,1.258-1.689,1.258h-1.412l0.662,0.946H156.381
			z"/>
		<path style="fill:#FFFFFF;" d="M157.732,120.629h-13.071l-1.354,0.946h14.426c0.447,0,0.731,0.16,0.835,0.449l0.716-0.676
			C159.099,121.079,158.652,120.629,157.732,120.629z"/>
		<path style="fill:#FFFFFF;" d="M3.468,134.439h5.354l2.811-7.746l-1.225-5.708H8.338L3.468,134.439z M10.363,121.042l1.216,5.664
			l-2.796,7.678H3.548l4.83-13.342H10.363z"/>
		<g>
			<g>
				<path style="fill:#FFFFFF;" d="M24.799,125.58l-1.114,3.075l-0.7-3.195l-2.324-10.611H8.432l-0.976,2.711h4.945h0.762
					l0.162,0.744l3.52,16.135h10.084l7.108-19.591h-5.353L24.799,125.58z M33.958,114.904l-7.068,19.48h-10l-3.683-16.88H7.535
					l0.936-2.6h12.147l3.055,13.951l5.052-13.951H33.958z"/>
			</g>
		</g>
		<polygon style="fill:#FFFFFF;" points="34.038,114.848 35.387,113.902 28.022,113.902 28.685,114.848 		"/>
		<path style="fill:#FFFFFF;" d="M23.685,128.655l1.114-3.075l3.886-10.731l-0.663-0.946l-4.112,11.355
			C23.91,125.258,23.665,128.561,23.685,128.655z"/>
		<polygon style="fill:#FFFFFF;" points="12.401,117.56 7.455,117.56 6.109,118.506 12.401,118.506 13.162,117.56 		"/>
		<polygon style="fill:#FFFFFF;" points="16.845,134.439 16.083,135.385 27.593,135.385 26.929,134.439 		"/>
		<polygon style="fill:#FFFFFF;" points="13.325,118.304 13.162,117.56 12.401,118.506 16.083,135.385 16.845,134.439 		"/>
		<path style="fill:#FFFFFF;" d="M22.986,125.46l0.7,3.195c-0.021-0.094,0.224-3.397,0.224-3.397l-2.486-11.355l-0.761,0.946
			L22.986,125.46z"/>
		<polygon style="fill:#FFFFFF;" points="34.038,114.848 26.929,134.439 27.593,135.385 35.387,113.902 		"/>
		<polygon style="fill:#FFFFFF;" points="20.662,114.848 21.423,113.903 7.767,113.903 8.432,114.848 		"/>
		<polygon style="fill:#FFFFFF;" points="8.432,114.848 7.767,113.903 6.109,118.506 7.455,117.56 		"/>
		<polygon style="fill:#FFFFFF;" points="10.409,120.986 11.173,120.04 7.674,120.04 8.338,120.986 		"/>
		<polygon style="fill:#FFFFFF;" points="10.409,120.986 11.634,126.694 12.616,126.761 11.173,120.04 		"/>
		<polygon style="fill:#FFFFFF;" points="8.822,134.439 9.485,135.385 12.616,126.761 11.634,126.694 		"/>
		<polygon style="fill:#FFFFFF;" points="8.338,120.986 7.674,120.04 2.12,135.385 3.468,134.439 		"/>
		<polygon style="fill:#FFFFFF;" points="3.468,134.439 2.12,135.385 9.485,135.385 8.822,134.439 		"/>
		<g>
			<g>
				<path style="fill:#FFFFFF;" d="M35.787,120.629h13.684h1.346l-0.456,1.266l-0.096,0.268h5.358l1.55-4.245H36.781L35.787,120.629
					z M57.092,117.973l-1.509,4.134h-5.24l0.552-1.534H35.867l0.954-2.6H57.092z"/>
			</g>
		</g>
		<g>
			<g>
				<path style="fill:#FFFFFF;" d="M46.79,131.728h-0.665h-3.682h-1.349l0.459-1.268l0.89-2.456l0.226-0.624h0.663h6.059
					l0.876-2.405h-5.37h-1.354l0.337-0.921h-7.496l-3.765,10.385h18.549l1.528-4.246h-5.354l-0.327,0.909L46.79,131.728z
					 M47.382,130.248h5.236l-1.488,4.135H32.7l3.724-10.273h7.377l-0.337,0.921h6.724l-0.835,2.293H42.63l-1.615,4.459h5.814
					L47.382,130.248z"/>
			</g>
		</g>
		<polygon style="fill:#FFFFFF;" points="43.544,124.976 44.898,124.03 45.235,123.109 43.881,124.055 		"/>
		<polygon style="fill:#FFFFFF;" points="49.392,127.38 50.054,128.326 51.619,124.03 50.268,124.976 		"/>
		<polygon style="fill:#FFFFFF;" points="44.898,124.976 50.268,124.976 51.619,124.03 44.898,124.03 43.544,124.976 		"/>
		<polygon style="fill:#FFFFFF;" points="47.015,131.102 47.343,130.193 46.678,129.247 46.125,130.782 46.79,131.728 		"/>
		<polygon style="fill:#FFFFFF;" points="43.881,124.055 45.235,123.109 35.722,123.109 36.385,124.055 		"/>
		<polygon style="fill:#FFFFFF;" points="42.443,131.728 46.125,131.728 46.79,131.728 46.125,130.782 42.443,130.782 
			41.094,131.728 		"/>
		<polygon style="fill:#FFFFFF;" points="42.443,128.004 41.554,130.46 41.094,131.728 42.443,130.782 43.333,128.326 
			42.669,127.38 		"/>
		<polygon style="fill:#FFFFFF;" points="43.333,127.38 42.669,127.38 43.333,128.326 50.054,128.326 49.392,127.38 		"/>
		<polygon style="fill:#FFFFFF;" points="32.62,134.439 31.271,135.385 51.834,135.385 51.169,134.439 		"/>
		<polygon style="fill:#FFFFFF;" points="36.385,124.055 35.722,123.109 31.271,135.385 32.62,134.439 		"/>
		<polygon style="fill:#FFFFFF;" points="47.343,130.193 52.697,130.193 54.043,129.247 46.678,129.247 		"/>
		<polygon style="fill:#FFFFFF;" points="51.169,134.439 51.834,135.385 54.043,129.247 52.697,130.193 		"/>
		<polygon style="fill:#FFFFFF;" points="50.264,122.163 48.918,123.109 56.284,123.109 55.622,122.163 		"/>
		<polygon style="fill:#FFFFFF;" points="57.172,117.918 55.622,122.163 56.284,123.109 58.524,116.972 		"/>
		<polygon style="fill:#FFFFFF;" points="50.361,121.895 50.816,120.629 49.471,121.575 48.918,123.109 50.264,122.163 		"/>
		<polygon style="fill:#FFFFFF;" points="49.471,120.629 35.787,120.629 34.432,121.575 49.471,121.575 50.816,120.629 		"/>
		<polygon style="fill:#FFFFFF;" points="57.172,117.918 58.524,116.972 36.121,116.972 36.781,117.918 		"/>
		<polygon style="fill:#FFFFFF;" points="36.781,117.918 36.121,116.972 34.432,121.575 35.787,120.629 		"/>
		<g>
			<g>
				<path style="fill:#FFFFFF;" d="M60.029,120.629h4.63h1.349l-0.459,1.268l-4.543,12.542h7.501l4.777-13.187l0.226-0.624h0.663
					h4.711l0.994-2.711H61.023L60.029,120.629z M79.798,117.973l-0.953,2.6h-5.375l-5.003,13.811h-7.383l5.002-13.811h-5.978
					l0.953-2.6H79.798z"/>
			</g>
		</g>
		<polygon style="fill:#FFFFFF;" points="61.023,117.918 60.362,116.972 58.675,121.575 60.029,120.629 		"/>
		<polygon style="fill:#FFFFFF;" points="64.659,120.629 60.029,120.629 58.675,121.575 64.659,121.575 66.007,120.629 		"/>
		<polygon style="fill:#FFFFFF;" points="79.878,117.918 81.232,116.972 60.362,116.972 61.023,117.918 		"/>
		<polygon style="fill:#FFFFFF;" points="79.878,117.918 78.884,120.629 79.545,121.575 81.232,116.972 		"/>
		<polygon style="fill:#FFFFFF;" points="74.173,120.629 73.51,120.629 74.173,121.575 79.545,121.575 78.884,120.629 		"/>
		<polygon style="fill:#FFFFFF;" points="65.548,121.897 66.007,120.629 64.659,121.575 59.657,135.385 61.005,134.439 		"/>
		<polygon style="fill:#FFFFFF;" points="73.284,121.253 68.507,134.439 69.17,135.385 74.173,121.575 73.51,120.629 		"/>
		<polygon style="fill:#FFFFFF;" points="61.005,134.439 59.657,135.385 69.17,135.385 68.507,134.439 		"/>
		<g>
			<g>
				<path style="fill:#FFFFFF;" d="M105.745,124.59l-1.721,2.341l0.013-2.905l0.026-6.108h-5.844l-4.749,6.458l-1.708,2.322v-2.883
					v-5.897h-8.03l-0.995,2.711h0.456h0.944l0.002,0.944l0.029,12.867h5.851l4.719-6.428l1.696-2.31l0.012,2.866l0.026,5.872h7.203
					l12.145-16.522h-5.171L105.745,124.59z M115.709,117.973l-12.063,16.41h-7.119l-0.039-8.852l-6.498,8.852h-5.767l-0.032-13.811
					h-1.375l0.954-2.6h7.936v8.894l6.541-8.894h5.76l-0.04,9.129l6.709-9.129H115.709z"/>
			</g>
		</g>
		<polygon style="fill:#FFFFFF;" points="93.47,124.375 98.219,117.918 97.741,116.972 92.708,123.815 91.762,126.698 		"/>
		<polygon style="fill:#FFFFFF;" points="91.762,123.815 91.762,126.698 92.708,123.815 92.708,116.972 91.762,117.918 		"/>
		<polygon style="fill:#FFFFFF;" points="105.745,124.59 110.648,117.918 110.17,116.972 104.983,124.03 104.024,126.931 		"/>
		<polygon style="fill:#FFFFFF;" points="104.037,124.026 104.024,126.931 104.983,124.03 105.013,116.972 104.063,117.918 		"/>
		<polygon style="fill:#FFFFFF;" points="115.819,117.918 117.688,116.972 110.17,116.972 110.648,117.918 		"/>
		<polygon style="fill:#FFFFFF;" points="91.762,117.918 92.708,116.972 83.071,116.972 83.732,117.918 		"/>
		<polygon style="fill:#FFFFFF;" points="104.063,117.918 105.013,116.972 97.741,116.972 98.219,117.918 		"/>
		<polygon style="fill:#FFFFFF;" points="96.446,128.567 96.433,125.701 95.5,128.571 95.53,135.385 96.471,134.439 		"/>
		<polygon style="fill:#FFFFFF;" points="94.737,128.012 90.019,134.439 90.498,135.385 95.5,128.571 96.433,125.701 		"/>
		<polygon style="fill:#FFFFFF;" points="96.471,134.439 95.53,135.385 104.153,135.385 103.674,134.439 		"/>
		<polygon style="fill:#FFFFFF;" points="115.819,117.918 103.674,134.439 104.153,135.385 117.688,116.972 		"/>
		<polygon style="fill:#FFFFFF;" points="84.138,121.573 84.136,120.629 83.193,121.575 83.224,135.385 84.168,134.439 		"/>
		<polygon style="fill:#FFFFFF;" points="83.193,120.629 82.737,120.629 81.383,121.575 83.193,121.575 84.136,120.629 		"/>
		<polygon style="fill:#FFFFFF;" points="83.732,117.918 83.071,116.972 81.383,121.575 82.737,120.629 		"/>
		<polygon style="fill:#FFFFFF;" points="84.168,134.439 83.224,135.385 90.498,135.385 90.019,134.439 		"/>
		<g>
			<g>
				<path style="fill:#FFFFFF;" d="M171.972,120.629h0.488h1.349l-0.459,1.268l-4.543,12.542h7.504l6.002-16.522h-9.346
					L171.972,120.629z M182.232,117.973l-5.961,16.41h-7.385l5.002-13.811h-1.836l0.953-2.6H182.232z"/>
			</g>
		</g>
		<g>
			<g>
				<path style="fill:#FFFFFF;" d="M183.468,124.725l-1.184,3.257l1.567,6.457h7.953l0.976-2.712h-0.22h-0.756l-0.166-0.738
					l-1.134-5.033l-0.111-0.493l0.347-0.366l3.959-4.174l0.28-0.295h0.407h0.903l0.995-2.711h-7.265L183.468,124.725z
					 M197.203,117.973l-0.954,2.6h-1.312l-0.279,0.312l-4.327,4.562l1.428,6.336h0.942l-0.936,2.601h-7.869l-1.557-6.415
					l1.182-3.224l6.537-6.773L197.203,117.973z"/>
			</g>
		</g>
		<path style="fill:#FFFFFF;" d="M140.551,118.735c0.382,0.545,0.351,1.508-0.087,2.712l-3.191,8.777
			c-0.96,2.643-3.011,4.159-5.626,4.159h-14.609c-0.766,0-1.771-0.132-2.212-0.762c-0.382-0.545-0.351-1.51,0.087-2.714l2.46-6.797
			h7.381l-1.848,5.085c-0.321,0.929-0.097,1.531,0.146,1.873c0.233,0.326,0.694,0.714,1.567,0.714h2.792
			c0.703,0,1.328-0.252,1.818-0.697c0.347-0.315,0.628-0.724,0.814-1.221l2.428-6.703c0.322-0.928,0.098-1.531-0.145-1.873
			c-0.232-0.327-0.693-0.716-1.568-0.716h-11.915c1.098-1.654,2.873-2.6,4.887-2.6h14.608
			C139.104,117.973,140.111,118.105,140.551,118.735z M148.958,134.383l3.723-10.273h-7.382l-3.724,10.273H148.958z
			 M165.343,117.973h-19.648l-0.954,2.6h12.992c0.945,0,1.406,0.466,1.597,0.743c0.242,0.351,0.456,0.962,0.105,1.876l-0.425,1.154
			c-0.463,1.198-1.445,1.913-2.629,1.913h-0.71l-0.835,2.293h0.012c0.928,0,1.387,0.454,1.577,0.724
			c0.24,0.343,0.459,0.941,0.133,1.844l-0.427,1.219c-0.224,0.612-0.205,1.176,0.055,1.546c0.224,0.321,0.631,0.498,1.148,0.498
			h6.662l1.017-2.824c-0.202-0.124-0.334-0.275-0.411-0.384c-0.165-0.234-0.402-0.736-0.139-1.47l0.189-0.504
			c0.118-0.308,0.135-0.57,0.047-0.739c-0.1-0.192-0.337-0.286-0.518-0.331l-3.558-0.89l-0.001-0.108l3.545-0.942
			c1.213-0.323,1.991-1.165,2.6-2.816l0.706-1.931c0.437-1.202,0.468-2.165,0.086-2.71
			C167.115,118.105,166.109,117.973,165.343,117.973z M8.784,134.384l2.796-7.678l-1.216-5.664H8.377l-4.83,13.342H8.784z
			 M20.617,114.904H8.471l-0.936,2.6h5.673l3.683,16.88h10l7.068-19.48h-5.234l-5.052,13.951L20.617,114.904z M50.896,120.573
			l-0.552,1.534h5.24l1.509-4.134H36.82l-0.954,2.6H50.896z M41.015,131.783l1.615-4.459h6.723l0.835-2.293h-6.724l0.337-0.921
			h-7.377L32.7,134.384h18.43l1.488-4.135h-5.236l-0.553,1.535H41.015z M66.087,120.573l-5.002,13.811h7.383l5.003-13.811h5.375
			l0.953-2.6H61.062l-0.953,2.6H66.087z M104.007,117.973h-5.76l-6.541,8.894v-8.894H83.77l-0.954,2.6h1.375l0.032,13.811h5.767
			l6.498-8.852l0.039,8.852h7.119l12.063-16.41h-5.032l-6.709,9.129L104.007,117.973z M173.888,120.573l-5.002,13.811h7.385
			l5.961-16.41h-9.228l-0.953,2.6H173.888z M182.338,127.969l1.557,6.415h7.869l0.936-2.601h-0.942l-1.428-6.336l4.327-4.562
			l0.279-0.312h1.312l0.954-2.6l-7.146-0.001l-6.537,6.773L182.338,127.969z"/>
		<polygon style="fill:#FFFFFF;" points="195.385,120.629 194.978,120.629 195.385,121.575 196.948,121.575 196.288,120.629 		"/>
		<polygon style="fill:#FFFFFF;" points="194.698,120.924 190.739,125.098 190.392,125.464 191.426,125.749 195.385,121.575 
			194.978,120.629 		"/>
		<polygon style="fill:#FFFFFF;" points="197.283,117.918 198.637,116.972 189.615,116.972 190.017,117.918 		"/>
		<polygon style="fill:#FFFFFF;" points="197.283,117.918 196.288,120.629 196.948,121.575 198.637,116.972 		"/>
		<polygon style="fill:#FFFFFF;" points="191.804,134.439 192.469,135.385 194.126,130.782 192.78,131.728 		"/>
		<polygon style="fill:#FFFFFF;" points="183.852,134.439 183.108,135.385 192.469,135.385 191.804,134.439 		"/>
		<polygon style="fill:#FFFFFF;" points="182.284,127.982 181.298,127.927 183.108,135.385 183.852,134.439 		"/>
		<polygon style="fill:#FFFFFF;" points="183.468,124.725 182.647,124.214 181.298,127.927 182.284,127.982 		"/>
		<polygon style="fill:#FFFFFF;" points="190.017,117.918 189.615,116.972 182.647,124.214 183.468,124.725 		"/>
		<polygon style="fill:#FFFFFF;" points="172.965,117.918 172.304,116.972 170.618,121.575 171.972,120.629 		"/>
		<polygon style="fill:#FFFFFF;" points="182.311,117.918 183.661,116.972 172.304,116.972 172.965,117.918 		"/>
		<polygon style="fill:#FFFFFF;" points="173.349,121.897 173.808,120.629 172.459,121.575 167.457,135.385 168.806,134.439 		"/>
		<polygon style="fill:#FFFFFF;" points="182.311,117.918 176.31,134.439 176.972,135.385 183.661,116.972 		"/>
		<polygon style="fill:#FFFFFF;" points="172.459,120.629 171.972,120.629 170.618,121.575 172.459,121.575 173.808,120.629 		"/>
		<polygon style="fill:#FFFFFF;" points="168.806,134.439 167.457,135.385 176.972,135.385 176.31,134.439 		"/>
		<polygon style="fill:#FFFFFF;" points="192.56,131.728 192.78,131.728 194.126,130.782 192.56,130.782 191.803,131.728 		"/>
		<polygon style="fill:#FFFFFF;" points="190.503,125.957 191.637,130.99 191.803,131.728 192.56,130.782 191.426,125.749 
			190.392,125.464 		"/>
	</g>
</g>
<g id="Layer_1">
</g>
</svg>
