<?xml version="1.0" encoding="utf-8"?>
<!-- Generator: Adobe Illustrator 19.0.0, SVG Export Plug-In . SVG Version: 6.00 Build 0)  -->
<svg version="1.1" id="Layer_1" xmlns="http://www.w3.org/2000/svg" xmlns:xlink="http://www.w3.org/1999/xlink" x="0px" y="0px"
	 viewBox="-295 207 200 200" style="enable-background:new -295 207 200 200;" xml:space="preserve">
<style type="text/css">
	.st0{display:none;}
	.st1{display:inline;fill:#A67C52;}
	.st2{fill:#FFFFFF;}
</style>
<g id="_x2D__Layer_6" class="st0">
	<rect x="-590" y="414.2" class="st1" width="200" height="200"/>
</g>
<g>
	<g>
		<g>
			<g>
				<path class="st2" d="M-286.8,339.1v-64.2h44.8v64.2H-286.8z M-248.4,332.6v-51.2h-31.8v51.2H-248.4z"/>
			</g>
		</g>
	</g>
	<g>
		<path class="st2" d="M-218.1,292.9h-2.2c-2.9-4.1-5.8-8.2-8.7-12.8l0,0v12.8h-2.4v-17.8h2.2c2.9,4.1,5.8,8.1,8.6,12.7h0.1v-12.7
			h2.4L-218.1,292.9L-218.1,292.9z"/>
		<path class="st2" d="M-212.4,285.8c0.7-2.3,1.4-4.5,2.1-7.3h0.1c0.7,2.8,1.4,4.9,2,7.3H-212.4z M-211.1,275l-6.2,17.8h2.6l1.6-4.9
			h5.4l1.4,4.9h3.4l-5.7-17.8H-211.1z"/>
		<path class="st2" d="M-200.1,292.9v-15.5h-4.7V275h12.4v2.4h-4.7v15.4L-200.1,292.9L-200.1,292.9z"/>
		<path class="st2" d="M-191.4,292.9v-17.8h3v17.8H-191.4z"/>
		<path class="st2" d="M-178.9,290.6c-3.2,0-4.3-3.5-4.3-6.9c0-3.3,1.3-6.4,4.3-6.4s4.3,3.1,4.3,6.4
			C-174.6,287.1-175.6,290.6-178.9,290.6z M-178.9,293.2c4.7,0,7.6-4.2,7.6-9.5c0-5-3.2-9-7.6-9c-4.4,0-7.6,4-7.6,9
			C-186.4,289-183.6,293.2-178.9,293.2z"/>
		<path class="st2" d="M-156.1,292.9h-2.2c-2.9-4.1-5.8-8.2-8.7-12.8l0,0v12.8h-2.4v-17.8h2.2c2.9,4.1,5.8,8.1,8.6,12.7h0.1v-12.7
			h2.4L-156.1,292.9L-156.1,292.9z"/>
		<path class="st2" d="M-150.2,285.8c0.7-2.3,1.4-4.5,2.1-7.3l0,0c0.7,2.8,1.4,4.9,2,7.3H-150.2z M-149.1,275l-6.2,17.8h2.7l1.6-4.9
			h5.4l1.4,4.9h3.4l-5.7-17.8H-149.1z"/>
		<path class="st2" d="M-139.9,275h3v15.4h6v2.4h-9.1V275H-139.9z"/>
		<g>
			<path class="st2" d="M-220.1,307.8v7.4c-1.6,0.6-3.3,1.1-5.1,1.1c-5.2,0-8.6-4.1-8.6-9.3c0-4.9,3.3-9.1,8.7-9.1
				c1.7,0,3.3,0.6,4.3,1.4l-1,2.1c-0.8-0.5-2.1-0.9-3.3-0.9c-3.3,0-5.5,2.6-5.5,6.6c0,4.2,2.5,6.7,5.2,6.7c0.8,0,1.5-0.1,2.1-0.4
				v-5.5h3.2V307.8z"/>
			<path class="st2" d="M-209.1,300.5h-5.1v4.9h5v2.4h-5v5.8h6v2.4h-9.1v-17.8h8.2L-209.1,300.5L-209.1,300.5z"/>
			<path class="st2" d="M-199.6,313.7c-3.2,0-4.3-3.5-4.3-6.9c0-3.3,1.3-6.4,4.3-6.4s4.3,3.1,4.3,6.4
				C-195.4,310.2-196.6,313.7-199.6,313.7z M-199.6,316.3c4.7,0,7.6-4.2,7.6-9.5c0-5-3.2-9-7.6-9c-4.4,0-7.6,4-7.6,9
				C-207.2,312.1-204.4,316.3-199.6,316.3z"/>
			<path class="st2" d="M-177.4,307.8v7.4c-1.6,0.6-3.3,1.1-5.1,1.1c-5.3,0-8.6-4.1-8.6-9.3c0-4.9,3.3-9.1,8.7-9.1
				c1.7,0,3.3,0.6,4.3,1.4l-1,2.1c-0.8-0.5-2.1-0.9-3.3-0.9c-3.3,0-5.5,2.6-5.5,6.6c0,4.2,2.5,6.7,5.2,6.7c0.8,0,1.5-0.1,2.1-0.4
				v-5.5h3.2V307.8z"/>
			<path class="st2" d="M-171.6,300.5h1.4c1.8,0,2.8,1,2.8,2.9c0,2.4-1.5,3.5-2.9,3.5c-0.3,0-1,0.1-1.3,0.1V300.5z M-163.9,316
				l-3.6-7.4c2-1,3.1-3.2,3.1-5.3c0-3.5-2.1-5.1-5.5-5.1h-4.8V316h3.1v-6.7h1.3h0.1l2.9,6.7H-163.9z"/>
			<path class="st2" d="M-158.8,308.9c0.7-2.3,1.4-4.5,2.1-7.3h0.1c0.7,2.7,1.3,4.9,2,7.3H-158.8z M-157.6,298.1l-6.2,17.8h2.7
				l1.6-4.9h5.4l1.4,4.9h3.4l-5.7-17.8H-157.6z"/>
			<path class="st2" d="M-145.4,316h-3.1v-17.8h4.8c3.4,0,5.5,1.7,5.5,5.1c0,3-2.2,6-5.9,6h-1.4v-2.2c0.2,0,1-0.1,1.3-0.1
				c1.5-0.1,2.9-1.1,2.9-3.5c0-1.8-1-2.9-2.8-2.9h-1.4L-145.4,316L-145.4,316z"/>
			<path class="st2" d="M-123.9,316h-3.1v-8.6h-6.3v8.6h-3v-17.8h3v6.9h6.3v-6.8h3.1C-123.9,298.3-123.9,316-123.9,316z"/>
			<path class="st2" d="M-121.1,316v-17.8h3V316H-121.1z"/>
			<path class="st2" d="M-104.2,301.4c-0.7-0.5-2-1-3.1-1c-3.1,0-5.4,2.6-5.4,6.6c0,4.2,2.5,6.7,5.5,6.7c1.2,0,2.3-0.4,3.1-0.9
				l0.8,2.2c-0.9,0.6-2.5,1.2-4,1.2c-5.3,0-8.6-4.1-8.6-9.3c0-4.9,3.3-9.1,8.6-9.1c1.6,0,3.1,0.7,4.1,1.4L-104.2,301.4z"/>
		</g>
	</g>
	<g>
		<path class="st2" d="M-222.1,324.5c-0.7-0.5-2-1-3.1-1c-3.1,0-5.4,2.6-5.4,6.6c0,4.2,2.5,6.7,5.4,6.7c1.2,0,2.3-0.4,3-0.9l0.8,2.2
			c-0.9,0.6-2.5,1.2-4,1.2c-5.2,0-8.5-4.1-8.5-9.3c0-4.9,3.3-9.1,8.6-9.1c1.6,0,3.1,0.7,4.1,1.4L-222.1,324.5z"/>
		<path class="st2" d="M-207.8,339.1h-3v-8.6h-6.3v8.6h-3v-17.8h3v6.8h6.3v-6.7h3V339.1z"/>
		<path class="st2" d="M-201.6,332.1c0.7-2.3,1.4-4.5,2.1-7.2h0.1c0.7,2.7,1.3,4.9,2,7.2H-201.6z M-200.4,321.3l-6.2,17.8h2.6
			l1.5-4.9h5.4l1.4,4.9h3.4l-5.7-17.8H-200.4z"/>
		<path class="st2" d="M-177.9,339.1h-2.2c-2.9-4.1-5.8-8.2-8.6-12.8l0,0v12.8h-2.4v-17.8h2.2c2.9,4.1,5.8,8.1,8.6,12.7h0.1v-12.7
			h2.4v17.8H-177.9z"/>
		<path class="st2" d="M-161.6,339.1h-2.2c-2.9-4.1-5.8-8.2-8.6-12.8l0,0v12.8h-2.4v-17.8h2.2c2.9,4.1,5.8,8.1,8.6,12.7h0.1v-12.7
			h2.4v17.8H-161.6z"/>
		<path class="st2" d="M-151.1,323.7h-5.1v4.9h5v2.4h-5v5.7h6v2.4h-9v-17.8h8.1V323.7z"/>
		<path class="st2" d="M-148.6,321.3h3v15.4h6v2.4h-9V321.3z"/>
	</g>
</g>
</svg>
