<?xml version="1.0" encoding="utf-8"?>
<!-- Generator: Adobe Illustrator 19.0.0, SVG Export Plug-In . SVG Version: 6.00 Build 0)  -->
<svg version="1.1" id="Layer_1" xmlns="http://www.w3.org/2000/svg" xmlns:xlink="http://www.w3.org/1999/xlink" x="0px" y="0px"
	 viewBox="-295 207 200 200" style="enable-background:new -295 207 200 200;" xml:space="preserve">
<style type="text/css">
	.st0{display:none;}
	.st1{display:inline;fill:#A67C52;}
	.st2{fill:#FFFFFF;}
</style>
<g id="_x2D__Layer_6" class="st0">
	<rect x="-590" y="414.2" class="st1" width="200" height="200"/>
</g>
<g>
	<g>
		<path class="st2" d="M-219.5,298.3c1.5,9,3,17.9,4.5,28.5h0.1c2.4-10.4,4.9-19.2,7.3-28h8.3c2.5,8.7,5.2,17.5,7.7,28h0.1
			c1.4-10.7,2.8-19.6,4.2-28.5l8.7,1.1l-7.9,39.4h-11.1c-2.2-7.4-4.4-14.8-6.5-24h-0.1c-1.9,9.1-3.9,16.6-5.9,24h-11.2l-8.3-39.4
			L-219.5,298.3z"/>
		<path class="st2" d="M-176.6,338.8v-39.9h10v39.9H-176.6z"/>
		<path class="st2" d="M-162.2,298.9h10v32.5h12.1v7.5h-22.1V298.9z"/>
		<path class="st2" d="M-124.2,298.9c13.2,0,18.3,9.2,18.3,18.8c0,14.6-8.8,21.1-18.7,21.1h-12.5v-39.9H-124.2z M-127.1,331.4h2.5
			c5.7,0,8.4-5.5,8.4-13.6c0-7.2-3.7-11.4-8.1-11.4h-2.9L-127.1,331.4L-127.1,331.4z"/>
	</g>
	<g>
		<path class="st2" d="M-212.2,294.3h-2.3c-3.1-4.5-6.2-8.9-9.2-13.9l0,0v13.9h-2.6v-19.4h2.4c3.1,4.5,6.1,8.9,9.2,13.9h0.1v-13.9
			h2.6v19.4H-212.2z"/>
		<path class="st2" d="M-201.6,274.9l6.1,19.4h-3.6l-1.5-5.3h-5.7l-1.7,5.3h-2.8l6.6-19.4H-201.6z M-201.2,286.6
			c-0.7-2.6-1.4-4.9-2.1-7.9l0,0c-0.7,3-1.4,5.4-2.2,7.9H-201.2z"/>
		<path class="st2" d="M-192.2,294.3v-16.8h-5v-2.6h13.2v2.6h-5v16.8H-192.2z"/>
		<path class="st2" d="M-163.5,285.8v7.7c-1.7,0.7-3.4,1.1-5.2,1.1c-5.3,0-8.7-4.3-8.7-9.7c0-5.1,3.4-9.5,8.8-9.5
			c1.7,0,3.4,0.6,4.4,1.4l-1,2.2c-0.8-0.5-2.1-1-3.3-1c-3.3,0-5.6,2.7-5.6,6.9c0,4.4,2.6,7,5.3,7c0.8,0,1.5-0.1,2.2-0.4v-5.7H-163.5
			z"/>
		<path class="st2" d="M-151.9,278.2h-5.2v5.1h5.1v2.5h-5.1v6h6.1v2.5h-9.2v-18.6h8.3V278.2L-151.9,278.2z"/>
		<path class="st2" d="M-149.6,284.8c0-5.2,3.3-9.4,7.7-9.4s7.7,4.1,7.7,9.4c0,5.6-3,9.9-7.7,9.9
			C-146.7,294.7-149.6,290.3-149.6,284.8z M-137.6,284.8c0-3.4-1.3-6.7-4.4-6.7s-4.4,3.3-4.4,6.7c0,3.6,1.1,7.2,4.4,7.2
			C-138.7,292-137.6,288.3-137.6,284.8z"/>
	</g>
	<g>
		<g>
			<g>
				<path class="st2" d="M-284,339.1v-63.8h44.5v63.8H-284z M-245.9,332.7v-51h-31.7v51H-245.9z"/>
			</g>
		</g>
	</g>
</g>
</svg>
