<?xml version="1.0" encoding="utf-8"?>
<!-- Generator: Adobe Illustrator 19.0.0, SVG Export Plug-In . SVG Version: 6.00 Build 0)  -->
<svg version="1.1" id="Layer_1" xmlns="http://www.w3.org/2000/svg" xmlns:xlink="http://www.w3.org/1999/xlink" x="0px" y="0px"
	 viewBox="-43 117 200 200" style="enable-background:new -43 117 200 200;" xml:space="preserve">
<style type="text/css">
	.st0{fill:#FFFFFF;}
</style>
<g id="nickjr_x5F_white">
	<g>
		<path class="st0" d="M99.9,190.2c3.1,0,5.6,2.5,5.6,5.6s-2.5,5.6-5.6,5.6c-3.1,0-5.6-2.5-5.6-5.6
			C94.3,192.7,96.8,190.2,99.9,190.2z M6.7,231.9H-4.6v-13.5c0-1.6-0.4-3-1.1-4.1c-0.6-1.1-1.5-1.7-2.6-1.7c-1,0-1.8,0.6-2.6,1.7
			c-0.6,1.1-1.1,2.5-1.1,4.1v7.5v5.9h-11.3v-13.7c0-4.1,1.7-7.9,4.4-10.6c2.7-2.7,6.5-4.4,10.6-4.4s7.9,1.7,10.6,4.4
			c2.7,2.7,4.4,6.5,4.4,10.6L6.7,231.9L6.7,231.9z M17.3,206.1l1.3,1.3c1.1,1.1,1.7,2.5,1.7,4.1v20.4H8.7v-20.5c0-1.6,0.6-3,1.7-4.1
			l1.3-1.3c2.3-2.3,2.1-2.8-0.3-5.2l-1.5-1.3c-1.2-1.2-1.8-2.7-1.8-4.4c0-1.7,0.8-3.3,1.8-4.4c1.2-1.2,2.7-1.8,4.4-1.8
			s3.3,0.8,4.4,1.8c1.2,1.2,1.8,2.7,1.8,4.4c0,1.7-0.8,3.3-1.8,4.4l-1.4,1.4C15.2,203.3,15,203.8,17.3,206.1z M34.1,222.9
			c0.6,1.2,1.5,1.9,2.6,1.9c1,0,1.8-0.8,2.6-1.9c0.5-1,0.9-2.1,1-3.3h11.3c-0.4,5.2-3.3,8.4-5.2,10c-2.6,2.3-6,3.6-9.7,3.6
			c-4.9,0-8.5-2.3-10.6-4.4c-2.7-2.7-4.4-6.5-4.4-10.6c0-4.1,1.7-7.9,4.4-10.6c2.7-2.7,6.5-4.4,10.6-4.4s7.9,1.7,10.6,4.4
			c2.4,2.4,4,5.6,4.3,9.2H40.3c-0.1-1.3-0.4-2.4-1-3.3c-0.6-1.2-1.5-1.9-2.6-1.9c-1,0-1.8,0.8-2.6,1.9c-0.6,1.3-1.1,2.9-1.1,4.8
			C33.2,220.1,33.5,221.7,34.1,222.9z M79.7,231.9L79.7,231.9h-9.2l-6-9v9H53.1v-23c0-3.1,2.6-5.7,5.7-5.7c3.1,0,5.7,2.6,5.7,5.7
			v6.2l5.2-9.2c1.6-2.7,5.1-3.6,7.8-2.1c2.7,1.6,3.6,5.1,2.1,7.8l-4.3,7.8l6.3,9.4c0.2,0.3,0.3,0.6,0.3,1.1
			C81.8,230.9,80.8,231.9,79.7,231.9z M105.6,221.5c0,6.9-3.3,11.4-11.4,11.4h-0.3c-2.8,0-5.8-0.8-7.7-1.9c-3.2-2.1-5.3-5.5-3.2-9.1
			c1.9-3.3,8.9-4,9.8,1.8c0.3,2.1,1.4,1.7,1.4-0.1v-13.8c0-4.1,2.6-6.7,5.7-6.7s5.7,2.6,5.7,5.7L105.6,221.5z M121.7,213.1
			c-1.3,0.5-1.9,2.4-1.9,3.5v15.3h-11.3v-23c0-3.1,2.6-5.7,5.7-5.7c2.5,0,4.6,1.6,5.4,4c0.2-0.2,0.8-0.6,1-0.9l0,0
			c3.1-2.4,5.7-3.6,9.5-2.9c3.1,0.5,5.1,3.6,4.5,6.6c-0.5,3.1-4.2,5.5-9,3.7C124.2,213.2,123,212.5,121.7,213.1z M129.5,232.2
			c-3.1,0-5.6-2.5-5.6-5.6s2.5-5.6,5.6-5.6c3.1,0,5.6,2.5,5.6,5.6C135.1,229.6,132.5,232.2,129.5,232.2z"/>
	</g>
</g>
<g id="Layer_1_1_">
</g>
</svg>
