<?xml version="1.0" encoding="iso-8859-1"?>
<!-- Generator: Adobe Illustrator 19.2.0, SVG Export Plug-In . SVG Version: 6.00 Build 0)  -->
<svg version="1.1" xmlns="http://www.w3.org/2000/svg" xmlns:xlink="http://www.w3.org/1999/xlink" x="0px" y="0px"
	 viewBox="0 0 200 200" style="enable-background:new 0 0 200 200;" xml:space="preserve">
<g id="POLARIS">
	<g>
		<path style="fill:#FFFFFF;" d="M126.443,101.43c1.531,3.619,3.041,7.186,4.551,10.753c0.297,0.701,0.627,1.39,0.88,2.107
			c0.225,0.64,0.052,1.085-0.744,1.036c-0.036-0.002-0.073-0.001-0.109,0c-2.702,0.098-2.699,0.097-3.763-2.414
			c-1.401-3.307-2.824-6.604-4.196-9.922c-0.249-0.602-0.569-0.802-1.205-0.788c-1.815,0.04-3.632,0.014-5.631,0.014
			c0,0.427,0,0.807,0,1.187c0,3.563-0.025,7.126,0.016,10.688c0.011,0.955-0.317,1.28-1.268,1.25
			c-2.765-0.087-2.461,0.393-2.463-2.415c-0.009-11.888-0.004-23.776-0.003-35.665c0-1.577,0.023-1.613,1.567-1.595
			c3.341,0.04,6.707-0.141,10.016,0.209c4.404,0.466,7.492,4.024,7.63,8.426c0.101,3.231,0.134,6.474-0.025,9.7
			c-0.143,2.902-1.678,5.12-4.097,6.716C127.241,100.955,126.87,101.168,126.443,101.43z M116.261,98.498
			c0.506,0,0.897,0.004,1.289-0.001c1.923-0.021,3.861,0.098,5.766-0.1c2.952-0.306,4.745-2.495,4.752-5.508
			c0.007-2.761,0.018-5.521-0.004-8.282c-0.019-2.379-1.593-4.71-3.901-4.989c-2.589-0.313-5.245-0.072-7.902-0.072
			C116.261,85.765,116.261,92.042,116.261,98.498z"/>
		<path style="fill:#FFFFFF;" d="M55.161,95.591c0,3.743,0,7.485,0,11.228c-0.001,4.882-3.431,8.68-8.311,9.102
			c-3.359,0.29-6.545-0.119-9.036-2.75c-1.617-1.708-2.488-3.712-2.486-6.086c0.007-7.703-0.001-15.406,0.004-23.109
			c0.003-4.769,3.865-8.789,8.64-8.893c1.546-0.034,3.151-0.003,4.638,0.366c3.926,0.975,6.549,4.539,6.551,8.588
			C55.163,87.888,55.161,91.739,55.161,95.591z M38.997,95.461c0,3.815-0.014,7.629,0.005,11.444
			c0.013,2.593,1.674,4.692,4.22,5.226c0.944,0.198,1.946,0.162,2.922,0.156c2.974-0.017,5.338-2.35,5.345-5.316
			c0.019-7.629,0.018-15.258,0.001-22.887c-0.006-2.718-1.871-4.857-4.583-5.234c-0.962-0.134-1.963-0.17-2.928-0.071
			c-3.054,0.314-4.972,2.493-4.98,5.565C38.99,88.05,38.996,91.755,38.997,95.461z"/>
		<path style="fill:#FFFFFF;" d="M101.343,102.255c-3.886,0-7.727,0-11.734,0c0,0.409,0,0.792,0,1.175
			c0,3.488,0.001,6.976-0.001,10.464c-0.001,1.413-0.019,1.446-1.383,1.43c-2.559-0.03-2.323,0.417-2.334-2.304
			c-0.008-1.998,0.086-4.001-0.019-5.994c-0.248-4.688,0.395-9.214,1.748-13.721c1.635-5.446,2.965-10.985,4.373-16.497
			c0.226-0.885,0.629-1.188,1.504-1.156c1.379,0.052,2.762,0.042,4.141,0.003c0.773-0.022,1.178,0.23,1.385,1.025
			c1.975,7.574,3.987,15.139,5.98,22.709c0.082,0.311,0.11,0.644,0.111,0.967c0.007,4.614-0.012,9.229,0.02,13.843
			c0.006,0.831-0.199,1.17-1.096,1.146c-2.949-0.077-2.568,0.345-2.582-2.527c-0.017-3.415-0.013-6.83-0.021-10.246
			C101.436,102.504,101.398,102.437,101.343,102.255z M90.174,98.426c3.619,0,7.08,0,10.632,0c-0.051-0.335-0.069-0.618-0.139-0.888
			c-1.498-5.781-2.996-11.563-4.521-17.337c-0.084-0.319-0.401-0.578-0.609-0.864c-0.22,0.314-0.551,0.598-0.644,0.946
			c-1.107,4.125-2.182,8.259-3.256,12.393C91.147,94.556,90.678,96.441,90.174,98.426z"/>
		<path style="fill:#FFFFFF;" d="M13.69,102.182c0,3.974,0.001,7.75,0,11.526c0,1.657-0.012,1.672-1.616,1.671
			c-2.35-0.002-2.1,0.179-2.101-2.116C9.968,101.268,9.97,89.273,9.971,77.277c0-1.611,0.002-1.631,1.643-1.608
			c3.376,0.046,6.775-0.105,10.123,0.232c4.233,0.427,7.444,4.344,7.461,8.602c0.011,2.799,0.003,5.598,0.002,8.397
			c-0.001,5.149-3.572,8.987-8.737,9.262C18.259,102.28,16.044,102.182,13.69,102.182z M13.729,98.498
			c2.078,0,4.031,0.002,5.985-0.002c0.326-0.001,0.655-0.002,0.976-0.047c2.939-0.411,4.818-2.525,4.839-5.481
			c0.019-2.795,0.033-5.59-0.009-8.385c-0.037-2.485-1.693-4.61-4.141-5.042c-1.552-0.274-3.174-0.166-4.765-0.206
			c-0.962-0.024-1.925-0.004-2.884-0.004C13.729,85.785,13.729,92.06,13.729,98.498z"/>
		<path style="fill:#FFFFFF;" d="M160.579,115.959c-3.719,0.161-6.778-1.055-8.854-4.28c-1.125-1.747-1.472-3.7-1.315-5.733
			c0.023-0.303,0.521-0.768,0.844-0.809c0.781-0.099,1.758-0.252,2.326,0.121c0.418,0.274,0.345,1.34,0.439,2.06
			c0.391,2.999,2.61,4.983,5.638,4.969c1.121-0.005,2.271,0.036,3.357-0.189c2.443-0.506,3.942-2.589,4.179-5.067
			c0.387-4.046-1.286-6.857-4.754-8.771c-2.129-1.175-4.268-2.34-6.331-3.624c-2.661-1.657-4.652-3.89-5.021-7.144
			c-0.411-3.625-0.242-7.138,2.657-9.91c2.686-2.568,7.394-3.352,11.007-1.791c3.49,1.508,5.574,4.885,5.544,8.877
			c-0.007,0.923-0.295,1.289-1.263,1.281c-2.37-0.02-2.37,0.02-2.528-2.309c-0.18-2.667-2.352-4.705-5.227-4.905
			c-4.149-0.288-6.546,2.026-6.665,6.171c-0.087,3.012,1.149,5.183,3.621,6.725c1.446,0.902,2.978,1.666,4.42,2.575
			c1.684,1.062,3.426,2.079,4.937,3.359c2.151,1.821,3.226,4.272,3.181,7.122c-0.025,1.591,0.054,3.24-0.331,4.757
			c-0.965,3.806-4.497,6.415-8.446,6.516C161.524,115.97,161.051,115.96,160.579,115.959z"/>
		<path style="fill:#FFFFFF;" d="M65.851,111.709c0.507,0,0.896,0,1.286,0c3.926,0,7.852,0.024,11.778-0.016
			c0.988-0.01,1.352,0.308,1.333,1.319c-0.052,2.681,0.131,2.307-2.256,2.312c-4.871,0.011-9.742-0.02-14.613,0.023
			c-0.974,0.009-1.233-0.316-1.231-1.255c0.026-12.396,0.026-24.791,0-37.187c-0.002-0.966,0.329-1.268,1.265-1.256
			c2.732,0.036,2.438-0.138,2.438,2.386c0.001,10.76,0.001,21.52,0.001,32.28C65.851,110.741,65.851,111.167,65.851,111.709z"/>
		<path style="fill:#FFFFFF;" d="M143.496,95.482c0,6.106,0.001,12.212-0.001,18.319c0,1.51-0.427,1.933-1.933,1.942
			c-2.056,0.012-2.437-0.261-2.436-1.865c0.011-12.357,0.03-24.714,0.052-37.071c0.002-1.139,0.444-1.569,1.57-1.598
			c0.182-0.005,0.363-0.001,0.545-0.001c1.933,0,2.222,0.281,2.223,2.174c0.001,6.033,0,12.067,0,18.1
			C143.51,95.482,143.503,95.482,143.496,95.482z"/>
		<path style="fill:#FFFFFF;" d="M11.766,117.544c0.952,2.262,2.468,3.773,5.032,4.675c-2.451,1.045-4.136,2.457-5.018,4.793
			c-1.015-2.19-2.449-3.825-4.787-4.716C9.235,121.319,10.808,119.795,11.766,117.544z"/>
		<g>
			<path style="fill:#FFFFFF;" d="M193.954,96.544h-8.084v8.084c0,0.197-0.197,0.394-0.394,0.394h-1.577
				c-0.197,0-0.394-0.197-0.394-0.394v-8.084h-8.084c-0.263,0-0.394-0.197-0.394-0.394v-1.577c0-0.197,0.131-0.394,0.394-0.394
				h8.084v-8.15c0-0.197,0.197-0.329,0.394-0.329h1.577c0.197,0,0.394,0.132,0.394,0.329v8.15h8.084
				c0.263,0,0.395,0.197,0.395,0.394v1.577C194.349,96.347,194.217,96.544,193.954,96.544z"/>
		</g>
	</g>
</g>
<g id="Layer_1">
</g>
</svg>
