<?xml version="1.0" encoding="iso-8859-1"?>
<!-- Generator: Adobe Illustrator 19.2.1, SVG Export Plug-In . SVG Version: 6.00 Build 0)  -->
<svg version="1.1" xmlns="http://www.w3.org/2000/svg" xmlns:xlink="http://www.w3.org/1999/xlink" x="0px" y="0px"
	 viewBox="0 0 200 200" style="enable-background:new 0 0 200 200;" xml:space="preserve">
<g id="syfy_x5F_no_x5F_white">
	<g>
		<path style="fill:#FFFFFF;" d="M129.142,84.404h-10.922v-1.197c-0.003-0.724,0.027-1.505,0.157-2.209
			c0.09-0.523,0.234-0.982,0.4-1.327c0.273-0.527,0.466-0.789,1.061-1.153c0.598-0.347,1.821-0.815,4.253-0.818h7.451V65.749h-7.451
			c-3.538-0.002-6.648,0.627-9.287,1.918c-1.972,0.959-3.63,2.301-4.861,3.791c-1.862,2.247-2.754,4.704-3.199,6.767
			c-0.443,2.071-0.473,3.847-0.473,4.982l0.001,32.297h11.953l-0.003-19.796h10.922V84.404L129.142,84.404z"/>
		<path style="fill:#FFFFFF;" d="M147.461,134.251c10.512-0.009,16.064-7.695,16.083-14.919V84.404h-11.232v14.486v2.906
			c0,0.794-0.1,1.879-0.957,2.819c-0.841,0.924-1.932,1.628-3.728,1.619c-1.873,0.012-3.203-0.683-3.877-1.63
			c-0.677-0.941-0.808-2.021-0.81-2.807V84.404h-11.398v17.639c0.012,7.355,5.452,14.906,14.591,14.925
			c1.783,0,3.551-0.366,5.273-1.051l0.831-0.33l-0.002,0.893l-0.003,2.56c0,0.535-0.013,1.279-0.578,2.271
			c-0.556,0.999-1.789,1.976-3.862,1.959c-1.869,0.009-3.071-0.818-3.708-1.665c-0.649-0.844-0.794-1.668-0.815-1.784l-11.526-0.045
			l0.231,1.837C133.31,127.917,139.054,134.264,147.461,134.251L147.461,134.251z"/>
		<path style="fill:#FFFFFF;" d="M87.763,134.251c10.512-0.009,16.064-7.695,16.084-14.919V84.404H92.616v14.486v2.906
			c0,0.794-0.052,1.852-0.958,2.819c-0.855,0.915-1.932,1.628-3.729,1.619c-1.873,0.012-3.202-0.683-3.876-1.63
			c-0.679-0.941-0.808-2.021-0.811-2.807V84.404H71.844v17.639c0.013,7.355,5.451,14.906,14.59,14.925
			c1.784,0,3.551-0.366,5.276-1.051l0.829-0.33v0.893l-0.005,2.56c0,0.527-0.01,1.279-0.579,2.271
			c-0.556,0.999-1.789,1.976-3.861,1.959c-1.87,0.009-3.072-0.818-3.709-1.665c-0.646-0.844-0.793-1.668-0.814-1.784l-11.526-0.045
			l0.23,1.837C73.612,127.917,79.354,134.264,87.763,134.251L87.763,134.251z"/>
		<path style="fill:#FFFFFF;" d="M36.469,100.891c0,0,0.008-0.981,0.046-1.56l11.288,0.031l-0.033,0.688
			c-0.011,2.02,1.216,3.943,2.295,4.733c1.077,0.798,2.619,1.057,3.56,1.057c2.415-0.002,4.62-1.478,4.649-3.746l-0.004-0.208
			c-0.078-1.77-1.199-2.738-2.802-3.49c-1.438-0.674-3.902-1.718-6.572-3.042c-2.673-1.325-5.561-2.933-7.836-4.73
			c-3.289-2.603-4.769-5.96-4.589-10.626c0.152-3.975,1.883-7.397,5.111-10.23c3.231-2.837,7.211-3.968,11.429-3.966
			c5.364-0.002,9.84,2.161,12.803,5.685c3.003,3.693,3.581,7.188,3.709,9.763l0.022,0.494l-11.712,0.001
			c-0.12-1.206-0.689-2.648-1.374-3.433c-0.806-0.93-2.045-1.536-3.599-1.531c-0.896,0.005-1.945,0.269-2.829,0.831
			c-0.872,0.547-1.594,1.455-1.589,2.65c-0.013,1.293,0.59,2.3,2.252,3.145c1.63,0.846,6.55,3.02,7.242,3.288
			c7.018,2.734,11.455,7.16,11.958,13.842c0.011,0.145,0.013,0.3,0.013,0.465c0.008,2.258-0.67,6.168-3.257,9.579
			c-2.594,3.413-7.087,6.392-12.971,6.392C42.04,116.931,36.495,108.484,36.469,100.891L36.469,100.891z"/>
	</g>
</g>
<g id="Layer_1">
</g>
</svg>
