<?xml version="1.0" encoding="iso-8859-1"?>
<!-- Generator: Adobe Illustrator 19.2.0, SVG Export Plug-In . SVG Version: 6.00 Build 0)  -->
<svg version="1.1" xmlns="http://www.w3.org/2000/svg" xmlns:xlink="http://www.w3.org/1999/xlink" x="0px" y="0px"
	 viewBox="0 0 200 200" style="enable-background:new 0 0 200 200;" xml:space="preserve">
<g id="TBS">
	<g>
		<g>
			<g>
				<path style="fill:#FFFFFF;" d="M163.019,52.75H11.345v68.486l26.014,26.014h149.483V76.574L163.019,52.75z M59.256,101.819
					H45.668v31.728L27.12,115V66.296h18.547v16.975h13.588V101.819z M95.574,135.232c-5.968,0-11.484-1.921-15.975-5.172v3.486
					H63.88v-67.25h17.84v18.15c4.061-2.399,8.795-3.781,13.854-3.781c15.068,0,27.284,12.215,27.284,27.284
					C122.857,123.017,110.642,135.232,95.574,135.232z M173.139,116.028c0,10.867-8.944,17.519-22.842,17.519h-12.882l-13.66-13.675
					h25.234c3.104,0,4.435-0.813,4.435-2.218v-0.148c0-1.479-1.626-2.291-7.17-3.4c-11.606-2.366-21.807-5.692-21.807-16.633v-0.148
					c0-9.832,7.688-17.446,21.955-17.446h9.815l13.567,13.675h-21.852c-2.587,0-3.77,0.887-3.77,2.144v0.148
					c0,1.405,1.405,2.292,6.875,3.326c13.232,2.44,22.103,6.284,22.103,16.707V116.028z M95.574,98.473
					c-5.233,0-9.476,4.242-9.476,9.476c0,5.233,4.242,9.475,9.476,9.475c5.233,0,9.476-4.242,9.476-9.475
					C105.049,102.716,100.807,98.473,95.574,98.473z"/>
			</g>
		</g>
		<g>
			<path style="fill:#FFFFFF;" d="M190.738,144.253v0.361h-1.011v2.636h-0.41v-2.636h-1.013v-0.361H190.738z"/>
			<path style="fill:#FFFFFF;" d="M191.271,144.253h0.579l0.861,2.534l0.867-2.534h0.577v2.997h-0.386v-1.769
				c0-0.062,0.004-0.161,0.009-0.304c0.004-0.141,0.009-0.292,0.009-0.453l-0.874,2.526h-0.405l-0.871-2.526v0.09
				c0,0.073,0.003,0.186,0.007,0.337c0.005,0.15,0.009,0.26,0.009,0.329v1.769h-0.383V144.253z"/>
		</g>
	</g>
</g>
<g id="Layer_1">
</g>
</svg>
