<?xml version="1.0" encoding="iso-8859-1"?>
<!-- Generator: Adobe Illustrator 19.2.0, SVG Export Plug-In . SVG Version: 6.00 Build 0)  -->
<svg version="1.1" xmlns="http://www.w3.org/2000/svg" xmlns:xlink="http://www.w3.org/1999/xlink" x="0px" y="0px"
	 viewBox="0 0 200 200" style="enable-background:new 0 0 200 200;" xml:space="preserve">
<g id="TRAVEL">
	<g>
		<polygon style="fill:#FFFFFF;" points="181.257,61.497 171.07,61.497 188.861,100.009 170.689,138.573 180.876,138.573 
			198.25,100.009 		"/>
		<g>
			<path style="fill:#FFFFFF;" d="M111.782,124.913c0.023,0,2.437,0,2.437,0l-1.217-4.093
				C113.001,120.82,111.757,124.913,111.782,124.913z"/>
			<path style="fill:#FFFFFF;" d="M70.895,103.23c-1.121,0.094-4.261,0.932-3.396,3.96c0.687,2.362,4.912,0.596,5.345-0.178
				c0-0.417,0-3.782,0-3.782S71.506,103.176,70.895,103.23z"/>
			<path style="fill:#FFFFFF;" d="M121.403,92.294c-3.599,0-3.577,5.306-3.577,5.306h6.768
				C124.594,97.6,124.734,92.294,121.403,92.294z"/>
			<g>
				<path style="fill:#FFFFFF;" d="M166.555,61.427H1.677v47c0,16.599,13.459,30.052,30.056,30.052v0.018h134.722l17.688-38.558
					v-0.006L166.555,61.427z M40.82,113.749c0,0.45-0.33,0.707-0.904,0.707c-0.58,0-4.193,0-6.007,0c-2.504,0-9.747-1.4-9.747-10.84
					V78.796c0-0.383,0.207-0.698,0.639-0.831c1.852-0.567,7.371-2.332,7.556-2.391c0.185-0.059,0.969-0.127,0.969,0.648
					c0,0.777,0,9.944,0,9.944h6.44c0,0,0.781,0.132,0.781,0.907c0,0.777,0,5.831,0,5.831s0.049,0.818-0.781,0.818
					c-0.644,0-6.649,0-6.649,0s0,9.353,0,10.515c0,1.166,0.991,2.814,2.819,2.814c1.098,0,3.836,0.009,4.286,0.009
					c0.451,0,0.597,0.484,0.597,1.067C40.82,108.707,40.82,113.292,40.82,113.749z M52.136,113.743c0,0.645-0.401,0.751-0.975,0.751
					c-0.583,0-7.04,0.025-7.429,0.025c-0.386,0-0.799-0.328-0.799-0.782c0-0.448-0.031-26.724-0.031-26.724
					c0-0.91,0.645-0.977,1.104-0.977c0.448,0,4.444,0,5.126,0c0.673,0,0.817,0.454,0.941,0.777c0.13,0.324,1.42,3.36,1.42,3.36
					s2.579-4.458,8.652-4.458c0.718,0,0.777,0.713,0.777,1.49c0,0.771,0,5.801,0,5.945c0,0.36-0.319,0.896-0.777,0.896
					c-0.448,0-6.388,0.259-8.007,2.132C52.136,96.177,52.136,113.098,52.136,113.743z M81.879,113.669
					c0,0.389-0.074,0.85-0.513,0.85c-0.439,0-6.162-0.036-6.162-0.036l-1.208-2.695c0,0-3.076,3.278-7.356,3.278
					c-5.278,0-8.626-3.717-8.626-9.243c0-7.212,6.058-8.282,11.336-8.282c1.988,0,3.368,0,3.368,0s0-1.163,0-1.693
					c0-0.532-0.625-2.194-3.028-2.194c-2.757,0-6.238,0-6.238,0c-0.487,0-0.732-0.484-0.732-0.971c0-0.481,0.042-5.577,0.042-5.96
					c0-0.388,0.484-0.492,0.876-0.492c0.383,0,5.81,0,7.114,0c1.312,0,11.127-1.352,11.127,10.992
					C81.879,109.733,81.879,113.289,81.879,113.669z M82.281,87.168c-0.191-0.631,0.093-1.163,0.724-1.163c0.631,0,7.574,0,8.007,0
					c0.44,0,0.954,0.386,1.053,1.02c0.096,0.628,3.971,20.298,3.971,20.298s3.83-20.154,3.977-20.639
					c0.144-0.482,0.63-0.58,1.112-0.58c0.484,0,7.117,0,7.649,0c0.535,0,0.484,0.58,0.389,0.921
					c-0.094,0.341-8.142,27.458-8.142,27.458H90.372L82.281,87.168z M95.118,126.548c1.397,1.115,3.166-0.053,3.166-0.053
					l0.688,1.453c-4.194,1.765-5.593-0.601-6.19-1.719c-0.598-1.106-1.031-5.728,1.712-7.046c2.371-1.137,4.478,0.324,4.478,0.324
					l-0.715,1.335c-1.051-0.69-2.85-0.662-3.594,0.372C93.921,122.245,93.719,125.437,95.118,126.548z M107.583,128.579h-1.724
					l0.015-4.075l-3.534-0.006v4.081h-1.685v-9.705h1.685v4.053l3.534-0.015v-4.038h1.709V128.579z M121.858,85.714
					c4.698,0,12.302,1.406,11.922,17.436h-15.864c0,0-0.226,3.882,5.005,3.923c3.221,0.022,5.314-0.978,5.85-1.123
					c0.529-0.144,0.727-0.144,0.923,0.338c1.112,2.79,1.189,2.869,2.098,5.413c0.224,0.614-0.067,0.791-0.496,1.081
					c-0.445,0.291-3.815,2.146-8.223,2.146c-4.41,0-14.146-2.087-14.146-13.858C108.926,88.43,117.158,85.714,121.858,85.714z
					 M115.255,128.579l-0.702-2.132h-3.227l-0.64,2.132h-1.704l3.037-9.705h1.99l3.079,9.705H115.255z M125.618,128.579h-1.675
					l-3.605-6.53l0.014,6.53h-1.74v-9.705h1.689l3.605,6.364v-6.364h1.712V128.579z M135.143,128.579h-1.692l-3.619-6.494
					l0.034,6.494h-1.757v-9.705h1.706l3.577,6.387v-6.387h1.751V128.579z M135.54,78.983c0-0.6,0.216-1.002,0.729-1.202
					c0.476-0.191,7.308-2.481,7.708-2.583c0.591-0.146,0.859,0.344,0.859,0.781c0,0.436-0.045,27.171-0.045,28.193
					c0,1.012,0.918,2.749,2.802,2.749c1.888,0,2.471,0,2.864,0c0.384,0,0.581,0.493,0.581,0.978c0,0.484,0,5.334,0,5.818
					c0,0.482-0.293,0.724-0.924,0.724c-0.633,0-3.052,0-4.748,0c-1.693,0-9.677-1.312-9.677-10.373
					C135.689,95.017,135.54,78.983,135.54,78.983z M143.417,120.358h-4.137v2.554h3.222v1.529h-3.233v2.58h4.148v1.558h-5.874
					v-9.705h5.874V120.358z M150.959,128.579h-5.622v-9.705h1.772v8.153h3.849V128.579z M151.421,120.53
					c-0.078,0.167-0.181,0.31-0.312,0.43c-0.13,0.12-0.281,0.213-0.454,0.277c-0.173,0.066-0.352,0.099-0.542,0.099
					c-0.21,0-0.401-0.035-0.577-0.104c-0.175-0.07-0.325-0.167-0.452-0.287c-0.125-0.122-0.223-0.266-0.294-0.433
					c-0.072-0.168-0.107-0.347-0.107-0.542c0-0.205,0.038-0.391,0.113-0.559c0.077-0.169,0.181-0.312,0.312-0.431
					c0.132-0.119,0.283-0.212,0.458-0.278c0.172-0.066,0.355-0.097,0.547-0.097c0.19,0,0.369,0.031,0.542,0.097
					c0.173,0.066,0.324,0.159,0.454,0.278c0.131,0.119,0.234,0.262,0.312,0.431c0.074,0.168,0.113,0.354,0.113,0.559
					C151.535,120.175,151.496,120.361,151.421,120.53z"/>
				<path style="fill:#FFFFFF;" d="M150.434,119.766c0.019-0.028,0.029-0.066,0.029-0.118c0-0.042-0.011-0.073-0.03-0.099
					c-0.02-0.024-0.046-0.043-0.076-0.056c-0.03-0.012-0.063-0.021-0.101-0.023c-0.039-0.004-0.075-0.004-0.11-0.004h-0.288v0.396
					h0.266c0.043,0,0.088-0.001,0.129-0.004c0.042-0.003,0.077-0.012,0.106-0.028C150.392,119.814,150.416,119.794,150.434,119.766z
					"/>
				<path style="fill:#FFFFFF;" d="M150.902,119.155c-0.101-0.099-0.219-0.177-0.354-0.232c-0.134-0.054-0.28-0.081-0.435-0.081
					c-0.159,0-0.304,0.028-0.44,0.081c-0.137,0.055-0.256,0.133-0.357,0.232c-0.101,0.101-0.179,0.22-0.236,0.358
					c-0.057,0.138-0.086,0.291-0.086,0.457c0,0.155,0.026,0.301,0.076,0.437c0.054,0.137,0.127,0.256,0.225,0.358
					c0.098,0.102,0.214,0.184,0.351,0.243c0.138,0.059,0.294,0.09,0.467,0.09c0.155,0,0.3-0.029,0.435-0.082
					c0.135-0.056,0.253-0.132,0.354-0.233c0.102-0.1,0.179-0.219,0.239-0.355c0.056-0.137,0.084-0.291,0.084-0.458
					c0-0.166-0.028-0.319-0.084-0.457C151.081,119.376,151.004,119.257,150.902,119.155z M150.46,120.637l-0.375-0.583h-0.225v0.583
					h-0.237v-1.365h0.549c0.175,0,0.307,0.031,0.397,0.093c0.087,0.062,0.133,0.162,0.133,0.301c0,0.121-0.036,0.211-0.108,0.269
					c-0.074,0.057-0.164,0.091-0.271,0.103l0.406,0.599H150.46z"/>
			</g>
		</g>
	</g>
</g>
<g id="Layer_1">
</g>
</svg>
