<?xml version="1.0" encoding="iso-8859-1"?>
<!-- Generator: Adobe Illustrator 19.2.0, SVG Export Plug-In . SVG Version: 6.00 Build 0)  -->
<svg version="1.1" xmlns="http://www.w3.org/2000/svg" xmlns:xlink="http://www.w3.org/1999/xlink" x="0px" y="0px"
	 viewBox="0 0 200 200" style="enable-background:new 0 0 200 200;" xml:space="preserve">
<g id="TRUTVHD">
	<g>
		<g>
			<path style="fill:#FFFFFF;" d="M174.031,99.674h-5.679l-1.959-19.299h4.932l1.024,13.051l6.717-13.051h5.37L174.031,99.674z
				 M164.467,84.778h-5.236l-2.601,14.896h-5.084l2.602-14.896h-5.521l0.77-4.403h15.839L164.467,84.778z M165.434,63.618
				c-14.276,0-25.848,11.571-25.848,25.845c0,14.273,11.572,25.845,25.848,25.845c14.269,0,25.84-11.572,25.84-25.845
				C191.274,75.188,179.702,63.618,165.434,63.618"/>
			<path style="fill:#FFFFFF;" d="M101.277,109.475c0,4.297,1.974,9.476,8.328,9.476c6.122,0,8.328-5.014,8.328-9.574V80.375h19.019
				v55.581h-17.632v-8.262c-3.823,8.038-11.77,9.014-16.347,9.014c-12,0-20.589-7.543-20.589-20.481V80.375h18.892V109.475z"/>
			<path style="fill:#FFFFFF;" d="M62.255,110.841v25.116H43.164V80.374h17.632v9.36c4.06-7.111,9.463-9.36,16.679-9.36h2.149V99.68
				h-3.03C66.419,99.68,62.255,103.041,62.255,110.841"/>
		</g>
		<polygon style="fill:#FFFFFF;" points="11.43,94.984 1.548,94.984 1.548,80.375 11.43,80.375 11.43,64.901 30.522,64.901 
			30.522,80.375 40.404,80.375 40.404,94.984 30.522,94.984 30.522,135.956 11.43,135.956 		"/>
		<g>
			<path style="fill:#FFFFFF;" d="M190.845,111.163v4.154h-0.961v-4.154h-1.503v-0.92h3.965v0.92H190.845z"/>
			<path style="fill:#FFFFFF;" d="M197.039,110.243H198v5.074h-0.961v-3.573h-0.021l-1.59,2.09l-1.59-2.09h-0.021v3.573h-0.961
				v-5.074h0.961l1.61,2.084L197.039,110.243z"/>
		</g>
	</g>
</g>
<g id="Layer_1">
</g>
</svg>
