<?xml version="1.0" encoding="utf-8"?>
<!-- Generator: Adobe Illustrator 19.0.0, SVG Export Plug-In . SVG Version: 6.00 Build 0)  -->
<svg version="1.1" id="Layer_1" xmlns="http://www.w3.org/2000/svg" xmlns:xlink="http://www.w3.org/1999/xlink" x="0px" y="0px"
	 viewBox="-192 297 226.7 200" style="enable-background:new -192 297 226.7 200;" xml:space="preserve">
<style type="text/css">
	.st0{fill:#FFFFFF;}
</style>
<g id="UNIMHD">
	<g>
		<g>
			<path class="st0" d="M-121.1,366c0-0.2-0.1-0.3-0.3-0.5c-3.3-3.3-23.3-3.6-29.3-3.6c-1,0-1.8,0-2.7,0c0,0-0.1-0.4-0.1-0.8
				c0-0.5,0.1-1.1,0.8-1.3c0.5-0.1,19.7-1.2,31.7-1.2c7.6,0,11.3,0.6,13.2,2.4c0.5,0.5,0.6,1.2,0.5,1.8l-9.6,36.6
				c-2.9,10.9-17.3,33.6-45.3,33.6c-24.1,0-27.9-16.5-27.9-26.8c0-2.7,0.4-5.3,0.7-6.7l6-28.8c0.1-0.3,0.2-0.6,0.4-0.7
				c0.3-0.3,0.8-0.3,1.9-0.3c6.1,0,17,3.4,21.1,11.9l-4.8,22.2c-1.7,7.8-3.2,17.3-3.2,23.2c0,1.7,0.1,3.1,0.4,4.2
				c27.3-1.1,37.1-22.6,39.1-31.7L-121.1,366z"/>
			<g>
				<path class="st0" d="M-57.1,386.9h-4.6v-14.6V370h4.6V386.9z M-77.8,386.9v-9.4c0-2.3,1.8-3.7,3.7-3.7c2.1,0,3.8,1.6,3.8,3.7
					v9.4h4.5v-9.2c0-4.3-3-8.1-8.2-8.1c-5.6,0-8.4,3.8-8.4,8.1v9.2H-77.8z M-90.6,370v9.4c0,2.3-1.8,3.7-3.7,3.7
					c-2.1,0-3.7-1.6-3.7-3.7V370h-4.5v9.2c0,4.3,3,8.1,8.2,8.1c5.6,0,8.4-3.8,8.4-8.1V370H-90.6z"/>
				<g>
					<path class="st0" d="M16.9,416.6c0,9-8.8,16.4-21.6,16.4c-6.9,0-11.5-1.4-15.8-3.6l0.6,2.7h-15.4l-1.1-5.5h-14.9l-3.3,5.5H-81
						l4.2-20.5l-9.7,17.2h-7.7l-2.6-17.2l-4.2,20.5h-14l8.5-41.4h6.1c4.5,0,12.8,2.6,14.6,12.1l0.5,2.4l8.9-14.5h18.2l-7.1,34.4
						l21.9-34.4h14l7.3,32.1l6.1-5.7c3.9,3.4,8.9,5,13.9,5c2.9,0,4.3-0.9,4.3-2.1c0-0.7-0.3-1.1-0.7-1.4c-2.3-2.3-13.2-1.7-18.2-6.6
						c-1.5-1.5-2.3-3.3-2.3-5.6c0-5.9,5.3-16.4,21.5-16.4c8.3,0,13.4,2.1,17.6,6l-8.8,9.3c-3.4-2.8-8-4.3-11.9-4.3
						c-2.4,0-3.8,1.2-3.8,2.4c0,3.1,13.1,2.2,18.8,7.9C16.2,412.6,16.9,414.6,16.9,416.6z M-38,416.9l-1.8-10l-5.9,10H-38z"/>
					<path class="st0" d="M-25,386.9h-20.3l1.3-4.9l23.6-4.9L-25,386.9z"/>
				</g>
			</g>
		</g>
		<path class="st0" d="M28.6,389.4c2.8,0,5.1,2.3,5.1,5.1c0,2.8-2.3,5.1-5.1,5.1c-2.8,0-5.1-2.3-5.1-5.1
			C23.4,391.7,25.7,389.4,28.6,389.4z M28.6,398.6c2.3,0,4.1-1.8,4.1-4.1c0-2.3-1.8-4.1-4.1-4.1s-4.1,1.8-4.1,4.1
			C24.5,396.8,26.3,398.6,28.6,398.6z M27.9,394.9v2.4h-1.3v-5.6h2c0.7,0,1.1,0.2,1.4,0.4c0.4,0.3,0.6,0.8,0.6,1.3
			c0,0.6-0.3,1-0.7,1.3c-0.1,0.1-0.2,0.1-0.4,0.2l1.7,2.5h-1.4l-1.6-2.4H27.9z M28.6,393.9c0.3,0,0.4-0.1,0.5-0.2
			c0.1-0.1,0.1-0.2,0.1-0.3c0-0.1,0-0.2-0.1-0.3c-0.1-0.1-0.2-0.2-0.5-0.2h-0.8v1C27.9,393.9,28.6,393.9,28.6,393.9z"/>
	</g>
</g>
<g id="Layer_1_1_">
</g>
</svg>
