<?xml version="1.0" encoding="iso-8859-1"?>
<!-- Generator: Adobe Illustrator 19.2.0, SVG Export Plug-In . SVG Version: 6.00 Build 0)  -->
<svg version="1.1" xmlns="http://www.w3.org/2000/svg" xmlns:xlink="http://www.w3.org/1999/xlink" x="0px" y="0px"
	 viewBox="0 0 200 200" style="enable-background:new 0 0 200 200;" xml:space="preserve">
<g id="UNIPHD">
	<g>
		<g>
			<g>
				<path style="fill:#FFFFFF;" d="M76.532,156.035h-4.347v-16.196h4.347V156.035z M88.384,149.727l4.442-9.888h4.518l-7.454,16.196
					h-3.004l-7.451-16.196h4.507L88.384,149.727z M104.46,156.035h-4.346v-16.196h4.346V156.035z M109.903,151.092
					c1.103,1.002,2.809,1.604,4.439,1.604c1.17,0,2.07-0.567,2.07-1.366c0-2.436-7.847-1.568-7.847-6.784
					c0-3.107,3.007-5.042,6.213-5.042c2.105,0,4.408,0.799,5.48,1.632l-2.031,3.144c-0.84-0.602-1.943-1.098-3.113-1.098
					c-1.199,0-2.205,0.462-2.205,1.294c0,2.109,7.847,1.27,7.847,6.888c0,3.101-3.034,5.007-6.44,5.007
					c-2.237,0-4.614-0.772-6.512-2.174L109.903,151.092z M128.688,156.035h-4.344v-16.196h4.344V156.035z M140.363,139.503
					c4.91,0,8.61,3.773,8.61,8.451c0,4.677-3.7,8.416-8.61,8.416c-4.91,0-8.625-3.738-8.625-8.416
					C131.739,143.276,135.454,139.503,140.363,139.503 M140.363,152.359c2.539,0,4.275-1.975,4.275-4.405
					c0-2.441-1.735-4.444-4.275-4.444c-2.532,0-4.278,2.003-4.278,4.444C136.086,150.384,137.832,152.359,140.363,152.359
					 M44.499,139.838v8.964c0,2.219-1.689,3.551-3.58,3.551c-1.994,0-3.577-1.557-3.577-3.551v-8.964H33v8.796
					c0,4.095,2.851,7.74,7.825,7.74c5.342,0,8.013-3.611,8.013-7.74v-8.796H44.499z M56.755,156.037v-8.96
					c0-2.219,1.676-3.549,3.563-3.549c2,0,3.58,1.549,3.58,3.549v8.96h4.34v-8.794c0-4.106-2.857-7.74-7.826-7.74
					c-5.342,0-8.01,3.612-8.01,7.74v8.794H56.755z M156.507,156.037v-8.96c0-2.219,1.686-3.549,3.579-3.549
					c1.983,0,3.574,1.549,3.574,3.549v8.96H168v-8.794c0-4.106-2.855-7.74-7.824-7.74c-5.345,0-8.015,3.612-8.015,7.74v8.794
					H156.507z"/>
			</g>
		</g>
	</g>
	<g>
		<path style="fill:#FFFFFF;" d="M92.448,60.201v24.091c-3.149,1.491-11.47,1.713-18.427,1.404
			c-0.206-0.008-0.413-0.024-0.627-0.048c-0.04,0-0.087-0.008-0.135-0.008c-0.103-0.008-0.214-0.016-0.325-0.024v-0.008
			c-0.206-6.203-1.38-12.636-3.585-19.657l-1.547-4.91l0,0c-1.031-2.848-2.078-5.021-2.975-7.234
			c-1.269-3.125-2.277-5.592-2.586-7.179c0-0.008,0-0.008,0-0.008c0.008-0.436,0.151-0.444,0.23-0.452
			C68.801,45.558,84.531,49.167,92.448,60.201z"/>
	</g>
	<g>
		<g>
			<path style="fill:#FFFFFF;" d="M94.034,86.616v-46.73h3.26c13.564,0.032,31.151,0.857,37.703,2.594
				c3.427,0.896,4.331,1.571,4.537,1.769l-0.309,39.805c-0.135,0.071-0.294,0.143-0.468,0.214c-0.079,0.032-0.159,0.063-0.246,0.095
				c-0.27,0.095-0.563,0.19-0.896,0.278c-0.111,0.032-0.222,0.063-0.333,0.087c-0.587,0.143-1.253,0.278-1.991,0.405
				c-0.143,0.024-0.294,0.048-0.444,0.071c-0.769,0.119-1.602,0.23-2.499,0.333c-0.182,0.024-0.365,0.04-0.547,0.063
				c-0.405,0.048-0.825,0.087-1.253,0.127c-0.341,0.032-0.698,0.063-1.055,0.095c-0.032,0-0.063,0.008-0.095,0.008
				c-0.365,0.032-0.746,0.063-1.126,0.095c-0.024,0-0.048,0-0.063,0.008c-0.587,0.04-1.19,0.079-1.809,0.127
				c-0.666,0.04-1.349,0.079-2.047,0.119c-0.444,0.024-0.904,0.048-1.364,0.071c-0.857,0.048-1.737,0.087-2.626,0.119
				c-0.063,0-0.119,0.008-0.182,0.008c-1.325,0.056-2.665,0.103-4.022,0.135c-0.103,0-0.206,0-0.309,0.008
				c-6.862,0.19-13.858,0.198-19.006,0.143c-0.198-0.008-0.397-0.008-0.587-0.008c-0.555-0.008-1.079-0.016-1.579-0.024
				c-0.214,0-0.436-0.008-0.643-0.008"/>
		</g>
	</g>
	<g>
		<path style="fill:#FFFFFF;" d="M96.66,122.161c-7.449-0.547-15.5-4.268-21.886-10.185c-7.568-7.012-11.883-16.301-12.24-26.28
			c-0.032-0.016-0.071-0.024-0.103-0.04c0.056,0.016,0.111,0.04,0.175,0.056c0.016,0.008,0.04,0.016,0.056,0.024
			c0.048,0.016,0.103,0.032,0.159,0.048c0.087,0.024,0.182,0.048,0.278,0.079c0.071,0.016,0.143,0.04,0.222,0.056
			c0.032,0.008,0.071,0.016,0.111,0.032c0.056,0.008,0.111,0.024,0.175,0.04c0.024,0.008,0.056,0.016,0.087,0.024
			c0.032,0,0.063,0.016,0.103,0.024c0.032,0,0.071,0.016,0.111,0.024c0.222,0.048,0.468,0.103,0.73,0.151
			c0.103,0.016,0.206,0.032,0.317,0.063c0.008-0.008,0.016-0.008,0.024,0c0.048,0.008,0.103,0.016,0.159,0.032
			c0.262,0.04,0.531,0.087,0.825,0.135c0.19,0.024,0.397,0.055,0.603,0.087c0.079,0.008,0.159,0.016,0.238,0.032
			c0.024,0,0.056,0.008,0.087,0.016c0.317,0.04,0.658,0.087,1.007,0.127c0.008,0,0.016,0.008,0.016,0.008
			c0.008-0.008,0.016,0,0.016,0c0.182,0.016,0.373,0.04,0.571,0.063c0.032,0.008,0.071,0.008,0.103,0.016
			c0.032,0,0.063,0.008,0.095,0.008c0.135,0.016,0.27,0.032,0.397,0.048c0.23,0.024,0.46,0.048,0.674,0.071
			c0.103,0.008,0.206,0.016,0.301,0.024c0.071,0.008,0.143,0.024,0.214,0.024c0.071,0.008,0.135,0.016,0.206,0.024
			c0.127,0.016,0.246,0.024,0.365,0.032c0.016,0.008,0.032,0.008,0.048,0.008c0.087,0.008,0.167,0.016,0.246,0.024
			c0.159,0.016,0.309,0.032,0.436,0.04c0.079,0,0.159,0.008,0.238,0.016l0.27,0.024c0.293,0.024,0.587,0.048,0.88,0.071
			c0.857,0.079,1.705,0.143,2.546,0.206c0.365,0.024,0.722,0.048,1.079,0.071c2.53,0.182,4.934,0.317,7.084,0.42
			c0.849,0.04,1.658,0.071,2.419,0.103c2.959,0.119,5.22,0.167,6.346,0.182c0,0.325,0,0.658,0.008,1.007
			c0,0.69,0.008,1.412,0.024,2.158c0.008,0.436,0.016,0.88,0.024,1.333c0.024,1.039,0.056,2.126,0.095,3.229
			c0.008,0.071,0.008,0.143,0.008,0.206c0.032,0.777,0.063,1.571,0.103,2.364c0.024,0.484,0.048,0.96,0.071,1.444
			c0.04,0.761,0.087,1.523,0.135,2.285c0.016,0.167,0.024,0.341,0.04,0.508c0.048,0.777,0.111,1.547,0.174,2.308
			c0.071,0.865,0.143,1.713,0.23,2.554c0.024,0.278,0.056,0.547,0.087,0.817c0.024,0.27,0.056,0.531,0.087,0.793
			c0.032,0.333,0.071,0.658,0.111,0.968c0.048,0.373,0.095,0.738,0.143,1.087c0.048,0.365,0.095,0.722,0.151,1.063
			c0.635,4.323,1.388,6.965,2.094,8.607c0.071,0.167,0.143,0.325,0.214,0.468c0.079,0.174,0.159,0.325,0.238,0.468
			c0.055,0.103,0.111,0.198,0.167,0.286C96.66,122.145,96.66,122.153,96.66,122.161z"/>
	</g>
	<g>
		<path style="fill:#FFFFFF;" d="M139.186,85.815c-0.309,5.616-2.57,14.136-8.147,21.537c-7.298,9.685-18.443,14.826-32.253,14.873
			c-0.444-0.325-0.857-0.912-1.23-1.721c-0.127-0.278-0.254-0.579-0.373-0.904c-0.056-0.151-0.111-0.309-0.159-0.468
			c-0.048-0.127-0.087-0.254-0.127-0.389c-0.087-0.262-0.167-0.539-0.246-0.833c-0.079-0.286-0.159-0.587-0.23-0.896
			c-0.04-0.159-0.079-0.317-0.111-0.476c-0.071-0.325-0.143-0.658-0.214-0.999c-0.055-0.254-0.103-0.508-0.151-0.777
			c-0.516-2.76-0.92-6.068-1.214-9.559c-0.032-0.381-0.063-0.769-0.087-1.158c-0.008-0.056-0.016-0.111-0.016-0.167
			c-0.048-0.635-0.095-1.285-0.143-1.936c0-0.095-0.008-0.19-0.016-0.286c-0.024-0.365-0.048-0.722-0.063-1.087
			c-0.111-1.832-0.19-3.665-0.254-5.465c-0.016-0.452-0.024-0.904-0.04-1.349c-0.008-0.444-0.024-0.888-0.032-1.325
			c-0.008-0.436-0.016-0.873-0.024-1.301c-0.016-1.007-0.024-1.975-0.024-2.919c2.665,0.04,11.526,0.143,20.719-0.071
			c0.801-0.016,1.579-0.04,2.332-0.063c0.88-0.024,1.729-0.056,2.546-0.087c0.738-0.024,1.444-0.056,2.126-0.087
			c0.412-0.016,0.825-0.032,1.222-0.056c0.595-0.032,1.174-0.063,1.729-0.095c0.373-0.016,0.73-0.04,1.087-0.063
			c1.531-0.095,2.895-0.198,4.117-0.309c0.19-0.016,0.373-0.032,0.555-0.048c2.38-0.23,4.172-0.476,5.537-0.722
			c0.119-0.024,0.238-0.04,0.349-0.063c0.595-0.111,1.095-0.222,1.531-0.333c0.143-0.04,0.278-0.079,0.405-0.111
			c0.262-0.071,0.492-0.151,0.69-0.214C139.051,85.862,139.122,85.839,139.186,85.815z"/>
	</g>
	<g>
		<path style="fill:#FFFFFF;" d="M71.205,85.466c-0.04-0.008-0.079-0.008-0.119-0.016c-0.071-0.008-0.135-0.008-0.206-0.016
			c-0.127-0.016-0.254-0.024-0.397-0.04c-0.103-0.008-0.214-0.024-0.325-0.032H70.11c-0.087-0.016-0.182-0.024-0.278-0.032
			c-0.095-0.008-0.19-0.016-0.286-0.032c-0.071-0.008-0.143-0.016-0.222-0.024c-0.048-0.008-0.095-0.008-0.151-0.016
			c-0.055,0-0.111-0.008-0.159-0.016l-0.167-0.024c-0.056,0-0.111-0.008-0.167-0.016c-0.135-0.016-0.278-0.032-0.405-0.048
			c-0.071-0.008-0.143-0.016-0.214-0.024c-0.016-0.008-0.032-0.008-0.048-0.008c-0.048-0.008-0.087-0.008-0.135-0.016
			c-0.103-0.016-0.214-0.032-0.317-0.04c-0.016-0.008-0.032-0.008-0.048-0.008c-0.127-0.016-0.238-0.032-0.357-0.048
			c-0.04-0.008-0.079-0.016-0.119-0.016c-0.111-0.016-0.214-0.032-0.317-0.048c-0.079-0.008-0.151-0.024-0.23-0.032
			c-0.056-0.008-0.103-0.016-0.159-0.024c-0.23-0.04-0.444-0.071-0.643-0.103c-0.016-0.008-0.04-0.008-0.056-0.008
			c-0.071-0.016-0.143-0.024-0.214-0.04c-0.19-0.032-0.373-0.071-0.547-0.103c-0.048-0.008-0.087-0.016-0.127-0.024
			c-0.444-0.087-0.809-0.174-1.103-0.246c-0.135-0.032-0.254-0.063-0.365-0.103c-0.024-0.008-0.048-0.016-0.063-0.024
			c-0.008,0-0.008,0-0.016,0c-0.008,0-0.008,0-0.016,0c-0.032-0.016-0.071-0.032-0.103-0.04c-0.032-0.008-0.071-0.016-0.103-0.032
			c-0.079-0.032-0.151-0.056-0.214-0.079c-0.04-0.016-0.079-0.032-0.111-0.04c-0.032-0.024-0.071-0.032-0.095-0.048
			c-0.008-0.008-0.016-0.016-0.024-0.016c-0.008-0.008-0.016-0.016-0.024-0.016l-0.23-32.245c0.325,0.833,0.69,1.729,1.079,2.673
			c1.341,3.316,3.022,7.441,4.482,12.057l0.317,1.007c1.928,6.409,2.975,12.319,3.189,18.007L71.205,85.466z"/>
	</g>
</g>
<g id="Layer_1">
</g>
</svg>
