<?xml version="1.0" encoding="iso-8859-1"?>
<!-- Generator: Adobe Illustrator 19.2.1, SVG Export Plug-In . SVG Version: 6.00 Build 0)  -->
<svg version="1.1" xmlns="http://www.w3.org/2000/svg" xmlns:xlink="http://www.w3.org/1999/xlink" x="0px" y="0px"
	 viewBox="0 0 200 200" style="enable-background:new 0 0 200 200;" xml:space="preserve">
<g id="usa_x5F_black_copy_2">
	<g>
		<path style="fill-rule:evenodd;clip-rule:evenodd;fill:#FFFFFF;" d="M78.234,75.962c0.66-1.539,1.979-3.077,3.518-4.616
			l1.32-1.099H65.922v30.56c0,2.199,0,3.958-0.22,5.056c-0.44,3.958-1.759,6.597-4.177,7.915c-1.099,0.658-2.639,0.879-4.398,0.879
			c-1.759,0-3.298-0.438-4.397-1.539c-1.979-1.539-3.078-4.178-3.298-7.915l-0.22-34.956H31.624v31.22
			c0,4.616,0.22,8.134,0.659,10.333c0.66,3.077,1.76,5.937,3.518,8.574c1.539,2.419,3.738,4.618,6.595,6.157
			c2.858,1.539,5.937,2.419,9.015,2.857c3.077,0.44,6.376,0.44,9.893,0.22c3.077-0.22,6.156-0.878,9.014-1.979
			c2.858-1.099,5.056-2.857,7.035-5.056c1.979-1.979,3.298-4.178,4.397-7.035l0.22-0.66c2.638,2.419,5.057,4.178,7.036,5.276
			c3.077,1.539,5.936,1.979,8.574,1.539c1.32,0,2.638-0.658,3.958-1.759c0.879-1.099,1.539-2.197,1.979-3.738
			c0.219-1.319,0-2.637-0.66-3.736c-0.659-1.1-1.319-1.979-2.418-2.639c-1.32-0.88-2.858-1.539-4.837-2.199l-9.893-3.518
			l-4.177-2.637c-1.979-1.761-3.738-4.178-4.837-7.257c-1.099-2.857-1.539-5.935-1.32-9.014
			C75.596,81.459,76.695,78.381,78.234,75.962z"/>
		<path style="fill-rule:evenodd;clip-rule:evenodd;fill:#FFFFFF;" d="M128.581,71.333c-1.979,0.66-3.957,1.759-5.716,2.857
			c-3.518,2.419-6.376,5.937-8.575,10.334c-3.298-2.859-5.717-4.618-7.695-5.496c-3.518-1.32-6.595-1.32-9.014-0.22
			c-1.539,0.66-2.418,1.539-3.077,2.637c-0.88,1.1-1.099,2.639-0.88,4.178c0,1.319,0.44,2.639,1.54,3.738
			c1.099,0.88,2.198,1.539,3.738,1.979l9.234,3.298c3.298,1.1,6.156,2.639,8.135,4.618c4.397,4.176,6.156,9.672,5.056,16.928
			c-0.22,1.979-0.659,3.519-1.319,4.838l-0.66,1.539l0.66,0.44l1.539,1.539c2.199,1.539,4.617,2.857,7.035,3.958
			c5.277,1.979,10.334,1.979,15.391,0.44c2.857-1.1,5.276-2.639,7.474-4.838v5.056h16.93V70.673h-16.93v5.058
			c-2.198-1.979-4.617-3.519-7.035-4.398c-2.199-0.66-4.397-1.099-6.816-1.319C134.298,69.794,131.44,70.234,128.581,71.333z
			 M147.05,88.262c3.738,2.857,5.496,7.255,5.057,12.752c-0.22,5.496-2.199,9.454-6.376,11.871c-1.54,1.1-3.518,1.539-5.717,1.539
			c-2.638,0-5.057-0.879-7.035-2.637c-1.979-1.759-3.518-4.178-4.398-7.035c-1.979-6.597-0.879-11.873,3.738-16.051
			c2.199-2.197,4.617-3.298,7.255-3.298C142.212,85.183,144.631,86.284,147.05,88.262z"/>
	</g>
</g>
<g id="Layer_1">
</g>
</svg>
