<?xml version="1.0" encoding="iso-8859-1"?>
<!-- Generator: Adobe Illustrator 19.2.0, SVG Export Plug-In . SVG Version: 6.00 Build 0)  -->
<svg version="1.1" xmlns="http://www.w3.org/2000/svg" xmlns:xlink="http://www.w3.org/1999/xlink" x="0px" y="0px"
	 viewBox="0 0 200 200" style="enable-background:new 0 0 200 200;" xml:space="preserve">
<g id="VICEHD">
	<g>
		<path style="fill:#FFFFFF;" d="M3.487,88.273h8.414l4.454,16.934l4.631-16.934H29.4l-8.838,25.453h-8.378L3.487,88.273z"/>
		<path style="fill:#FFFFFF;" d="M30.594,113.727V88.273h8.343v25.453H30.594z"/>
		<path style="fill:#FFFFFF;" d="M59.052,97.995c-0.247-2.651-1.909-4.172-4.525-4.172c-2.934,0-4.702,2.51-4.702,7.424
			c0,3.571,0.778,6.929,5.02,6.929c2.687,0,3.959-1.874,4.278-4.313h8.025c-0.742,6.575-5.444,10.535-12.161,10.535
			c-8.414,0-13.504-5.161-13.504-13.434c0-8.237,5.586-13.363,12.691-13.363c7.777,0,12.126,3.853,12.797,10.394H59.052z"/>
		<path style="fill:#FFFFFF;" d="M69.92,113.727V88.273h20.752v5.939H78.263v3.641h11.311v5.939H78.263v3.995h12.903v5.939H69.92z"
			/>
		<path style="fill:#FFFFFF;" d="M94.794,113.727V88.273h8.343v19.514h11.454v5.939H94.794z"/>
		<path style="fill:#FFFFFF;" d="M115.934,113.727l9.121-25.453h8.484l9.121,25.453h-8.308l-0.99-3.358h-8.308l-0.955,3.358H115.934
			z M129.226,95.945l-2.581,9.121h5.268L129.226,95.945z"/>
		<path style="fill:#FFFFFF;" d="M160.823,102.167l-0.318-5.798v-8.096h7.989v25.453h-7.813l-9.085-13.858l0.318,5.798v8.06h-7.989
			V88.273h7.813L160.823,102.167z"/>
		<path style="fill:#FFFFFF;" d="M172.037,113.727V88.273h11.171c8.202,0,13.292,3.818,13.292,12.196
			c0,9.58-5.338,13.257-13.504,13.257H172.037z M180.379,107.788h1.768c3.889,0,6.01-2.05,6.01-6.858
			c0-5.303-1.732-6.717-6.187-6.717h-1.591V107.788z"/>
	</g>
</g>
<g id="Layer_1">
</g>
</svg>
